<svg width="134" height="132" viewBox="0 0 134 132" fill="none" xmlns="http://www.w3.org/2000/svg">
<path fill-rule="evenodd" clip-rule="evenodd" d="M45.4359 27.1311C68.1436 12.6942 89.0693 25.9302 105.231 37.7311C118.64 47.5225 128.574 62.551 118.527 80.5017C108.629 98.1842 85.8223 106.005 65.9315 107.943C46.1383 109.872 27.3833 105.584 23.3735 89.7736C18.2297 69.4919 21.7441 42.1936 45.4359 27.1311Z" fill="#EEFFF4"/>
<g clip-path="url(#clip0_4705_7)">
<path d="M92.7827 79.7206C92.2927 77.8832 90.4293 76.7965 88.6203 77.2934L83.9981 78.7302C84.6131 75.9239 83.1584 73.0736 80.546 71.9664C80.9692 70.6594 80.7494 69.2259 79.9554 68.1115C79.1619 66.9972 77.8899 66.337 76.5355 66.3366C76.4509 66.3366 76.3664 66.3366 76.2822 66.3441C75.6215 64.105 73.7441 62.4574 71.4674 62.1181V60.8944C71.4658 60.2116 71.733 59.556 72.2098 59.0742L74.4906 56.7576C75.6038 57.6713 76.9904 58.1711 78.4215 58.1748C80.5497 58.1015 82.5608 57.169 84.0093 55.5838C86.7351 52.8135 89.3215 42.4068 89.6069 41.2288C89.6774 40.9372 89.5929 40.6293 89.3837 40.4174C89.1751 40.205 88.8719 40.1191 88.5849 40.1907C87.4251 40.4806 77.1818 43.1076 74.4518 45.8763C71.5173 48.8577 71.0975 52.7201 73.2954 55.5453L71.0146 57.8619C70.5951 58.2909 70.2701 58.8057 70.061 59.3717C69.7356 59.0135 69.3619 58.7039 68.9511 58.4521L66.0731 56.7019C66.83 55.1406 66.9162 53.3309 66.3115 51.7026C65.5881 49.8937 64.2704 48.3952 62.5823 47.4619C59.2423 45.5047 48.674 45.6601 47.4829 45.6848C47.1872 45.6911 46.9162 45.8536 46.7686 46.1138C46.6205 46.3735 46.6172 46.6936 46.7599 46.9566C47.3369 48.0186 52.4858 57.3923 55.8249 59.3503C57.1389 60.1462 58.6352 60.5794 60.165 60.6062C60.5469 60.6066 60.9284 60.5748 61.3054 60.5111C62.8437 60.2539 64.2291 59.414 65.1823 58.1602L68.0846 59.9234C68.8835 60.4148 69.4564 61.2103 69.675 62.1328C66.8172 62.6065 64.7162 65.1113 64.71 68.0525V68.1124C63.0124 67.8669 61.2934 68.3809 59.9975 69.5212C58.7016 70.6615 57.9555 72.3162 57.9526 74.0581H57.6907C55.775 74.0593 53.8637 74.2428 51.9818 74.6064C50.8113 74.8402 49.6882 75.2746 48.6612 75.8904V73.2001C48.6612 72.7263 48.283 72.3422 47.8166 72.3422H42.7485C42.282 72.3422 41.9038 72.7263 41.9038 73.2001V90.359C41.9038 90.8328 42.282 91.2169 42.7485 91.2169H47.8166C48.283 91.2169 48.6612 90.8328 48.6612 90.359V87.6134C49.7497 88.3012 50.9515 88.7826 52.209 89.0352C53.8295 89.3456 55.4755 89.5014 57.1249 89.501H69.246C70.8013 89.4993 72.3496 89.2911 73.8521 88.8823L90.3967 83.9244C92.1982 83.4326 93.2664 81.5504 92.7827 79.7206V79.7206ZM75.6479 47.0878C77.4214 45.286 83.9651 43.2203 87.609 42.22C86.6249 45.9173 84.5871 52.5693 82.8165 54.369C80.911 56.3027 78.0652 57.3005 75.6974 55.5315L78.2046 52.9853L80.0486 53.922C80.4656 54.1352 80.9741 53.9647 81.1841 53.5408C81.394 53.1168 81.2261 52.6003 80.8087 52.3871L79.4675 51.7067L81.1907 49.9498L83.0396 50.8936C83.4566 51.1069 83.9651 50.9359 84.1751 50.5124C84.385 50.0885 84.2171 49.5719 83.7997 49.3587L82.4482 48.6742L84.6065 46.4812C84.8259 46.2659 84.9142 45.9466 84.8366 45.6467C84.7595 45.3468 84.5289 45.1126 84.2332 45.0342C83.9379 44.9555 83.624 45.0451 83.4121 45.268L81.2546 47.4619L80.5848 46.0979C80.3761 45.6739 79.8684 45.5022 79.4514 45.7141C79.034 45.9261 78.8649 46.4418 79.0736 46.8653L79.9987 48.7391L78.2714 50.4936L77.6016 49.1312C77.3925 48.7077 76.8852 48.536 76.4678 48.7479C76.0504 48.9599 75.8818 49.4752 76.0904 49.8991L77.0127 51.7721L74.5059 54.3183C72.7604 51.9145 73.7482 49.0223 75.6479 47.0878V47.0878ZM61.0241 58.8183C59.5075 59.0198 57.9696 58.6826 56.6695 57.8644C54.5022 56.5938 50.8414 50.7064 48.9433 47.389C52.7192 47.3982 59.5702 47.678 61.7376 48.9486C64.1231 50.3478 65.8409 52.9648 64.6181 55.818L61.5846 53.9769L62.0275 51.778C62.1084 51.3197 61.8143 50.8794 61.3647 50.786C60.9156 50.693 60.4751 50.9808 60.3728 51.4349L60.0482 53.0435L57.9366 51.7637L58.3655 49.6331C58.4467 49.1748 58.1527 48.7345 57.7031 48.6411C57.254 48.5481 56.8135 48.8359 56.7108 49.29L56.4002 50.8346L53.7817 49.2418C53.3812 48.9989 52.8623 49.1312 52.6227 49.538C52.3831 49.9448 52.5138 50.4718 52.9143 50.7152L55.5325 52.305L54.4482 53.2819C54.0984 53.5965 54.0654 54.1394 54.3752 54.4946C54.6845 54.8503 55.219 54.8834 55.5692 54.5688L57.0531 53.2324L59.1392 54.4997L58.1065 55.4305C57.7563 55.7447 57.7237 56.2872 58.0331 56.6424C58.342 56.9981 58.8765 57.0316 59.2263 56.7174L60.6624 55.4305L63.7194 57.288C63.0265 58.1049 62.0717 58.6469 61.0241 58.8183ZM63.8654 69.7684C64.3859 69.7642 64.9022 69.8626 65.3856 70.0582C65.6797 70.1789 66.0158 70.1223 66.2554 69.9112C66.4955 69.7005 66.5986 69.3708 66.5227 69.0579C66.4419 68.729 66.4006 68.3914 66.3994 68.0525C66.3986 65.8041 68.1085 63.9374 70.3163 63.7762C72.5241 63.6153 74.479 65.2143 74.7946 67.44C74.828 67.6876 74.9666 67.9084 75.1732 68.0441C75.3802 68.1798 75.6355 68.2171 75.8714 68.1459C76.0871 68.0826 76.3111 68.0512 76.5355 68.0525C77.9349 68.0525 79.0695 69.2049 79.0695 70.6263C79.0703 71.1181 78.9297 71.5999 78.6649 72.0117C78.5143 72.2471 78.4867 72.542 78.5902 72.8017C78.6938 73.0615 78.9161 73.2533 79.1854 73.3157C81.0909 73.7753 82.4395 75.5004 82.4482 77.4898C82.4515 78.1312 82.3108 78.765 82.037 79.3431L77.887 80.6342C77.68 79.2937 76.7103 78.2049 75.4178 77.8622L71.7046 76.8548L64.5071 74.7099C64.0006 74.5599 63.4826 74.4447 62.9634 74.3463C62.9988 74.2541 63.0182 74.1569 63.0207 74.0581C63.0207 73.5843 63.3989 73.2001 63.8654 73.2001C63.9516 73.1968 64.0373 73.2102 64.1186 73.2395C64.5504 73.4134 65.0392 73.201 65.2132 72.7636C65.3873 72.3267 65.1815 71.8286 64.7521 71.6489C64.47 71.5362 64.1689 71.48 63.8654 71.4842C62.466 71.4842 61.3313 72.6367 61.3313 74.0581C61.3313 74.0803 61.3425 74.0991 61.3441 74.1213C60.8962 74.0828 60.4471 74.0581 59.9967 74.0581H59.642C59.6449 71.6899 61.5338 69.7713 63.8654 69.7684V69.7684ZM46.9719 89.501H43.5932V74.0581H46.9719V89.501ZM89.9381 82.2693L73.396 87.2309C72.042 87.597 70.6471 87.7835 69.246 87.7851H57.1249C55.5824 87.7843 54.0431 87.6368 52.5274 87.3449C51.4415 87.127 50.405 86.7064 49.4704 86.1044L48.6612 85.5896V77.928L48.7532 77.8614C49.8107 77.0839 51.0208 76.5477 52.301 76.2888C54.0778 75.9465 55.8822 75.7744 57.6907 75.7739H59.9967C61.3627 75.7735 62.7217 75.97 64.0336 76.3571L71.2497 78.5074L74.9806 79.5195C75.876 79.757 76.413 80.6862 76.1808 81.5961V81.6078L76.1758 81.6183V81.6258C75.9741 82.374 75.3056 82.8934 74.5422 82.8947C74.3961 82.8955 74.2506 82.8767 74.1095 82.8381L64.0757 80.1097C63.7812 80.0209 63.4624 80.1014 63.243 80.32C63.024 80.5387 62.939 80.8609 63.0211 81.1616C63.1032 81.4624 63.3395 81.6941 63.6381 81.7666L73.6736 84.4958C73.9569 84.5729 74.2489 84.6114 74.5422 84.6106C75.902 84.6056 77.1269 83.7744 77.6519 82.5001L89.0823 78.9481C89.9859 78.7072 90.9114 79.2539 91.1527 80.1709C91.1902 80.3158 91.2088 80.4654 91.2076 80.6154C91.2022 81.395 90.6813 82.074 89.9381 82.2693V82.2693Z" fill="#0CA941"/>
<path d="M68.9792 69.3034C69.2386 69.3034 69.4836 69.1819 69.6441 68.9745C69.8041 68.7672 69.8614 68.4961 69.7991 68.2402C69.7847 68.1786 69.7777 68.1157 69.7781 68.0525C69.7781 67.5787 70.1563 67.1945 70.6228 67.1945C71.034 67.1912 71.3854 67.4949 71.4481 67.9075C71.4761 68.1342 71.5928 68.3394 71.7723 68.4773C71.9512 68.6155 72.1777 68.6742 72.4 68.6402C72.8611 68.5749 73.1836 68.143 73.1205 67.6742C72.93 66.3391 71.7553 65.3814 70.431 65.4807C69.1067 65.5804 68.0838 66.7036 68.0888 68.0525C68.0875 68.2548 68.1115 68.4567 68.1597 68.6528C68.2537 69.0348 68.5915 69.3034 68.9792 69.3034V69.3034Z" fill="#0CA941"/>
<path d="M77.7959 75.6338C77.7452 75.8558 77.7839 76.0891 77.9031 76.2823C78.0223 76.4754 78.212 76.6128 78.431 76.6635C78.8043 76.7586 79.067 77.0983 79.0695 77.4896C79.0695 77.9634 79.4477 78.3475 79.9142 78.3475C80.3806 78.3475 80.7588 77.9634 80.7588 77.4896C80.7547 76.2982 79.948 75.2643 78.8068 74.9887C78.3523 74.8835 77.8998 75.1721 77.7959 75.6338Z" fill="#0CA941"/>
<path d="M72.1534 71.9859C70.9433 71.6532 69.6762 72.2749 69.1801 73.4445C68.999 73.881 69.2007 74.3846 69.6309 74.5685C70.0606 74.7528 70.5564 74.548 70.7379 74.111C70.9016 73.7273 71.3198 73.5258 71.7158 73.6397C71.9327 73.6988 72.1175 73.8433 72.2292 74.0411C72.341 74.2388 72.3711 74.4734 72.3121 74.6933C72.1913 75.1512 72.4586 75.6216 72.9094 75.7444C72.9811 75.7637 73.0549 75.7737 73.1288 75.7737C73.5111 75.7733 73.8452 75.5127 73.9442 75.1378C74.3038 73.7654 73.5033 72.3562 72.1534 71.9859V71.9859Z" fill="#0CA941"/>
<path d="M75.6908 70.6261C76.1573 70.6261 76.5355 71.0103 76.5355 71.4841C76.5355 71.9579 76.9137 72.342 77.3801 72.342C77.8466 72.342 78.2248 71.9579 78.2248 71.4841C78.2248 70.0627 77.0902 68.9102 75.6908 68.9102C75.2243 68.9102 74.8461 69.2944 74.8461 69.7682C74.8461 70.242 75.2243 70.6261 75.6908 70.6261Z" fill="#0CA941"/>
</g>
<defs>
<clipPath id="clip0_4705_7">
<rect width="50.9944" height="51.7955" fill="white" transform="translate(41.9038 39.7395)"/>
</clipPath>
</defs>
</svg>
