<svg width="150" height="250" fill="none" xmlns="http://www.w3.org/2000/svg"><path d="M60.179 197.96c-.278 0-.37-.211-.37-.421 5.273-36.408 9.622-73.341 13.878-109.012 2.59-21.887 5.274-44.615 8.142-67.133 0-.21.185-.316.37-.316s.277.21.277.42c-2.868 22.519-5.55 45.142-8.141 67.029-4.256 35.671-8.605 72.604-13.879 109.012 0 .21-.092.421-.277.421Z" fill="#212121"/><path d="M104.682 209.323c-.185 0-.37-.105-.37-.315-3.239-31.989-6.754-64.293-10.548-95.86-1.48-12.206-3.238-24.307-4.996-35.986-2.683-17.889-5.459-36.408-6.94-55.559 0-.21.093-.42.278-.42.186 0 .37.104.37.315 1.48 19.15 4.257 37.67 6.94 55.453 1.758 11.68 3.608 23.781 4.996 36.092 3.7 31.672 7.309 63.871 10.547 95.859.093.211-.092.421-.277.421Z" fill="#212121"/><path d="M103.016 241.208c-4.256 5.577-11.657 7.786-22.575 7.786-10.917 0-20.817-4.735-22.575-7.786-10.085-19.783-7.402-34.093 0-47.457h45.15c7.772 17.362 9.53 30.2 0 47.457Z" fill="#7C7671"/><path opacity=".47" d="M97.928 245.627c-.74 0-2.498 1.473-3.331 1.683-1.295.421-2.683.842-3.978 1.053-3.331.631-6.755.841-10.085.841-10.918 0-20.818-4.735-22.576-7.786-10.084-19.782-7.401-34.093 0-47.456H87.38c5.181 0 10.548.21 15.729 0 .833 1.578 1.11 3.998.277 5.577-.647 1.262-1.757 2.104-2.775 2.946-7.217 5.156-15.914 6.524-24.426 7.786a69.328 69.328 0 0 0 27.849-2.525c1.295-.421 2.683-.842 3.423-2.104-1.295 1.894 1.943 3.893-1.202 5.576-3.424 1.894-7.31 2.736-11.01 3.473-9.068 1.789-18.412 1.999-27.572 2.21.555 0 2.406 7.786 2.868 8.944 1.296 3.156 2.961 6.208 4.719 8.944 5.459 8.839 13.6 10.627 22.668 10.838Z" fill="#7C7671"/><path opacity=".69" d="M103.109 241.207c-1.295 2.105-2.868 3.788-4.626 3.368 2.868-2.421 4.718-6.209 4.441-10.418-.278-3.998-2.591-7.891-5.829-9.575l5.829 10.733c-5.644-4.525-9.808-11.259-11.565-18.835.74 5.682 1.017 11.469-.093 17.046-1.11 5.577-3.793 10.943-8.05 13.995 5.922-10.628 6.015-24.623 1.666-36.197-1.48-3.894-3.423-7.682-3.793-11.891-3.979 3.262-6.662 8.103-8.512 13.259-1.758 5.156-2.683 10.627-3.424 16.099-.37-4.42-.74-8.734-1.017-13.153-2.406 6.103-6.754 11.259-12.12 14.1 6.569-7.471 8.511-18.835 14.063-27.253-4.626 6.208-11.565 12.311-18.597 14.31.092-4.103.37-7.891 1.573-11.995.462-1.473 3.423-11.154 4.81-11.154h45.151c3.886 8.628 7.124 17.993 6.384 27.884a40.711 40.711 0 0 1-1.11 6.735c-.278 1.052-1.85 3.788-1.758 4.735-.462-4.314-.833-8.523-1.295-12.837-.278-2.315-.463-4.736-1.481-6.84-1.387-2.841-3.978-4.63-6.476-6.314a37.799 37.799 0 0 0 6.384 9.155c-3.331-2.105-6.106-5.156-8.142-8.839a78.588 78.588 0 0 0 4.904 10.312c1.573 2.841 3.33 5.472 4.348 8.523 1.758 5.262 1.018 10.628-1.665 15.047Z" fill="#7C7671"/><path d="M80.441 199.223c12.468 0 22.575-2.45 22.575-5.472 0-3.022-10.107-5.471-22.575-5.471s-22.575 2.449-22.575 5.471c0 3.022 10.107 5.472 22.575 5.472Z" fill="#474340"/><path d="M80.441 199.749c-11.195 0-23.038-2.105-23.038-5.998 0-3.893 11.843-5.998 23.038-5.998s23.038 2.105 23.038 5.998c0 3.893-11.843 5.998-23.038 5.998Zm0-10.943c-13.045 0-22.112 2.63-22.112 4.945 0 2.315 9.067 4.946 22.112 4.946 13.046 0 22.113-2.631 22.113-4.946s-9.067-4.945-22.113-4.945Z" fill="#7C7671"/><path d="M85.345 210.167c-4.349 0-8.605-.316-12.676-.527-3.978-.315-7.679-.841-11.102-1.578-.463-.105-1.018-.21-1.573-.316-2.776-.526-5.829-1.052-7.772-3.577-.092-.211-.092-.421 0-.526.185-.106.37-.106.463 0 1.758 2.315 4.718 2.841 7.401 3.367.556.105 1.11.21 1.573.315 3.424.737 7.032 1.263 11.01 1.579 6.292.526 13.046.842 19.707.316 2.961-.211 5.922-.527 8.79-1.158l.74-.21c2.591-.632 5.551-1.263 7.679-3.157.185-.105.371-.105.463.105.093.211.093.421-.092.526-2.221 1.999-5.274 2.736-7.957 3.262l-.74.211c-2.961.736-5.922.947-8.79 1.157-2.406.105-4.719.211-7.124.211Z" fill="#EFE8CA"/><path d="M109.03 206.694c-.185 0-.277-.105-.37-.316-4.718-37.986-10.547-76.603-16.284-113.852-3.423-22.624-7.031-45.983-10.27-68.817-1.295 7.155-2.683 14.205-3.978 21.255-7.124 37.881-13.878 73.657-18.874 114.59-.833 6.629-2.036 13.047-3.146 19.256-1.48 7.997-3.053 16.309-3.793 25.148 0 .211-.185.421-.37.316-.185 0-.37-.211-.278-.421.74-8.944 2.313-17.257 3.793-25.254 1.11-6.208 2.313-12.627 3.146-19.256 4.996-40.932 11.75-76.708 18.874-114.694 1.48-7.682 2.961-15.468 4.349-23.36l.37-2.105.278 2.105a7008.14 7008.14 0 0 0 10.64 71.026c5.736 37.25 11.565 75.867 16.283 113.853a.53.53 0 0 1-.37.526c.093 0 0 0 0 0Z" fill="#212121"/><path d="M82.384 26.024c-.185 0-.37-.105-.37-.316-.277-3.262-.463-6.313-.37-9.575.093-1.684.185-3.262.925-4.63.278-.526.648-.947 1.018-1.368.278-.316.462-.631.74-.947 1.388-2.105 1.11-5.156-.648-6.63-1.85-1.683-4.163-1.472-5.643.422-.926 1.157-1.296 2.946-.926 4.42.185.736.74 1.788 2.128 2.104.185 0 .278.21.278.42s-.185.316-.37.316c-1.295-.316-2.313-1.263-2.683-2.63C76 5.925 76.37 3.82 77.48 2.454c1.757-2.21 4.533-2.42 6.661-.527 2.035 1.79 2.313 5.367.74 7.787-.277.316-.462.737-.74 1.052-.37.421-.648.842-.925 1.263-.648 1.263-.74 2.736-.833 4.209-.092 3.157 0 6.208.37 9.47 0 .105-.092.316-.37.316.093 0 .093 0 0 0Z" fill="#212121"/><path d="M80.996 21.394c-.37 0-.555-.631-.277-.947.277-.316.74-.42 1.11-.526.092 0 .37.105.185.21.648-1.052 1.943.526 1.388 1.473-.093.106-.185.21-.185.316 0 .105.185.21.277.316.463.316.648 1.052.463 1.578-.093.526-.463 1.052-.833 1.578.555 0 .833.632.74 1.158-.092.526-.647.842-1.11.947-.463.105-1.018 0-1.573-.105-.462-.105-.925-.21-1.11-.632-.278-.63.37-1.262.925-1.683-.462-.105-.832-.526-.832-.947 0-.421.37-.842.832-.947-.277-.105-1.203-1.789 0-1.789Z" fill="#BF7949"/><path d="M82.291 28.023c-.37 0-.74-.105-1.11-.105-.555-.106-1.11-.316-1.388-.842-.277-.527-.092-1.158.556-1.79-.278-.21-.463-.63-.463-1.051 0-.421.278-.842.648-1.158-.278-.42-.463-1.052-.278-1.578 0-.105.093-.21.185-.21-.185-.316-.092-.843.093-1.053.277-.42.832-.526 1.295-.631h.278c.184-.105.37-.21.647-.21.463.105.925.525 1.11 1.052.185.526.185.947-.092 1.367.647.421.925 1.263.74 2.105-.093.526-.37.842-.555 1.263l.278.315c.184.316.277.737.184 1.158-.184.631-.74 1.052-1.387 1.262-.37.106-.555.106-.74.106Zm-1.387-6.209h-.185c-.093.21.277.948.462 1.158l.555.631-.74.105c-.277 0-.462.316-.555.527 0 .21.278.526.463.526l1.017.105-.832.631c-.463.316-.925.842-.74 1.158.092.21.555.315.925.42.555.106 1.017.211 1.388.106.462-.105.74-.421.832-.737 0-.105 0-.315-.092-.42-.093-.106-.185-.211-.37-.211h-.74l.462-.631c.278-.421.648-.947.74-1.368.093-.421 0-.947-.37-1.158-.185-.105-.462-.315-.462-.631s.092-.526.185-.631c.185-.21.092-.527.092-.632-.092-.316-.37-.526-.555-.526h-.093l-.277.21-1.203.842.093.526Zm.092-.736.463-.631c-.185.105-.37.105-.463.315-.092 0-.185.105 0 .316-.092 0-.092 0 0 0Z" fill="#BF7949"/><path d="M51.204 190.173c-7.401 2.105-13.693 7.471-19.244 13.469a130.143 130.143 0 0 0-18.874 25.78c2.313-6.629 5.458-12.837 9.344-18.414 5.552-8.102 12.676-15.047 21.003-19.256 8.604-4.42 19.43-6.524 28.034-.737-3.424-2.315-7.31-3.683-11.288-3.998-9.807-1.053-19.245 3.577-27.386 9.365-8.327 5.892-15.451 13.994-20.818 23.359 6.014-10.522 13.323-20.413 22.668-27.147 6.106-4.42 13.046-7.366 20.262-8.103 3.701-.421 7.31-.105 10.918.737 3.423.842 5.088 1.999 8.05 3.998-6.292-11.574-16.1-24.517-28.775-26.516-9.992-1.579-20.077 5.787-24.796 15.994 3.609-9.996 10.825-19.467 20.355-20.414 5.089-.526 10.085 1.474 14.526 4.209 8.882 5.367 16.469 13.785 20.354 24.307-1.202-9.575-9.992-18.835-16.746-23.78-7.216-5.156-15.636-7.998-24.148-8.524 8.975-1.262 18.227.842 26.091 5.788 7.864 4.945 14.34 12.732 18.227 21.992-3.608-11.47-9.16-22.518-18.874-28.516-10.085-6.208-22.576-6.629-33.4-2.315C15.86 155.765 6.608 164.604.132 175.337c1.665-5.998 5.55-10.838 9.9-14.837 9.066-8.418 20.354-13.995 32.104-14.626 11.75-.631 23.778 4.209 31.92 13.784-5.736-10.417-16.469-16.415-27.294-17.467-10.732-1.052-21.557 2.42-31.364 7.471 7.401-6.103 16.19-10.102 25.258-11.259 9.9-1.263 20.447.947 28.034 8.208 5.181 5.05 8.604 12.206 10.732 19.676 2.036 7.471 2.869 15.258 3.701 23.045.555-13.469-2.868-26.938-8.882-38.618-5.921-11.68-14.34-21.571-23.685-29.778 10.362 2.315 18.782 11.574 23.593 22.307 4.81 10.733 6.754 22.729 8.512 34.619-2.036-22.202-9.067-43.773-20.263-62.187 5.644 6.103 10.918 12.942 14.526 20.729 7.31 15.678 7.68 34.198 7.957 51.981.185-11.47 1.573-22.939 5.551-33.462 3.979-10.417 10.825-19.782 19.893-24.833-8.79 11.259-16.932 23.886-19.615 38.618 3.238-11.996 10.732-22.518 20.355-28.727 9.622-6.208 21.372-8.102 32.105-5.156-11.195.316-22.483 2.841-32.383 8.839-9.9 5.998-18.32 15.679-22.112 27.674 8.974-14.415 24.333-23.254 39.876-23.149-8.974 3.051-18.134 6.208-26.183 11.785-8.05 5.577-14.989 13.89-17.58 24.202 6.2-13.259 18.875-22.308 32.013-22.834-9.9 3.472-18.782 10.312-25.35 19.361 3.7-4.314 7.864-8.313 12.86-10.522 4.996-2.21 10.825-2.315 15.358.736 8.235 5.577 10.085 19.467 18.69 24.412-5.089-3.788-9.16-8.944-13.879-13.258-4.626-4.419-10.177-8.102-16.191-8.313-6.291-.21-12.398 3.788-16.006 9.681-1.388 2.21-2.128 4.84-2.59 7.471-.278 1.368-.37 2.736-.648 4.104-.093.736-.093 2.63-.648 3.156-.278.316-.74.421-1.203.527-1.203.21-2.405.315-3.608.315-2.128 0-4.256-.105-6.384-.421-.833-.105-1.666-.21-2.406-.421-.37-.105-.832-.105-1.11-.42-.648-.421-1.018-1.895-1.665-2.526-.74-.842-1.573-1.683-2.498-2.315a15.723 15.723 0 0 0-5.737-2.841c-4.163-1.263-8.512-1.052-12.583.105Z" fill="#4F7F36"/><path d="M56.57 176.6c-6.476-2.315-13.508-1.473-17.856 5.366-1.758 2.841-2.776 6.208-3.423 9.576-1.48 7.576-1.296 15.573.462 23.044-3.238-5.682-4.718-12.627-4.07-19.362.462-4.524 1.942-9.47 4.348-13.047 1.943-2.841 6.384-7.577 9.53-8.313-4.164.947-8.142 3.472-11.01 7.05-3.146 3.998-4.349 8.628-5.274 13.784-.833 4.841-2.498 12.627-.37 17.362-4.071-8.944-3.053-20.624 2.59-28.41-3.793 4.103-6.384 9.68-7.216 15.468-1.388-5.577.832-11.575 4.163-15.994 6.662-8.734 20.262-13.259 29.7-8.524 4.533 2.315 8.511 5.893 11.657 10.207a39.278 39.278 0 0 1 3.979 7.05c.647 1.473 1.942 6.103 3.515 6.524-2.868-.947-3.886-4.419-5.273-7.05-1.573-2.946-3.331-5.787-5.46-8.207-2.682-2.736-6.29-5.156-9.991-6.524Z" fill="#4F7F36"/><path d="M92.654 173.127c-1.573 4.314-3.053 8.734-4.349 13.259-.277 1.052-2.868 12.416-2.96 12.416h-3.979c.37-5.682-1.11-11.89-2.498-17.362-2.313-8.944-5.829-17.572-10.825-25.043-7.772-11.786-18.69-20.835-30.902-25.78 7.587-1.158 15.081 3.051 20.817 8.733 13.046 12.627 20.818 30.094 24.056 49.035-.833-10.523-2.22-21.992-4.811-32.199-3.701-14.942-11.658-27.989-20.17-40.09 6.477 3.367 11.565 9.47 15.081 16.52 3.608 6.945 5.736 14.837 7.31 22.623 2.312 10.838 3.7 21.992 4.255 33.146-.555-14.311-1.11-28.516-1.573-42.826-.37-8.945-.647-17.889-.277-26.833 1.758 16.521 2.59 33.146 2.683 49.771 0 2.841 0 5.788.74 8.524-.74-15.889 3.053-31.989 10.548-45.352-4.071 18.098-8.142 36.197-9.808 54.822 1.203-24.623 14.619-47.983 34.048-59.031-15.913 16.52-28.496 34.303-33.678 58.505 2.314-10.944 5.737-22.308 12.86-30.515 6.847-7.997 16.747-13.574 26.277-15.784-2.498.526-5.366 3.051-7.679 4.419a89.016 89.016 0 0 0-8.142 5.577c-3.701 2.736-7.494 5.261-10.548 9.05-3.053 3.788-4.81 9.47-6.569 14.205.185.105.185.105.093.21Z" fill="#78AD5C"/><path d="M64.065 195.961c-2.22 3.788-3.886 8.418-6.754 11.049-3.331 3.157-8.142 4.104-12.306 2.42 2.961 1.052 5.644 2.946 8.79 2.21 6.384-1.473 8.697-6.945 11.935-12.732 1.573-2.841 3.609-5.367 5.922-7.366 1.573-1.368 3.238-2.525 5.18-2.736 1.944-.21 4.072.842 4.812 2.841-2.59-.947-5.366.526-7.402 2.42-8.697 8.103-8.142 23.781-11.102 35.04 2.035-7.787 4.163-15.678 7.679-22.834 2.498-5.261 8.327-16.415 14.896-10.943-1.11-3.998-3.701-8.734-7.772-8.944-4.256-.316-8.79 3.157-11.75 6.419-.648.841-1.388 1.999-2.128 3.156Z" fill="#78AD5C"/><path d="M78.683 197.119c2.96-3.788 5.83-7.471 10.085-8.839 4.719-1.473 9.9-1.263 14.433.736 4.256 1.894 8.512 5.156 11.936 8.734 6.569 6.734 11.195 15.573 14.618 24.833 1.85 4.946 3.793 10.733 8.234 12.732-1.943.316-3.793-1.157-5.273-2.736-6.292-6.524-10.27-15.257-15.081-23.149-4.811-7.892-11.195-15.468-19.522-17.362 2.313 1.052 4.163 3.051 5.736 5.366 6.477 9.365 7.772 23.045 3.146 33.672-1.203 2.736-2.776 5.367-3.609 8.208-.832 2.946-.832 6.418.833 8.733-2.683-3.262-3.146-7.997-2.59-12.416.555-4.314 2.035-8.523 2.775-12.732a49.078 49.078 0 0 0 .555-13.785c-.555-5.05-2.22-10.312-5.736-13.363-2.868-2.526-6.754-3.262-10.362-2.736-3.516.526-6.94 2.21-10.178 4.104Z" fill="#4F7F36"/><path d="M94.134 207.642c1.758 7.05 4.811 15.573 11.01 19.15 3.516 2 7.772 1.684 11.751 1.053-3.609.526-6.199 2.209-10.085 1.157-3.423-.947-6.754-3.262-9.067-6.208-4.441-5.787-7.217-13.995-9.438-21.15-.462-1.473-1.202-5.261-3.145-5.051-.555.105-1.11.526-1.48 1.052-.093.211-.556 1.368-.648 1.368-1.48-.105-2.96-.105-4.534-.21-.092 0-.185 0-.277-.106-.185-.21-.185-1.683-.185-1.999 0-.736.185-1.473.37-2.104.462-1.263 1.203-2.315 2.128-3.052 2.035-1.578 4.626-1.473 6.661-.105 3.424 2.21 4.534 7.05 5.552 11.364.647 1.579 1.017 3.157 1.387 4.841Z" fill="#2D5E2D"/><path d="M87.195 212.271c2.128 6.419 4.811 12.838 4.719 19.677-.093 5.472-2.036 10.733-4.256 15.574 4.348-2.736 6.661-8.524 6.939-14.1.277-5.577-1.11-11.154-2.776-16.415-2.405-7.892-6.846-18.415-1.758-26.201.093-.211.278-.421.278-.632 0-.105-.093-.21-.093-.315-.647-1.368-2.405-1.473-3.516-.737-1.11.842-1.757 2.315-2.035 3.788-1.573 6.208.555 13.574 2.498 19.361Z" fill="#437039"/><path d="M95.522 178.599c3.793-2.315 8.049-3.262 12.028-.842 3.793 2.315 6.106 6.945 9.53 9.891 3.238 2.841 7.494 4.315 11.565 3.894a15 15 0 0 1-12.491-1.789c-3.793-2.42-6.754-6.208-10.455-8.734-3.515-2.42-7.494-.736-10.825 1.579-4.07 2.735-6.846 7.365-11.38 9.259-.555.211-1.388.211-1.48-.42 3.516-1.789 5.736-5.683 8.512-8.734 1.573-1.473 3.238-2.946 4.996-4.104Z" fill="#437039"/><path d="M51.945 188.806c-.74.631-1.388 1.263-2.128 1.894-5.09 5.051-5.552 10.943-6.94 17.888 1.85-8.839 7.68-16.415 15.081-19.677 3.979-1.789 8.42-2.209 12.583-1.473 5.46.947 8.605 4.84 12.583 8.734.093.105.185.21.278.21.463.211 1.018-.21 1.388-.631 2.683-2.736 6.384-3.473 9.53-5.051 1.942-.947 8.789-4.735 10.732-3.683-5.366-2.946-12.398-1.157-16.191 4.104 1.11-3.578 3.238-6.629 5.366-9.575a648.706 648.706 0 0 1 9.622-13.154c-7.957 4.946-14.248 13.259-17.394 22.939 4.441-14.31 8.605-28.726 12.675-43.247-7.401 12.522-11.935 27.253-13.045 42.406 1.665-8.418 3.238-16.942 2.868-25.57-.277-5.682-1.48-11.364-1.85-17.046-.555-7.156.092-14.416 1.758-21.256-3.886 8.103-3.794 17.783-3.146 26.938.462 6.629 1.11 13.363.555 20.098-.278 3.051-1.11 5.997-1.295 9.049-.185 3.262 0 6.734.277 9.996-.277-5.787-1.665-11.469-4.163-16.52-2.036-4.104-6.292-7.26-9.9-9.47-8.882-5.577-19.614-6.524-29.422-3.683 9.16-1.368 18.782-.737 26.924 3.893 8.234 4.735 14.71 14.206 14.71 24.623-2.59-5.998-5.365-12.417-10.361-15.889-3.979-2.736-8.883-3.367-13.416-1.999-4.441 1.262-8.42 4.419-11.473 8.418 5.83-4.42 13.323-6.419 20.077-4.42 6.754 1.999 12.768 8.102 14.526 15.784-3.516-5.998-9.53-9.891-15.82-10.417-5.737-.211-10.64 2.104-14.99 5.787Z" fill="#79A836"/><path d="M73.41 182.282c-3.701 1.052-6.847 3.893-9.53 7.05-2.683 3.156-5.181 6.524-8.142 9.259-1.758 1.579-3.794 2.841-5.366 4.63 6.661-2.841 11.842-8.944 17.856-13.048 2.96-1.999 6.292-3.682 9.808-3.472 3.423.105 6.846 2.315 8.049 6.103-1.203-7.366-5.736-12.416-12.676-10.522Zm23.13-2.42c4.996-3.893 11.38-2.21 16.469.737 3.978 2.209 7.679 5.156 12.027 6.313 4.441 1.263 9.345.526 13.416-1.999-2.498 1.157-5.089 2.315-7.864 2.315-5.089 0-9.345-4.104-13.323-7.787-5.459-5.051-11.381-8.839-17.95-4.419-5.458 3.683-10.177 10.627-11.01 17.993.926-8.313 2.22-17.362 8.142-23.044 3.979-3.893 9.252-5.998 14.434-5.998 2.683 0 5.366.631 7.956.421 2.961-.21 5.737-1.368 8.512-2.631 2.221-.947 4.441-1.894 5.922-3.998-3.146 2.736-7.309 3.578-11.288 3.683-3.978.105-7.957-.526-11.935-.211-4.626.316-9.16 1.894-13.138 4.42-3.701 2.315-7.032 5.682-8.79 9.996-2.498 6.313-1.295 15.152-.832 21.992-.185-2.315 1.943-6.84 2.683-9.26 1.203-3.367 3.978-6.419 6.569-8.523Z" fill="#78AD5C"/><path d="M47.966 152.293c-6.014.316-11.658 3.262-17.302 5.472-5.643 2.314-12.027 3.893-17.671 1.578 2.313.631 4.811.105 7.124-.526 9.16-2.736 17.672-8.734 27.201-9.365 4.812-.316 9.623.842 14.156 2.736 10.085 4.209 17.117 12.837 19.707 24.727 1.388 6.103 1.666 12.417 1.943 18.625-.277-6.103-1.943-12.522-3.516-18.309-1.48-5.261-2.868-7.471-6.291-11.049-7.124-7.47-15.081-14.415-25.351-13.889Z" fill="#79A836"/><path d="M67.303 175.127c-4.996-1.789-10.455-.316-15.728-.947-5.46-.631-10.825-3.578-14.619-8.102 5.829 3.367 12.213 5.366 18.69 5.892 3.7.316 7.494.105 11.102 1.158 7.68 2.209 15.914 12.1 14.618 21.676-1.572-2.42-2.035-6.208-3.33-8.944-2.128-4.841-6.107-9.049-10.733-10.733Z" fill="#437039"/><path d="M133.271 150.504c-8.142-3.051-16.931-1.473-24.611 2.631-4.626 2.525-8.974 5.892-12.953 9.575-1.943 1.789-3.516 3.683-4.996 5.893-1.295 1.894-3.608 4.63-4.163 7.05 2.128-8.734 1.573-18.414 2.313-27.358.647-8.103 1.943-16.415 4.718-24.097 1.48-3.998 3.424-9.891 6.014-13.258-5.366 6.734-9.252 14.942-11.38 23.675-2.22 9.155-1.573 18.52-1.665 27.99-.093 5.156-.185 11.259-2.406 15.889 1.11-13.469-1.018-28.2-3.978-41.248-1.203-5.366-2.683-10.628-5.089-15.468-2.406-4.84-5.736-9.154-9.992-11.785 3.516 4.525 6.846 9.365 9.16 14.837 3.238 7.786 4.995 16.941 6.383 25.359 1.48 9.154 2.406 18.519 2.59 27.779-1.017-5.998-2.682-11.996-5.18-17.362-6.662-14.1-20.078-22.518-27.942-35.882 2.036 3.578 4.071 7.261 6.477 10.523 4.903 6.418 11.287 11.259 15.913 18.098 3.054 4.525 5.274 9.786 7.125 15.153 2.035 5.892 2.868 11.68 3.33 17.993 1.388-5.366 4.349-9.996 7.587-14.311 2.128-2.841 4.626-5.155 7.032-7.681 2.498-2.63 5.181-4.945 8.142-6.945 6.013-3.893 12.86-5.997 19.707-5.787 5.088.21 10.177 1.684 14.711 4.314 4.441 2.526 6.661 7.471 7.679 12.838.74 4.103.74 8.312.462 12.416.555-1.368.648-2.841.741-4.419.092-3.368.185-6.84-.278-10.207-1.758-8.734-8.327-13.469-15.451-16.205Z" fill="#2D5E2D"/><path d="M81.552 187.227c-1.296-1.789-3.331-.841-4.72.316-1.85 1.684-3.33 3.998-4.163 6.524-.832 2.525-1.017 5.261-1.11 7.892-.092 3.998-.092 7.997.093 11.89-1.48-6.208-1.666-13.574-.37-19.887.647-3.368 2.035-6.629 4.256-8.944 1.387-1.368 3.145-2.421 4.903-2.105 2.59.526 4.071 3.473 4.996 5.998.278-3.578 1.758-7.05 4.071-9.47 2.036-2.105 5.274-2.315 7.402-.211 1.573 1.579 2.128 3.999 2.776 6.208 1.202 4.104 2.868 8.208 5.551 11.47-1.573-.737-3.238-1.578-4.441-3.052-2.313-3.051-1.758-8.102-4.164-11.153-1.387-1.684-3.7-2.421-5.643-1.789-2.961 1.052-3.886 4.419-4.719 7.471-.463 1.683-.37 3.472-.833 5.261-.092.316-1.48 5.261-1.295 5.261-.648-.105-1.203-.21-1.85-.21.832-3.052.555-6.314-.093-9.47-.185-.737-.278-1.368-.647-2 .092.211 0 .106 0 0Z" fill="#79A836"/><path d="M93.302 189.858c1.295 3.157 1.943 6.629 3.145 9.891 1.203 3.262 3.239 6.313 6.199 7.366-3.145-.526-5.644-3.262-7.309-6.314-1.665-3.051-2.683-6.524-3.886-9.786-.647-1.683-1.573-3.683-3.238-3.893-.278 0-.555 0-.833.105-.185.105-.277.421-.462.632-.925 1.999-1.48 4.314-1.573 6.629-.833-2.947-1.11-12.206 3.7-10.628 2.036.737 3.424 3.999 4.257 5.998Z" fill="#78AD5C"/><g opacity=".74" fill="#212121"><path opacity=".74" d="M82.199 128.512c.555 3.894.74 7.787.925 11.68.185 3.894.278 7.787 0 11.68-.555-3.893-.74-7.786-.925-11.68-.093-3.788-.185-7.681 0-11.68Zm3.701 16.205c-.37-.842-.37-1.683-.37-2.525.092-.842.185-1.684.555-2.525.37.841.37 1.683.37 2.525-.093.947-.185 1.789-.555 2.525Zm-14.34-15.258c2.497 3.157 4.44 6.945 5.828 10.944 1.388 3.998 2.22 8.312 2.22 12.521a89.615 89.615 0 0 0-3.053-12.206 92.056 92.056 0 0 0-4.996-11.259Zm3.515 30.62c.555.316.925.842 1.203 1.368.277.526.462 1.158.462 1.894-.555-.316-.925-.842-1.202-1.368a4.012 4.012 0 0 1-.463-1.894Zm8.419 31.357c.463.736.648 1.578.648 2.42 0 .842-.277 1.684-.74 2.42-.185-.842-.185-1.683-.185-2.42.092-.842.092-1.578.277-2.42Zm.001-11.259c3.515-5.366 7.216-10.522 11.472-15.152 4.256-4.63 9.067-8.629 14.526-11.47 5.366-2.735 11.38-4.314 17.302-3.788 1.48.106 2.96.421 4.348.737 1.48.421 2.868.842 4.256 1.473a22.13 22.13 0 0 1 3.978 2.315c1.203.947 2.406 1.894 3.516 3.051a25.208 25.208 0 0 0-3.608-2.841c-1.295-.841-2.591-1.473-3.978-2.104-1.388-.526-2.776-1.052-4.164-1.368a29.02 29.02 0 0 0-4.348-.631c-5.829-.421-11.566 1.157-16.839 3.893-5.274 2.736-10.085 6.629-14.341 11.154-4.441 4.63-8.327 9.68-12.12 14.731Zm2.59-6.418c.555-4.525.74-9.05.925-13.68.093-4.524.185-9.154.463-13.784.37-4.525.925-9.154 2.035-13.574a46.308 46.308 0 0 1 2.128-6.419c.926-2.104 1.943-4.103 3.146-5.892-2.128 3.893-3.608 8.102-4.626 12.522-1.018 4.419-1.48 8.944-1.758 13.468-.37 4.525-.462 9.155-.74 13.679-.278 4.63-.648 9.155-1.573 13.68Zm4.626-12.733c.37-2.315 1.018-4.525 1.758-6.629.74-2.21 1.758-4.209 2.776-6.208 1.11-2 2.313-3.894 3.7-5.577.648-.842 1.388-1.684 2.128-2.526.741-.736 1.481-1.578 2.313-2.209-.37.421-.647.842-1.017 1.262l-1.018 1.368c-.648.842-1.295 1.789-1.943 2.631-1.203 1.789-2.406 3.683-3.423 5.682-1.11 1.894-2.036 3.999-2.96 5.998-.834 1.894-1.574 3.998-2.314 6.208Zm9.159-10.627c1.389-3.683 3.424-6.945 5.737-9.891 2.406-2.946 5.181-5.472 8.235-7.261a96.7 96.7 0 0 0-7.587 7.997 76.407 76.407 0 0 0-6.384 9.155Zm7.402-6.103a32.535 32.535 0 0 1 6.57-4.735c2.313-1.368 4.811-2.42 7.309-3.262 2.498-.842 5.088-1.368 7.679-1.684l1.943-.105 1.943-.105 1.943.105c.647.105 1.295.105 1.943.211-.648 0-1.296.105-1.943.105l-1.943.105-1.943.211-1.943.315c-2.498.421-5.089 1.053-7.494 1.894-2.498.842-4.904 1.789-7.217 2.947-2.313 1.157-4.626 2.525-6.847 3.998Zm-46.26-24.306c1.573 1.157 3.053 2.63 4.348 4.103a47.15 47.15 0 0 1 3.609 5.051c2.128 3.578 3.793 7.471 5.273 11.469 1.388 3.999 2.683 7.998 3.794 12.101a151.117 151.117 0 0 1 1.48 6.209c.463 2.104.925 4.208 1.203 6.313a476.338 476.338 0 0 0-1.666-6.103c-.555-1.999-1.11-4.104-1.757-6.103-1.203-3.999-2.499-8.102-3.979-11.996a75.973 75.973 0 0 0-4.996-11.364c-1.943-3.577-4.349-6.945-7.31-9.68Z"/><path opacity=".74" d="M69.894 116.306c1.573 1.579 2.96 3.473 4.07 5.577 1.111 2.105 1.944 4.314 2.684 6.629.74 2.21 1.388 4.63 1.943 6.945.555 2.315 1.11 4.63 1.573 7.05.925 4.735 1.665 9.47 2.128 14.311l.555 7.26c.092 2.42.185 4.84.092 7.26-.37-4.84-.74-9.575-1.387-14.31-.648-4.735-1.388-9.47-2.314-14.1-.925-4.63-2.035-9.365-3.33-13.89-.648-2.315-1.48-4.524-2.406-6.629-.925-2.42-2.128-4.419-3.608-6.103Zm-13.046 9.049c2.776 1.368 5.274 3.368 7.495 5.788 2.127 2.42 3.978 5.261 5.273 8.313-1.85-2.736-3.793-5.262-5.921-7.577-2.128-2.42-4.441-4.524-6.847-6.524ZM45.19 132.51a34.468 34.468 0 0 1 7.217 3.789c2.313 1.473 4.441 3.367 6.477 5.366 2.035 1.999 3.886 4.209 5.459 6.629l1.202 1.789 1.11 1.894 1.018 1.999c.278.632.648 1.368.925 2l-1.11-1.895-1.203-1.788-1.202-1.789-1.296-1.684c-1.758-2.209-3.608-4.419-5.55-6.313-1.944-1.999-4.072-3.788-6.292-5.472-2.036-1.789-4.349-3.262-6.754-4.525Zm-19.244 25.465c2.96-.315 5.736-1.683 8.42-3.051 2.683-1.368 5.458-2.736 8.419-3.367 2.96-.632 5.921-.737 8.975-.842 1.48 0 3.053 0 4.533.316 1.48.315 2.96.947 4.349 1.578 2.683 1.473 5.273 3.157 7.771 5.156 2.498 1.999 4.812 4.209 6.754 6.734 1.943 2.631 3.516 5.577 4.534 8.839 1.018 3.262 1.573 6.524 2.035 9.891-.647-3.262-1.387-6.629-2.498-9.68-1.11-3.157-2.59-5.998-4.626-8.524-3.978-4.945-9.067-8.628-14.34-11.469a14.962 14.962 0 0 0-4.072-1.578c-1.387-.316-2.868-.421-4.348-.421-2.96.105-5.921.21-8.79.736-2.868.526-5.643 1.789-8.419 3.052-2.868 1.368-5.644 2.525-8.697 2.63Zm47.834 31.988a9.435 9.435 0 0 1 1.388-3.157c.647-.947 1.48-1.894 2.405-2.42 1.018-.526 2.22-.737 3.238-.316 1.018.421 1.943 1.368 2.22 2.526-.554-.947-1.48-1.473-2.405-1.684-.925-.21-1.85 0-2.683.526-.833.421-1.573 1.158-2.313 2-.648.736-1.203 1.683-1.85 2.525Zm12.305-2.946c.37-.947 1.018-1.789 1.943-2.105.463-.21 1.018-.105 1.48.105.463.211.833.632 1.11 1.053.648.841 1.018 1.683 1.481 2.525.463.842.833 1.789 1.203 2.631 1.48 3.682 1.85 7.681 3.608 11.153-1.203-1.473-1.943-3.367-2.59-5.261-.648-1.894-1.11-3.788-1.85-5.577-.371-.842-.741-1.789-1.204-2.63a57.77 57.77 0 0 0-1.203-2.526c-.462-.736-1.11-1.262-1.942-1.157-.833.315-1.573 1.052-2.036 1.789Zm4.071-6.945c.647-.631 1.48-1.052 2.313-1.368.833-.21 1.758-.316 2.683.105.925.316 1.665.947 2.22 1.894.463.842.833 1.684 1.296 2.631.37.842.74 1.789 1.018 2.736.277.947.462 1.894.647 2.841.463 1.894.925 3.683 2.036 5.156a9.342 9.342 0 0 1-1.666-2.21c-.462-.842-.74-1.789-1.017-2.736-.556-1.894-1.018-3.682-1.85-5.366-.371-.842-.741-1.789-1.204-2.525-.37-.737-1.017-1.263-1.758-1.684-1.48-.631-3.238-.316-4.718.526Z"/><path opacity=".74" d="M94.69 188.911a2.021 2.021 0 0 1 1.11-1.262c.462-.211 1.017-.421 1.573-.106-.37.526-.74.842-1.203 1.053-.463.105-.833.315-1.48.315Zm3.238-11.68c1.017-.737 2.128-1.263 3.238-1.684 1.11-.42 2.313-.736 3.516-.841 1.203-.106 2.498 0 3.608.421 1.203.42 2.313 1.052 3.331 1.788 2.035 1.474 3.886 3.052 5.829 4.63.925.842 1.943 1.579 2.868 2.315l2.868 2.315c-1.11-.631-2.128-1.263-3.146-1.894-1.017-.736-2.035-1.368-3.053-2.104-2.035-1.368-3.978-3.052-5.921-4.42-1.943-1.473-4.164-2.315-6.477-2.21-2.128 0-4.441.737-6.661 1.684Zm9.067-5.892a16.184 16.184 0 0 1 3.238-.631c1.11 0 2.221 0 3.331.21 2.22.421 4.348 1.473 6.199 2.946 1.85 1.473 3.331 3.367 4.811 5.156l2.22 2.736c.741.947 1.481 1.894 2.128 2.841-.832-.842-1.665-1.683-2.405-2.525l-2.406-2.526c-1.573-1.683-3.053-3.577-4.811-4.945-1.758-1.368-3.701-2.42-5.829-2.946-1.017-.316-2.128-.421-3.145-.527-1.203.106-2.221.106-3.331.211Z"/><path opacity=".74" d="M105.144 179.546c1.666-.21 3.331.631 4.627 1.684 1.387 1.157 2.405 2.525 3.608 3.788a27.151 27.151 0 0 0 7.957 5.998c-3.239-.737-6.199-2.631-8.605-5.262-1.203-1.368-2.22-2.735-3.423-3.893-1.11-1.052-2.498-2.104-4.164-2.315Zm-2.313 11.575c3.516 1.473 7.032 3.157 10.085 5.892 3.053 2.736 5.274 6.314 7.309 9.892 1.943 3.682 3.886 7.26 5.737 11.048l2.775 5.577c.926 1.894 1.851 3.683 2.683 5.577-1.017-1.789-2.035-3.578-3.145-5.367l-3.054-5.366-5.921-10.838c-1.943-3.578-4.163-7.05-6.939-9.786-1.388-1.368-2.961-2.525-4.626-3.578-1.48-1.157-3.238-2.104-4.904-3.051Zm.741 8.417c1.295 1.894 2.22 4.104 2.96 6.419.74 2.315 1.111 4.735 1.296 7.155.185 2.42 0 4.946-.371 7.261l-.37 1.789-.462 1.788-.555 1.684c-.185.526-.463 1.052-.741 1.684.186-.632.278-1.158.463-1.684l.37-1.789.37-1.789.278-1.788c.277-2.315.37-4.736.185-7.05-.093-2.315-.555-4.736-1.018-7.051-.74-2.209-1.48-4.524-2.405-6.629Zm.647 31.358c.093 1.473-.092 2.736-.37 4.104-.277 1.367-.648 2.63-1.295 3.893-.093-1.473.092-2.736.37-4.104.277-1.368.648-2.736 1.295-3.893Zm-3.978-6.42c-.37-.42-.74-.841-1.11-1.367l-1.018-1.474-.925-1.473-.926-1.578c-1.202-2.105-2.128-4.314-2.96-6.629-.833-2.315-1.573-4.63-2.128-7.05-.278-1.158-.556-2.42-.833-3.578-.278-1.157-.463-2.42-.74-3.577l1.11 3.472 1.11 3.472c.74 2.315 1.48 4.63 2.313 6.84.833 2.21 1.666 4.419 2.683 6.629 1.018 2.21 2.129 4.314 3.424 6.313ZM86.27 197.224c-.185 1.999-.092 3.998.185 5.997.278 2 .74 3.894 1.296 5.788 1.11 3.788 2.498 7.471 3.793 11.259 1.203 3.788 2.22 7.786 2.22 11.89a25.86 25.86 0 0 1-.74 5.998c-.555 1.894-1.388 3.788-2.59 5.261.555-.842.925-1.683 1.295-2.63.37-.947.648-1.895.833-2.842.462-1.894.555-3.893.462-5.892-.092-3.999-1.11-7.787-2.405-11.575-1.203-3.788-2.59-7.471-3.609-11.364-.462-1.999-.832-3.893-1.017-5.998-.093-1.894-.093-3.893.277-5.892Zm-8.327-3.894c-1.018 1.052-2.035 1.999-2.96 3.052l-2.869 3.262c.37-1.579 1.203-2.842 2.22-3.999 1.019-1.052 2.221-1.894 3.61-2.315Zm-8.142 11.785a46.126 46.126 0 0 1-1.388 5.156c-.555 1.684-1.11 3.367-1.943 4.946.093-1.894.556-3.578 1.11-5.367.556-1.683 1.204-3.262 2.221-4.735Zm-18.041 5.998c1.85-1.158 3.608-2.42 5.273-3.894a30.603 30.603 0 0 0 4.349-5.05c1.295-1.789 2.313-3.894 3.608-5.893.648-.947 1.295-1.894 2.035-2.841.833-.842 1.666-1.578 2.684-1.999a10.67 10.67 0 0 0-2.313 2.42c-.648.842-1.296 1.894-1.85 2.841-1.111 1.999-2.129 4.209-3.424 6.103-1.388 1.894-2.868 3.683-4.626 5.051-1.85 1.368-3.794 2.42-5.736 3.262Zm5.828-13.048c1.296-1.578 2.591-3.262 3.886-4.735 1.296-1.578 2.683-3.051 4.164-4.525 2.96-2.841 6.476-4.945 10.177-5.892-3.516 1.789-6.754 3.998-9.622 6.734-1.48 1.368-2.868 2.841-4.256 4.314-1.388 1.368-2.868 2.736-4.349 4.104Zm-9.714-2.841c1.85-3.367 4.718-5.997 7.956-7.786 3.239-1.684 6.847-2.526 10.363-2-3.516.316-6.847 1.263-9.9 2.947-3.238 1.683-6.014 3.998-8.42 6.839Zm9.714-19.256c.648-.736 1.48-1.052 2.313-1.157.833-.105 1.758.105 2.406.631-.833.211-1.573.316-2.406.421-.647.105-1.387.211-2.313.105Z"/><path opacity=".74" d="M47.319 171.444c1.202.421 2.498.737 3.793.842 1.295.21 2.59.21 3.793.21 2.59 0 5.181-.105 7.772 0 2.59.211 5.274.632 7.68 2 1.202.631 2.312 1.578 3.238 2.525a10.898 10.898 0 0 1 2.128 3.683 14.008 14.008 0 0 0-2.406-3.367 10.256 10.256 0 0 0-3.238-2.21c-2.313-1.158-4.811-1.578-7.402-1.684-2.59-.21-5.088 0-7.68-.21-1.294-.105-2.59-.211-3.885-.526-1.388-.211-2.59-.632-3.793-1.263Zm19.614-6.524c1.943.526 3.886 1.263 5.644 2.42 1.758 1.158 3.423 2.736 4.348 4.841a21.99 21.99 0 0 0-4.81-3.894c-1.666-1.157-3.424-2.104-5.182-3.367Zm-41.357-21.255c1.943-1.053 4.071-1.789 6.107-2.421a34.253 34.253 0 0 1 6.383-1.262c2.128-.211 4.349-.316 6.477-.211 1.11.105 2.128.211 3.238.316 1.11.21 2.128.316 3.238.631-.555 0-1.11 0-1.572-.105h-4.812c-2.127.105-4.255.211-6.383.421-2.129.21-4.257.631-6.385 1.052a77.027 77.027 0 0 0-6.29 1.579Zm37.101 7.892c-4.718-2-9.715-3.367-14.71-3.788-4.997-.421-10.086-.211-14.99 1.052-4.903 1.157-9.714 3.157-14.155 5.892-2.22 1.368-4.348 2.947-6.384 4.63a50.965 50.965 0 0 0-5.736 5.577c1.665-2.209 3.515-4.104 5.459-5.998a50.996 50.996 0 0 1 6.29-4.945c4.442-2.946 9.253-4.946 14.25-6.208 4.995-1.158 10.176-1.473 15.265-.842 5.181.736 10.085 2.21 14.711 4.63ZM29.554 165.34c2.498-2.841 5.922-4.629 9.345-5.471 3.516-.737 7.217-.526 10.547.947-3.423-.737-6.939-.737-10.362.105-3.33.737-6.569 2.21-9.53 4.419Zm21.836-7.786c1.572 0 3.053.527 4.533 1.158 1.388.631 2.776 1.473 3.978 2.736-1.48-.526-2.868-1.158-4.348-1.789-1.295-.631-2.683-1.263-4.163-2.105Zm4.163 7.261c1.48.21 2.96.947 4.256 1.683 1.295.842 2.59 1.789 3.608 3.052-1.48-.632-2.775-1.368-4.07-2.105-1.296-.841-2.591-1.683-3.794-2.63ZM24.65 192.173c.834-3.578 2.591-6.735 4.812-9.471 2.22-2.63 4.996-4.84 8.05-5.997-2.684 1.894-5.182 4.103-7.402 6.734a52.807 52.807 0 0 0-5.46 8.734Zm2.777 5.262c-.186-1.368.092-2.631.37-3.894.37-1.262.925-2.42 1.665-3.367a20.98 20.98 0 0 1-.833 3.683c-.277 1.263-.647 2.42-1.202 3.578Zm6.013 9.469c-.555-2.21-.832-4.525-.925-6.84-.092-2.315.185-4.63.648-6.839.462-2.21 1.11-4.42 2.035-6.524l.74-1.473.833-1.474.925-1.368c.278-.42.648-.841 1.018-1.262-.278.526-.463.947-.74 1.473l-.74 1.473-.648 1.473-.648 1.579c-.74 2.104-1.388 4.209-1.85 6.418-.463 2.21-.74 4.42-.833 6.629-.092 2.21 0 4.42.185 6.735Zm-15.728 14.205c1.388-3.577 3.33-6.944 5.551-9.996a42.724 42.724 0 0 1 7.68-8.102c-2.406 2.841-4.72 5.682-6.94 8.733a156.753 156.753 0 0 0-6.291 9.365Zm19.337-23.675a5.994 5.994 0 0 1 1.387-2c.556-.526 1.203-.947 2.036-1.157a5.989 5.989 0 0 1-1.388 1.999c-.555.526-1.203.947-2.035 1.158Zm.647-5.998c2.128-1.578 4.534-2.736 6.94-3.683 2.405-.842 4.903-1.473 7.494-1.683-2.406.947-4.811 1.788-7.217 2.63-2.405.947-4.718 1.894-7.217 2.736Zm50.61-11.785c1.295-3.893 3.053-7.681 5.736-10.627a17.844 17.844 0 0 1 4.534-3.683c1.665-.947 3.515-1.473 5.273-1.999 1.851-.421 3.701-.737 5.552-.842 1.85 0 3.7.105 5.551.315 3.608.316 7.309.737 10.825-.841-1.666.947-3.516 1.368-5.366 1.578-1.851.21-3.701.105-5.552 0-1.85-.105-3.608-.21-5.458-.105-1.758.105-3.609.421-5.367.842a23.76 23.76 0 0 0-5.18 1.894c-1.666.841-3.147 1.999-4.442 3.367a24.548 24.548 0 0 0-3.516 4.735c-.925 1.578-1.758 3.472-2.59 5.366Z"/><path opacity=".74" d="M94.412 175.022c1.203-2.315 2.96-4.314 4.903-5.893 1.943-1.578 4.164-2.736 6.569-3.262-2.127 1.263-4.07 2.631-6.013 4.104-1.85 1.578-3.609 3.262-5.46 5.051Zm1.85 1.473c.185-.737.555-1.368 1.018-1.789a3.538 3.538 0 0 1 1.758-.842c-.278.737-.74 1.158-1.203 1.579-.462.421-.925.841-1.573 1.052Zm-10.547 6.734c-.37-.316-.37-.632-.37-.842.092-.316.185-.526.555-.737.37.316.37.632.37.842-.093.316-.185.526-.555.737Zm6.755-18.204c0-2.315.74-4.525 1.572-6.524.925-1.999 2.035-3.893 3.33-5.577-.74 2.105-1.665 4.104-2.497 5.998-.926 1.999-1.666 3.998-2.406 6.103Zm4.81-5.051c1.203-1.999 2.498-3.788 3.979-5.366 1.48-1.684 3.053-3.262 4.718-4.63 1.666-1.368 3.423-2.631 5.366-3.683.926-.526 1.851-1.052 2.869-1.473 1.017-.421 1.943-.842 2.96-1.157-.462.315-.925.526-1.388.841l-1.387.842c-.926.526-1.851 1.158-2.683 1.684-1.758 1.157-3.516 2.42-5.089 3.893-1.666 1.368-3.238 2.841-4.811 4.314-1.573 1.368-3.053 3.052-4.534 4.735Zm-8.327-1.894c-.277-3.051 0-6.208.648-9.259.648-3.052 1.758-5.998 3.33-8.523-.924 2.946-1.757 5.787-2.405 8.733-.74 3.052-1.203 5.998-1.573 9.049Z"/></g></svg>