<svg width="102" height="211" fill="none" xmlns="http://www.w3.org/2000/svg"><path d="M89.428 207.421c0 1.774-16.75 3.194-37.473 3.194-20.724 0-37.473-1.42-37.473-3.194 0-1.775 16.749-3.194 37.473-3.194s37.473 1.419 37.473 3.194Z" fill="#F4F2ED"/><path d="M11.86 78.166S-1.857 76.296.762 73.302c2.62-2.993 9.479 1.996 9.479 1.996s-7.483-7.109-5.114-9.354c2.37-2.245 7.358 7.234 7.358 7.234s-1.371-8.98 1.871-8.481c3.243.374 2.869 11.848.998 12.596-1.996.873-3.492.873-3.492.873Z" fill="#E8A0A2"/><path d="m31.815 104.856-4.365 2.12s-10.85-.998-17.585-8.356c-5.363-5.986-6.734-16.213 2.869-21.576 9.603-5.363 17.71-4.24 21.95 7.358 3.866 10.601.748 18.708.748 18.708l-3.617 1.746Z" fill="#399648"/><path d="M13.981 76.42c8.605-3.991 15.714-2.245 19.705 8.605 3.866 10.601.748 18.707.748 18.707l1.248-.623s3.117-8.107-.749-18.707c-4.24-11.225-11.848-12.722-20.952-7.982Z" fill="#497E44"/><path d="M11.362 82.657c.374.873.374 1.746 0 1.995-.374.25-1.123-.374-1.497-1.247-.374-.873-.374-1.746 0-1.995.374-.125.998.374 1.497 1.247Zm-2.12 5.736c.374.873.374 1.746 0 1.996s-1.123-.374-1.497-1.247c-.374-.873-.374-1.746 0-1.996.499-.125 1.123.374 1.497 1.247Zm5.612-.748c.374.873.374 1.746 0 1.996s-1.122-.374-1.497-1.247c-.374-.873-.374-1.747 0-1.996.375-.125 1.123.374 1.497 1.247Zm3.242-6.485c.375.873.375 1.746 0 1.995-.374.25-1.122-.374-1.496-1.247-.374-.873-.374-1.746 0-1.995.374-.125 1.122.374 1.496 1.247Zm2.994 6.11c.374.874.374 1.747 0 1.996-.374.25-1.123-.374-1.497-1.247-.374-.873-.374-1.746 0-1.995.374-.125.998.374 1.497 1.247Zm1.372-9.727c.374.873.374 1.746 0 1.996-.375.25-1.123-.374-1.497-1.248-.374-.873-.374-1.745 0-1.995s1.122.374 1.497 1.247Zm3.118 5.612c.374.873.374 1.746 0 1.996-.375.25-1.123-.374-1.497-1.247-.374-.873-.374-1.746 0-1.996.499-.25 1.122.374 1.497 1.247Zm2.494-5.237c.374.873.374 1.746 0 1.995-.374.25-1.123-.374-1.497-1.247-.374-.873-.374-1.746 0-1.995.374-.125 1.123.374 1.497 1.247Zm3.118 5.112c.374.873.374 1.746 0 1.996s-1.123-.374-1.497-1.247c-.374-.873-.374-1.746 0-1.996s1.123.374 1.497 1.247Zm3.492 12.222c.374.873.374 1.746 0 1.996S33.56 96.874 33.187 96c-.374-.873-.374-1.746 0-1.996.374-.124 1.123.374 1.497 1.247Zm-23.696-.123c.374.873.374 1.746 0 1.995-.374.25-1.123-.374-1.497-1.247-.374-.873-.374-1.746 0-1.995.374-.25 1.123.374 1.497 1.247Zm5.737-1.747c.374.873.374 1.746 0 1.995-.375.25-1.123-.374-1.497-1.247-.374-.873-.374-1.746 0-1.995.374-.125.998.374 1.497 1.247Zm-.375 7.109c.375.873.375 1.746 0 1.995-.374.25-1.122-.374-1.496-1.247-.374-.873-.374-1.746 0-1.995.374-.25 1.122.374 1.496 1.247Zm3.991-3.367c.375.873.375 1.746 0 1.995-.374.25-1.122-.374-1.496-1.247-.374-.873-.374-1.746 0-1.996.499-.124 1.122.374 1.497 1.248Zm3.991-5.737c.375.873.375 1.746 0 1.995-.374.25-1.122-.374-1.496-1.247-.374-.873-.374-1.746 0-1.995.374-.25.998.374 1.496 1.247Zm4.615-1.497c.374.873.374 1.746 0 1.996-.374.249-1.123-.374-1.497-1.248-.374-.873-.374-1.746 0-1.995.374-.125.998.374 1.497 1.247Zm-3.117 9.105c.373.873.373 1.746 0 1.995-.375.249-1.123-.374-1.497-1.247-.375-.873-.375-1.746 0-1.996.374-.249.997.375 1.496 1.248Zm8.604-9.23c.374.873.374 1.746 0 1.996-.374.249-1.122-.375-1.496-1.248-.375-.873-.375-1.746 0-1.995.374-.25 1.122.374 1.496 1.247Zm-3.741 7.608c.374.873.374 1.746 0 1.995-.374.25-1.123-.374-1.497-1.247-.374-.873-.374-1.746 0-1.995.374-.125 1.123.374 1.497 1.247Zm-.374 5.113c.374.873.374 1.746 0 1.996-.374.249-1.123-.374-1.497-1.247-.374-.873-.374-1.746 0-1.996.374-.249.998.374 1.497 1.247Zm-7.234.125c.374.873.374 1.746 0 1.996-.374.249-1.122-.374-1.497-1.247-.374-.873-.374-1.746 0-1.996.375-.125.998.374 1.497 1.247Z" fill="#B1D8B0"/><path d="M33.312 17.804s-17.834-.873-14.841-4.989c2.868-4.116 12.471 1.497 12.471 1.497S20.591 5.956 23.46 2.838c2.869-3.118 10.352 8.605 10.352 8.605S31.067.094 35.183.343c4.115.125 4.988 14.842 2.619 16.213-2.495 1.123-4.49 1.248-4.49 1.248Z" fill="#E8A0A2"/><path d="m61.872 49.98-5.363 3.118s-14.093-.125-23.447-8.855c-7.607-7.108-10.476-20.204 1.372-28.06 11.848-7.983 22.2-7.484 29.06 7.108 6.235 13.22 2.992 23.945 2.992 23.945l-4.614 2.744Z" fill="#399648"/><path d="M35.806 15.31c10.6-5.987 19.955-4.49 26.19 8.854 6.236 13.22 2.994 23.946 2.994 23.946l1.496-.873s3.118-10.85-2.993-23.946C57.008 9.323 47.03 8.326 35.806 15.31Z" fill="#497E44"/><path d="M33.187 23.665c.624 1.122.748 2.245.25 2.494-.5.25-1.497-.25-2.12-1.372-.624-1.122-.749-2.244-.25-2.494.499-.374 1.497.25 2.12 1.372Zm-1.995 7.608c.623 1.122.748 2.244.25 2.494-.5.25-1.497-.25-2.121-1.372-.624-1.123-.748-2.245-.25-2.494.5-.25 1.497.374 2.12 1.372Zm7.108-1.622c.624 1.123.749 2.245.25 2.495-.5.249-1.497-.25-2.12-1.372-.624-1.123-.749-2.245-.25-2.495.5-.25 1.497.375 2.12 1.372Zm3.368-8.73c.623 1.123.748 2.245.25 2.494-.5.25-1.497-.25-2.12-1.371-.624-1.123-.75-2.245-.25-2.495.623-.25 1.496.374 2.12 1.372Zm4.49 7.609c.623 1.122.748 2.244.25 2.493-.5.25-1.498-.249-2.121-1.371-.624-1.123-.748-2.245-.25-2.495.624-.374 1.497.25 2.12 1.372Zm.748-12.722c.623 1.122.748 2.245.25 2.494-.5.25-1.497-.25-2.12-1.372-.624-1.122-.75-2.245-.25-2.494.623-.374 1.496.25 2.12 1.372Zm4.739 6.859c.624 1.122.748 2.245.25 2.494-.5.25-1.497-.25-2.12-1.372-.624-1.122-.749-2.245-.25-2.494.499-.374 1.497.25 2.12 1.372Zm2.619-6.859c.624 1.122.748 2.245.25 2.494-.5.25-1.497-.25-2.12-1.372-.624-1.122-.749-2.245-.25-2.494.499-.374 1.372.25 2.12 1.372Zm4.49 6.111c.623 1.122.748 2.245.25 2.494-.5.25-1.497-.25-2.12-1.372-.624-1.122-.75-2.244-.25-2.494.499-.25 1.496.25 2.12 1.372Zm5.862 15.341c.623 1.122.748 2.244.25 2.494-.5.25-1.498-.25-2.121-1.372-.624-1.123-.748-2.245-.25-2.494.5-.375 1.497.249 2.12 1.371Zm-30.431 2.368c.623 1.123.748 2.245.25 2.495-.5.249-1.497-.25-2.12-1.372-.624-1.123-.75-2.245-.25-2.495.499-.249 1.372.375 2.12 1.372Zm7.109-2.743c.623 1.123.748 2.245.25 2.494-.5.25-1.497-.249-2.121-1.371-.624-1.123-.748-2.245-.25-2.495.5-.374 1.372.25 2.12 1.372Zm.249 9.105c.624 1.122.748 2.244.25 2.494-.5.25-1.497-.25-2.12-1.372-.624-1.122-.749-2.245-.25-2.494.624-.375 1.497.25 2.12 1.372Zm4.864-4.74c.624 1.122.748 2.245.25 2.494-.5.25-1.497-.25-2.12-1.372-.624-1.122-.749-2.245-.25-2.494.499-.374 1.496.25 2.12 1.372Zm4.365-7.857c.624 1.122.748 2.245.25 2.494-.5.25-1.497-.25-2.12-1.372-.624-1.122-.749-2.245-.25-2.494.623-.25 1.496.25 2.12 1.372Zm5.862-2.37c.623 1.123.748 2.245.25 2.495-.5.25-1.498-.25-2.121-1.372-.624-1.123-.748-2.245-.25-2.494.5-.375 1.372.249 2.12 1.371Zm-3.118 11.973c.623 1.123.748 2.245.25 2.494-.5.25-1.497-.249-2.12-1.371-.624-1.123-.75-2.245-.25-2.495.499-.25 1.496.374 2.12 1.372ZM63.743 30.15c.623 1.123.748 2.245.249 2.494-.499.25-1.497-.25-2.12-1.371-.624-1.123-.748-2.245-.25-2.495.5-.25 1.497.374 2.12 1.372Zm-3.991 10.227c.623 1.122.748 2.245.25 2.494-.5.25-1.498-.25-2.121-1.372-.624-1.122-.748-2.245-.25-2.494.5-.25 1.372.374 2.12 1.372Zm0 6.61c.623 1.122.748 2.245.25 2.494-.5.25-1.498-.25-2.121-1.372-.624-1.122-.748-2.245-.25-2.494.5-.25 1.372.374 2.12 1.372Zm-9.354.998c.624 1.122.748 2.245.25 2.494-.5.25-1.497-.25-2.12-1.372-.624-1.122-.749-2.245-.25-2.494.499-.25 1.497.25 2.12 1.372Z" fill="#B1D8B0"/><path d="m59.502 102.111-7.358-4.49s-9.104-17.46-4.49-34.92c3.742-14.093 17.96-26.19 35.669-16.837 17.585 9.479 23.821 22.699 10.227 40.658-12.222 16.337-27.687 19.455-27.687 19.455l-6.36-3.866Z" fill="#399648"/><path d="M85.194 47.11c14.466 9.23 18.706 21.702 6.36 38.29-12.222 16.337-27.687 19.455-27.687 19.455l1.996 1.247s15.465-3.242 27.687-19.455c12.97-17.46 7.732-30.306-8.356-39.535Z" fill="#497E44"/><path d="M67.484 48.858c-.624 1.122-1.621 1.746-2.12 1.372-.5-.374-.374-1.497.25-2.495.623-1.122 1.62-1.746 2.12-1.372.498.25.374 1.372-.25 2.495Zm4.989 5.112c-.624 1.123-1.622 1.747-2.12 1.373-.5-.375-.375-1.497.249-2.495.623-1.122 1.621-1.746 2.12-1.372.499.25.374 1.372-.25 2.495Zm-13.345-.747c-.623 1.122-1.621 1.746-2.12 1.371-.499-.374-.374-1.496.25-2.494.623-1.122 1.62-1.746 2.12-1.372.498.25.374 1.372-.25 2.495Zm5.612 4.364c-.623 1.123-1.621 1.746-2.12 1.372-.499-.374-.374-1.496.25-2.494.623-1.123 1.62-1.746 2.12-1.372.499.25.499 1.372-.25 2.494Zm12.597-9.477c-.624 1.121-1.622 1.745-2.12 1.371-.5-.374-.375-1.497.249-2.494.623-.998 1.621-1.746 2.12-1.372.499.374.374 1.496-.25 2.494Zm-7.733 14.965c-.623 1.123-1.621 1.746-2.12 1.372-.499-.374-.374-1.497.25-2.494.623-1.123 1.62-1.746 2.12-1.372.499.25.374 1.372-.25 2.494Zm11.474-9.229c-.624 1.123-1.621 1.746-2.12 1.372-.5-.374-.374-1.497.25-2.494.623-1.123 1.62-1.746 2.12-1.372.498.374.498 1.497-.25 2.494Zm6.735.748c-.624 1.123-1.621 1.746-2.12 1.372-.5-.374-.374-1.496.249-2.494.624-1.123 1.621-1.746 2.12-1.372.5.25.5 1.372-.25 2.494Zm-8.855 7.359c-.624 1.122-1.621 1.746-2.12 1.372-.5-.375-.374-1.497.25-2.495.623-1.122 1.62-1.746 2.12-1.372.498.375.498 1.497-.25 2.495ZM93.3 60.456c-.623 1.122-1.621 1.746-2.12 1.372-.499-.374-.374-1.497.25-2.495.623-1.122 1.62-1.746 2.12-1.371.499.374.374 1.496-.25 2.494ZM74.343 69.56c-.623 1.123-1.621 1.746-2.12 1.372-.499-.374-.374-1.496.25-2.494.623-1.122 1.62-1.746 2.12-1.372.499.374.499 1.497-.25 2.495Zm11.724-5.363c-.624 1.122-1.621 1.746-2.12 1.372-.5-.374-.375-1.497.249-2.495.624-1.122 1.621-1.745 2.12-1.371.5.374.5 1.496-.25 2.494ZM82.2 71.68c-.623 1.123-1.62 1.746-2.12 1.372-.498-.374-.374-1.496.25-2.494.623-1.123 1.621-1.746 2.12-1.372.499.25.374 1.372-.25 2.494Zm9.728-1.87c-.623 1.122-1.621 1.745-2.12 1.371-.499-.374-.374-1.497.25-2.494.623-1.123 1.62-1.746 2.12-1.372.499.374.374 1.496-.25 2.494Zm6.61 0c-.623 1.122-1.621 1.745-2.12 1.371-.499-.374-.374-1.497.25-2.494.623-1.123 1.62-1.746 2.12-1.372.499.25.499 1.372-.25 2.494Zm-12.222 7.857c-.623 1.122-1.621 1.746-2.12 1.372-.499-.374-.374-1.497.25-2.495.623-1.122 1.62-1.745 2.12-1.371.499.374.374 1.496-.25 2.494Zm8.73 0c-.623 1.122-1.621 1.746-2.12 1.372-.499-.374-.374-1.497.25-2.495.623-1.122 1.62-1.745 2.12-1.371.499.249.499 1.371-.25 2.494Zm-4.365 7.358c-.623 1.122-1.621 1.746-2.12 1.372-.499-.375-.374-1.497.25-2.495.623-1.122 1.62-1.746 2.12-1.372.499.25.374 1.372-.25 2.495ZM54.264 59.084c-.623 1.123-1.621 1.746-2.12 1.372-.499-.374-.374-1.497.25-2.494.623-1.123 1.62-1.746 2.12-1.372.498.374.374 1.496-.25 2.494Zm4.49 5.113c-.624 1.122-1.621 1.746-2.12 1.372-.5-.374-.374-1.497.25-2.495.623-1.122 1.62-1.745 2.12-1.371.498.25.373 1.371-.25 2.494Zm-6.734 4.116c-.624 1.123-1.622 1.746-2.12 1.372-.5-.374-.375-1.497.249-2.494.623-1.123 1.62-1.746 2.12-1.372.499.25.374 1.372-.25 2.494Zm12.596.873c-.624 1.122-1.622 1.746-2.12 1.372-.5-.374-.375-1.497.249-2.494.623-1.123 1.621-1.746 2.12-1.372.499.374.374 1.372-.25 2.494ZM56.634 73.8c-.624 1.123-1.622 1.746-2.12 1.372-.5-.374-.375-1.496.249-2.494.623-1.123 1.621-1.746 2.12-1.372.499.25.374 1.372-.25 2.494Zm-4.49 7.359c-.623 1.122-1.621 1.746-2.12 1.371-.499-.374-.374-1.496.25-2.494.623-1.122 1.62-1.746 2.12-1.372.498.25.374 1.372-.25 2.495Zm10.975-5.363c-.624 1.122-1.621 1.746-2.12 1.372-.5-.374-.375-1.497.25-2.495.623-1.122 1.62-1.746 2.12-1.371.498.374.373 1.496-.25 2.494Zm9.104.249c-.623 1.123-1.621 1.746-2.12 1.372-.499-.374-.374-1.497.25-2.494.623-1.123 1.62-1.746 2.12-1.372.499.25.374 1.372-.25 2.494Zm4.864 3.991c-.623 1.123-1.621 1.746-2.12 1.372-.499-.374-.374-1.496.25-2.494.623-1.123 1.62-1.746 2.12-1.372.498.25.374 1.372-.25 2.494ZM64.99 83.03c-.624 1.122-1.622 1.745-2.12 1.371-.5-.374-.375-1.497.249-2.494.623-1.123 1.621-1.746 2.12-1.372.499.25.374 1.372-.25 2.494Zm16.213 2.993c-.624 1.122-1.621 1.746-2.12 1.372-.5-.374-.374-1.497.249-2.495.624-1.122 1.621-1.746 2.12-1.372.5.375.374 1.372-.25 2.495ZM70.228 87.27c-.624 1.122-1.621 1.746-2.12 1.371-.5-.374-.374-1.496.25-2.494.623-1.122 1.62-1.746 2.12-1.372.498.374.373 1.497-.25 2.495Zm13.469 4.988c-.624 1.123-1.621 1.746-2.12 1.372-.499-.374-.374-1.497.25-2.494.623-1.123 1.62-1.746 2.12-1.372.498.25.374 1.372-.25 2.494ZM73.096 93.88c-.623 1.122-1.621 1.746-2.12 1.372-.499-.374-.374-1.497.25-2.495.623-1.122 1.62-1.746 2.12-1.371.498.25.374 1.371-.25 2.494ZM59.003 82.656c-.623 1.122-1.62 1.745-2.12 1.371-.499-.374-.374-1.496.25-2.494.623-1.122 1.621-1.746 2.12-1.372.499.25.374 1.372-.25 2.495Zm2.619 10.101c-.623 1.122-1.621 1.746-2.12 1.372-.499-.375-.374-1.497.25-2.495.623-1.122 1.62-1.746 2.12-1.371.499.374.374 1.496-.25 2.494Zm16.588 3.118c-.624 1.122-1.622 1.746-2.12 1.372-.5-.374-.375-1.497.249-2.495.624-1.122 1.621-1.746 2.12-1.371.499.249.374 1.371-.25 2.494Zm-23.572-5.986c-.623 1.122-1.621 1.746-2.12 1.372-.499-.374-.374-1.497.25-2.495.623-1.122 1.62-1.746 2.12-1.372.499.25.374 1.372-.25 2.495Zm12.722 8.356c-.624 1.122-1.622 1.746-2.12 1.372-.5-.375-.375-1.497.249-2.495.623-1.122 1.62-1.746 2.12-1.372.499.25.374 1.372-.25 2.495Z" fill="#B1D8B0"/><path d="M56.883 164.969H46.657s-19.955-12.097-26.066-32.551c-4.864-16.587 2.12-37.664 25.691-39.036 23.696-1.372 38.163 8.231 35.42 34.796-2.37 24.07-16.089 36.791-16.089 36.791h-8.73Z" fill="#399648"/><path d="M49.15 93.257c20.33.5 32.302 10.476 29.933 34.796-2.37 24.07-16.089 36.791-16.089 36.791h2.869s13.594-12.721 16.088-36.791c2.494-25.442-10.85-35.17-32.8-34.796Z" fill="#497E44"/><path d="M32.19 106.103c0 1.496-.624 2.744-1.372 2.744-.749 0-1.372-1.248-1.372-2.744 0-1.497.623-2.744 1.372-2.744.748 0 1.372 1.247 1.372 2.744Zm8.23 1.995c0 1.497-.623 2.744-1.371 2.744-.749 0-1.372-1.247-1.372-2.744 0-1.496.623-2.743 1.372-2.743.873.124 1.372 1.247 1.372 2.743Zm-13.968 7.484c0 1.496-.623 2.744-1.372 2.744-.748 0-1.371-1.248-1.371-2.744 0-1.497.623-2.744 1.372-2.744.748 0 1.371 1.247 1.371 2.744Zm8.356.872c0 1.497-.623 2.744-1.371 2.744-.749 0-1.372-1.247-1.372-2.744 0-1.496.623-2.744 1.372-2.744.748.125 1.371 1.248 1.371 2.744Zm6.985-17.21c0 1.496-.624 2.744-1.372 2.744-.749 0-1.372-1.248-1.372-2.744 0-1.497.623-2.744 1.372-2.744.748.125 1.372 1.247 1.372 2.744Zm1.247 19.954c0 1.497-.624 2.744-1.372 2.744-.748 0-1.372-1.247-1.372-2.744 0-1.496.623-2.743 1.372-2.743.873 0 1.372 1.247 1.372 2.743Zm6.11-16.463c0 1.497-.623 2.744-1.371 2.744s-1.372-1.247-1.372-2.744c0-1.496.624-2.743 1.372-2.743.748.124 1.372 1.247 1.372 2.743Zm7.234-3.491c0 1.496-.623 2.744-1.371 2.744-.749 0-1.372-1.248-1.372-2.744 0-1.497.623-2.744 1.372-2.744.748.125 1.371 1.247 1.371 2.744Zm-4.364 13.095c0 1.496-.624 2.744-1.373 2.744-.748 0-1.371-1.248-1.371-2.744 0-1.497.623-2.744 1.371-2.744.749 0 1.372 1.247 1.372 2.744Zm13.593-10.352c0 1.497-.623 2.744-1.372 2.744-.748 0-1.371-1.247-1.371-2.744 0-1.496.623-2.743 1.371-2.743.749 0 1.372 1.247 1.372 2.743ZM52.02 122.815c0 1.497-.624 2.744-1.373 2.744-.748 0-1.371-1.247-1.371-2.744 0-1.496.623-2.744 1.371-2.744.749 0 1.372 1.248 1.372 2.744Zm8.605-12.597c0 1.497-.624 2.744-1.372 2.744-.748 0-1.372-1.247-1.372-2.744 0-1.496.623-2.744 1.372-2.744.748 0 1.372 1.248 1.372 2.744Zm-.749 12.597c.758 0 1.372-1.229 1.372-2.744 0-1.515-.614-2.744-1.372-2.744-.757 0-1.371 1.229-1.371 2.744 0 1.515.614 2.744 1.371 2.744Zm9.978-10.476c0 1.496-.624 2.744-1.372 2.744-.748 0-1.372-1.248-1.372-2.744 0-1.497.624-2.744 1.372-2.744.873 0 1.372 1.247 1.372 2.744Zm6.734-4.241c0 1.497-.623 2.744-1.372 2.744-.748 0-1.371-1.247-1.371-2.744 0-1.496.623-2.743 1.371-2.743.873.124 1.372 1.247 1.372 2.743Zm-7.608 15.59c0 1.497-.623 2.744-1.371 2.744s-1.372-1.247-1.372-2.744c0-1.496.624-2.744 1.372-2.744.748.125 1.372 1.248 1.372 2.744Zm8.98-5.363c0 1.496-.623 2.743-1.372 2.743-.748 0-1.372-1.247-1.372-2.743 0-1.497.624-2.744 1.372-2.744.749 0 1.372 1.247 1.372 2.744Zm0 10.102c0 1.497-.623 2.744-1.372 2.744-.748 0-1.372-1.247-1.372-2.744 0-1.496.624-2.743 1.372-2.743.749 0 1.372 1.247 1.372 2.743Zm-52.88-3.741c0 1.496-.623 2.743-1.371 2.743-.749 0-1.372-1.247-1.372-2.743 0-1.497.623-2.744 1.372-2.744.873 0 1.372 1.247 1.372 2.744Zm7.608 2.244c0 1.496-.623 2.744-1.372 2.744-.748 0-1.371-1.248-1.371-2.744 0-1.497.623-2.744 1.372-2.744.873 0 1.371 1.247 1.371 2.744Zm-4.115 8.356c0 1.497-.624 2.744-1.372 2.744-.749 0-1.372-1.247-1.372-2.744 0-1.496.623-2.743 1.372-2.743.748 0 1.372 1.247 1.372 2.743Zm13.22-6.859c0 1.497-.624 2.744-1.372 2.744-.749 0-1.372-1.247-1.372-2.744 0-1.496.623-2.743 1.372-2.743.748 0 1.372 1.247 1.372 2.743Zm-6.611 12.347c.758 0 1.372-1.228 1.372-2.743 0-1.516-.614-2.744-1.372-2.744-.757 0-1.371 1.228-1.371 2.744 0 1.515.614 2.743 1.371 2.743Zm1.372 7.358c0 1.497-.623 2.744-1.372 2.744-.748 0-1.371-1.247-1.371-2.744s.623-2.744 1.371-2.744c.749.125 1.372 1.247 1.372 2.744Zm7.857-12.097c0 1.497-.623 2.744-1.371 2.744-.749 0-1.372-1.247-1.372-2.744 0-1.496.623-2.744 1.372-2.744.748.125 1.371 1.248 1.371 2.744Zm9.354-5.363c0 1.496-.623 2.743-1.372 2.743-.748 0-1.371-1.247-1.371-2.743 0-1.497.623-2.744 1.371-2.744.749 0 1.372 1.247 1.372 2.744Zm7.358 1.123c0 1.496-.623 2.744-1.371 2.744-.749 0-1.372-1.248-1.372-2.744 0-1.497.623-2.744 1.372-2.744.873 0 1.371 1.247 1.371 2.744Zm-10.475 10.476c0 1.497-.624 2.744-1.372 2.744-.749 0-1.372-1.247-1.372-2.744s.623-2.744 1.372-2.744c.748 0 1.371 1.247 1.371 2.744Zm18.332-6.985c0 1.497-.623 2.744-1.371 2.744s-1.372-1.247-1.372-2.744c0-1.496.624-2.743 1.372-2.743.748 0 1.372 1.247 1.372 2.743Zm-10.35 8.107c0 1.497-.624 2.744-1.373 2.744-.748 0-1.371-1.247-1.371-2.744s.623-2.744 1.371-2.744c.749 0 1.372 1.247 1.372 2.744Zm16.711-3.367c0 1.496-.623 2.743-1.372 2.743-.748 0-1.372-1.247-1.372-2.743 0-1.497.624-2.744 1.372-2.744.749.125 1.372 1.247 1.372 2.744Zm-9.728 8.106c0 1.497-.623 2.744-1.372 2.744-.748 0-1.371-1.247-1.371-2.744s.623-2.744 1.371-2.744c.749.125 1.372 1.247 1.372 2.744Zm-21.202-2.619c0 1.497-.623 2.744-1.371 2.744-.749 0-1.372-1.247-1.372-2.744 0-1.496.623-2.743 1.372-2.743.748 0 1.371 1.247 1.371 2.743Zm8.855 8.731c0 1.496-.623 2.743-1.371 2.743-.749 0-1.372-1.247-1.372-2.743 0-1.497.623-2.744 1.371-2.744.749 0 1.372 1.247 1.372 2.744Zm18.708-7.109c0 1.496-.624 2.743-1.372 2.743-.748 0-1.372-1.247-1.372-2.743 0-1.497.624-2.744 1.372-2.744.748 0 1.372 1.247 1.372 2.744Zm-27.563 8.356c0 1.497-.623 2.744-1.371 2.744-.749 0-1.372-1.247-1.372-2.744s.623-2.744 1.372-2.744c.748.125 1.371 1.247 1.371 2.744Zm18.084.623c0 1.497-.623 2.744-1.371 2.744-.749 0-1.372-1.247-1.372-2.744 0-1.496.623-2.744 1.372-2.744.748 0 1.371 1.248 1.371 2.744Z" fill="#B1D8B0"/><path d="M14.73 159.232v8.73c0 23.447 16.712 42.653 37.04 42.653h4.24c20.33 0 37.041-19.206 37.041-42.653v-8.73H14.73Z" fill="#ECC742"/><path d="M101.906 173.824H6.623v1.372h95.283v-1.372Zm0 21.201H6.623v1.372h95.283v-1.372Z" fill="#fff"/><path opacity=".1" d="M76.963 159.232v8.73c0 23.197-5.487 42.279-25.691 42.653h4.863c20.33 0 37.041-19.206 37.041-42.653v-8.73H76.963Z" fill="#482C80"/><path d="M96.793 154.992H11.238v8.481h85.555v-8.481Z" fill="#D4A000"/></svg>