<svg width="112" height="88" fill="none" xmlns="http://www.w3.org/2000/svg"><path fill-rule="evenodd" clip-rule="evenodd" d="M66.45 30.214c-1.22-7.02-6.277-12.39-12.938-15.942-7.508-3.953-16.944-5.69-24.806-5.025-2.757.296-5.436.851-7.94 1.673-3.7 1.153-7.337 2.732-10.798 4.58-.304.145-.433.557-.258.824.174.267.653.388.957.242 3.015-1.12 6.024-2.157 9.104-2.85 3.08-.693 6.147-1.219 9.37-1.225 7.163-.466 15.629 1.196 22.38 4.839 5.528 3.041 9.782 7.422 10.904 13.167-1.773.202-3.45.411-5.144.873-3.19.854-6.225 2.226-8.844 4.56-1.883 1.63-3.946 4.343-4.436 6.924-.465 2.245.047 4.48 2.371 6.01 4.544 3.135 9.21 2.141 12.968-1.034 4.373-3.551 7.392-9.824 7.616-14.03 1.76-.034 3.417.008 5.17.058 7.016.2 13.954 2.674 19.483 6.982 4.875 3.921 8.948 9.386 10.892 15.87 1.653 5.194 1.144 10.561-.199 15.357-.937 3.307-2.34 6.325-3.71 8.923-1.255 2.354-2.47 4.203-3.745 5.541-.103.077-.11.161-.013.168l.195.015c1.733-.965 3.706-2.503 5.53-4.644 2.044-2.462 3.848-5.618 5.089-9.07 1.861-5.18 2.421-11.218.82-17.085-2.178-7.262-6.595-13.344-12.317-17.667-6.273-4.789-14.06-7.665-22.149-7.863a61.18 61.18 0 0 0-5.552-.171Zm-3.907 3.84c-1.378.147-2.763.38-4.057.702-2.588.647-5.02 1.812-7.117 3.679-1.151 1.01-2.444 2.6-3.052 4.158-.485 1.23-.678 2.482.526 3.335 2.596 1.803 5.3.912 7.487-.863 3.331-2.701 5.95-7.569 6.213-11.012Z" fill="#F47458"/><path fill-rule="evenodd" clip-rule="evenodd" d="M11.153 16.603c.944-.857 1.888-1.714 2.736-2.578 1.054-1.017 2.206-2.027 3.163-3.052 2.645-2.67 5.006-5.445 7.554-8.121.31-.23.24-.573-.033-.848-.271-.274-.666-.22-.977.01-2.58 1.83-5.35 3.56-7.93 5.39a44.211 44.211 0 0 0-3.313 2.45C9.96 11.782 7.845 13.9 5.736 15.935c-.214.237-.64.711-.776 1.207-.136.497-.174 1-.012 1.436.162.434.42.877 1.172 1.272.382.113 1.145.34 2.213.423 3.592.275 12.509-.14 14.366-.167l3.734-.306c.2-.069.492-.046.796-.192.4-.138.809-.36 1.022-.598.11-.16-.175-.266.02-.251.096.007.012-.168-.091-.092-.117.245-.182-.183-.285-.106-.31.23.02-.252-.272-.274-.097-.008.103-.077-.09-.092-.195-.015.2-.069.012-.168-.09-.091.2-.069.11-.16-.09-.092.188.099.104-.077-.091-.091.09.092.09.092s.013-.168.084.175c-.103.077-.11.16-.012.168.09.091.187.099.194.015.835.57.097.007.479.121.097.007.006-.084.103-.076.492-.047-.181-.183.032-.42.104-.077-.194-.015-.09-.092.11-.16-.207.153-.279-.19.013-.168-.11.16-.284-.106-.182-.183.103-.077-.37-.282-.284-.106-1.074.002-1.359-.104l-3.5-.184c-1.554-.119-7.61-.076-11.694-.304Z" fill="#F47458"/></svg>