<svg width="699" height="767" fill="none" xmlns="http://www.w3.org/2000/svg"><path d="M356.44 632.005c24.762-12.342 53.75-36.25 97.395-64.669 49.295-32.14 162.433 21.703 226.125-123.318 6.691-15.232 11.362-31.844 13.625-47.586C729.923 142.538 437.847-8.894 201.701 92.473 100.008 136.126-33.417 226.784 11.241 438.351c30.82 146.056 179.126 276.493 345.199 193.654Z" fill="#fff"/><path d="m297.065 402.147 79.466-15.06s12.244-7.958 56.446 29.017c27.489 22.957-3.979 42.774 55.712 47.549 87.302 6.978 236.644 102.421 153.122 252.662-46.283 83.255-71.069-22.069-132.674-6.796-11.754 4.163-19.468 6.796-20.448 6.796-5.02 0-194.195-121.027-194.195-121.027l2.571-193.141Z" fill="#1E1735"/><path d="M71.097 727.822c11.08-22.834 23.264-52.035 34.835-92.928 11.081-39.302 59.936-35.139 106.648-56.688 46.773-21.548 95.138-34.036 141.422-4.958 55.834 35.016 112.953 41.015 141.666 79.889 3.98 5.448 8.755 15.488 9.857 17.63 5.081 10.101 12.615 40.039 15.859 52.099-15.979 9.366-33.981-1.839-45.98 3.181-132.728 55.646-281.068 50.994-404.307 1.775Z" fill="#FFBCB0"/><path d="M451.342 284.795c-.306-3.245.979-5.938 3-7.775-.98.551-2.082.918-3.306 1.163-4.102.735-11.082-.612-12.551-7.346-.551-5.999 4.041-8.938 6.122-9.917 2.633-1.286 5.143-1.408 7.163-1.041-2.571-1.102-4.653-3.244-5.326-6.366-1.041-10.101 11.265-14.203 17.693-10.04 1.102.735 2.633 2.02 3.49 4.163.061-7.897 10.162-13.346 17.693-8.877 5.632 3.367 5.816 10.346 1.653 14.631.183-.122.306-.183.489-.245 1.959-.918 3.061-1.04 4.47-1.224.183 0 3.795-.428 7.224 1.714 7.714 4.959 5.204 15.978-4.102 18.243-2.204.551-3.918.306-4.653.245-.245 0-.49-.123-.735-.184.368.184.674.367 1.041.612 7.469 4.959 4.898 15.794-4.224 17.876-2.449.551-6.184.673-10.04-2.143-.49-.306-1.96-1.653-2.755-3.306-.245-.551-.368-1.163-.49-1.775 0 4.408-3.367 8.815-9.061 9.795-2.939.306-11.081-.123-12.795-8.203Z" fill="#fff"/><path d="M472.281 272.062c6.306-1.531 8.082-8.938 2.817-12.121-4.959-3.061-12.796.367-12.184 6.856 1.102 4.959 6.123 6.061 9.367 5.265Z" fill="#FFBCB0"/><path d="M451.099 278.122c8.02-1.469 12.55-11.019 5.693-16.345-.061-.061-5.632-4.163-12.183-.979-2.02.979-6.673 3.918-6.122 9.917 1.531 6.856 8.51 8.142 12.612 7.407Zm44.018-6.367c9.306-2.204 11.816-13.284 4.102-18.243-3.428-2.142-7.04-1.714-7.224-1.714-1.408.184-2.51.306-4.469 1.225-1.286.612-2.143 1.714-3.306 2.387-.061 0-3.306 2.632-2.816 8.264.612 2.816 1.714 4.959 5.203 6.979.551.306 1.164.245 1.776.429.734.245 1.347.734 2.143.796.673.183 2.387.428 4.591-.123Z" fill="gold"/><path d="M459.608 260.43c4.102-1.041 7.286-3.918 8.265-7.591.368-1.286.368-1.286-.122-3.429-.122-.612.061-1.224-.184-1.775-.857-2.142-2.326-3.428-3.489-4.163-6.49-4.162-18.734-.061-17.693 10.04 1.408 5.999 7.775 8.203 13.223 6.918Zm26.999 29.813c9.122-2.082 11.694-12.917 4.224-17.876-6.55-4.346-16.958-.918-17.937 8.02.489 1.469.244 2.999.918 4.407.796 1.653 2.326 3 2.755 3.306 3.796 2.816 7.53 2.755 10.04 2.143Z" fill="gold"/><path d="M464.2 292.815c8.939-1.531 12.245-11.57 5.51-16.774-6.795-5.203-19.223-.673-18.305 8.754 1.653 8.081 9.795 8.51 12.795 8.02Zm17.755-36.426c8.754-2.693 10.775-13.284 3.367-17.692-8.02-4.774-19.04 1.776-17.571 10.469 1.225 6.427 8.449 8.999 14.204 7.223Z" fill="gold"/><path d="M346.349 25.293c-3 1.286-3.49 9.305-3.429 11.264.306 6.611 3.061 14.202 6.612 22.467-4.346 5.632-8.877 6.979-13.346 10.958-8.877 7.835-4.714 10.284-4.347 10.468 5.633 2.449 17.204-6.918 21.244-13.407 2.021 4.53 4.102 9.183 6.061 14.019.429 1.102.857 2.326 1.163 3.55-.306.43-.612.919-.979 1.409-10.469 13.161-18.305 12.488-27.489 17.569-14.142 7.897-9.244 12.366-8.816 12.672 6.918 5.02 25.897-4.775 32.754-12.305 1.163-1.285 3.49-3.856 5.51-7.284-1.959 29.017-30.182 66.298-56.202 43.158-5.999-5.326-7.591 3.979-19.284 4.285-9.918.245-16.898-9.366-19.224-12.305-11.816-14.937-13.836-39.24-4.775-58.524 8.693-18.365 26.998-31.16 43.283-34.587 5.633-1.225 24.918-1.164 28.897-6 4.775-5.877 8.632-8.203 11.142-9.182 2.021-.98 3.306.857 1.225 1.775Zm-6 31.16c-.184-.123-.551-.123-1.592.367-.857.428-6.183 3.183-6.673 8.51-.061.917-.183 1.897.368 2.264 1.101.735 4.163-1.347 5.999-3.795 2.021-2.816 2.878-6.734 1.898-7.346Z" fill="#346E00"/><path d="M512.015 405.697c-4.653.123-10.286-9.917-11.388-12.549-3.673-8.754-4.775-20.324-5.326-33.241-9.122-4.653-15.795-3.612-24.121-5.999-16.408-4.714-12.49-10.469-12.122-10.897 5.755-6.673 26.631-1.653 35.876 4.285-.184-7.101-.306-14.508-.735-21.916-.122-1.714-.367-3.489-.673-5.264-.674-.429-1.347-.796-2.143-1.225-21.673-10.59-31.529-4.836-46.59-5.815-23.203-1.531-19.652-10.346-19.285-11.02 5.939-10.835 36.611-9.794 50.141-4.224 2.326.98 6.857 2.878 11.632 6.061-20.448-36.486-80.262-67.462-99.73-21.304-4.469 10.591-12.367-.428-27.672 6.367-13.04 5.754-16.101 22.589-17.326 27.854-6.061 26.691 6.306 59.564 29.999 78.97 22.652 18.549 54.303 23.753 77.567 18.182 8.082-1.959 33.121-13.897 41.264-10.04 9.857 4.653 16.285 5.265 20.142 5.081 3.244-.245 3.795-3.367.49-3.306Zm-27.06-36.73c-.184.306-.613.551-2.266.49-1.408 0-9.979-.306-13.897-6.918-.673-1.102-1.408-2.326-.918-3.122.918-1.653 6.244-.857 10.101 1.224 4.347 2.388 7.898 6.918 6.98 8.326ZM228.619 3.132c-2.571 2.878.735 11.754 1.837 13.897 3.551 6.979 10.224 13.835 18.121 21.059-1.959 8.264-6.183 11.876-9.122 18.365-5.816 12.855-.061 13.406.429 13.406 7.285-.06 15.244-15.916 16.469-24.854 4.408 3.918 8.938 7.897 13.407 12.182 1.041.98 2.02 2.082 2.939 3.245-.123.612-.184 1.285-.368 2.02-4.897 19.284-13.774 22.406-21.182 32.384-11.449 15.427-3.98 17.876-3.367 17.998 9.979 2.081 25.713-17.814 29.386-29.262.612-1.959 1.898-5.816 2.388-10.53 12.06 32.324-.307 86.501-39.733 74.135-9.061-2.816-6.306 8.02-18.795 14.019-10.592 5.081-22.836-1.898-26.815-3.979-20.02-10.407-34.101-35.751-33.672-60.973.428-24.12 14.019-46.831 29.937-58.524 5.51-4.04 26.387-13.406 28.284-20.569 2.327-8.693 5.388-13.1 7.592-15.365 1.775-2.02 4.102-.674 2.265 1.346Z" fill="#7CA417"/><path d="M489.485 96.488c-.245-11.631-5.265-17.018-1.776-27.12 1.286-3.61 3.368-7.1 2.266-8.08-1.47-1.285-7.347 3.245-9.122 4.47-14.755 10.406-43.529 1.59-49.529 0-36.488-9.49-91.159 24.67-117.79 47.871-12.306 10.713-61.405 53.504-57.12 107.988.184 2.02-2.326 40.525 23.938 48.361 16.652 4.959 26.815-13.529 44.753-5.877 11.754 5.02 15.611 14.264 26.876 17.019 14.999 3.673 30.978-12.917 34.652-16.957 13.285-14.631 8.571-23.324 22.835-50.872 6.673-12.917 12.306-23.752 23.632-34.955 10.407-10.285 18.427-13.774 23.815-19.161-9.244 1.53-20.142-.674-31.713-6.489-7.897-3.979-14.203-10.836-13.224-11.693.857-.734 9.306 6.673 21.612 7.591 16.591 1.286 25.345-2.693 30.672-6.06 1.102-10.285-1.776-19.345 2.081-20.875 3.122-1.286 5.877 4.407 10.53 3.673 6.918-1.225 12.857-15.794 12.612-28.834Z" fill="#7CA417"/><path d="M315.86 254.429c-2.081 12.672-3.122 25.467-3.183 38.261-.061 6.428.183 12.795.551 19.223.183 3.183.428 6.427.734 9.611.245 3.244.49 6.55.674 9.794.735 13.101.673 26.263-.061 39.363-.245 4.469-.613 8.999-1.041 13.468h-8.571a540.966 540.966 0 0 0 1.469-14.019c1.041-12.794 1.408-25.65.98-38.444-.123-3.184-.245-6.367-.429-9.611-.183-3.245-.367-6.489-.49-9.795-.244-6.55-.306-13.101-.122-19.712a254.603 254.603 0 0 1 4.163-39.118c2.449-12.917 5.939-25.589 10.591-37.832l1.776-4.592 1.898-4.53c1.285-2.999 2.571-5.999 3.918-8.938 2.694-5.938 5.632-11.815 8.816-17.508 6.367-11.447 13.652-22.344 22.101-32.323 8.387-9.978 17.938-19.099 28.468-26.752a144.8 144.8 0 0 1 16.53-10.468l4.346-2.265c1.47-.734 2.939-1.408 4.408-2.081 3-1.347 5.939-2.632 9-3.734 12.122-4.653 24.856-7.714 37.774-9.305-12.857 1.836-25.469 5.203-37.407 10.162-3 1.224-5.938 2.571-8.877 3.918-1.469.734-2.877 1.408-4.347 2.203l-4.224 2.327c-5.632 3.183-10.959 6.795-16.101 10.713-10.224 7.836-19.407 17.018-27.489 27.058-8.081 10.039-14.999 20.936-20.999 32.323-3 5.693-5.755 11.508-8.265 17.447a228.8 228.8 0 0 0-3.673 8.937l-1.775 4.469-1.653 4.53c-4.286 12.06-7.408 24.548-9.49 37.22Z" fill="#9FBC50"/><path d="M453.12 271.509c-.919-4.531-.245-5.51 1.408-9.306 3.367-8.019 20.631-9.243 31.529-24.303 6.918-9.55 24.733-3.489 37.1-11.876 8.755-5.999-.122-10.897 20.815-19.59 31.897-13.161 30.305-32.445 29.142-33.118-1.837-1.041-2.327 4.591-4.959 7.101-12.428 11.754-78.119-22.467-142.401 8.02-27.979 13.284-49.1 34.159-58.161 62.931-6.612 21.059-1.102 33.057 6.857 32.139 9.428-1.041 1.836 4.041 6.367 12.978 18.55 37.159 75.792-7.958 72.303-24.976Z" fill="#346E00"/><path d="m312.738 360.213-5.693-.245c4.714-7.53 9.673-14.937 14.815-22.222 14.081-19.957 29.754-38.935 47.202-56.014 17.51-17.08 36.856-32.323 57.916-44.689 21.06-12.366 43.834-21.854 67.527-27.793 2.939-.673 5.939-1.408 8.877-2.081l8.939-1.959c5.938-1.347 11.815-2.755 17.693-4.469 5.816-1.714 11.571-3.734 17.081-6.244s10.775-5.632 15.366-9.672c-4.53 4.101-9.795 7.285-15.244 9.917-5.51 2.632-11.265 4.714-17.081 6.55-5.816 1.775-11.754 3.306-17.632 4.714l-8.877 2.081-8.816 2.204c-23.448 6.306-45.916 16.039-66.609 28.65-20.693 12.611-39.671 27.976-56.691 45.178-17.02 17.202-32.202 36.18-45.855 56.198-4.53 6.489-8.816 13.162-12.918 19.896Z" fill="#7CA417"/><path d="M330.554 189.601c-10.653-26.324-32.203-44.689-54.488-51.729-5.877-1.836-15.917-4.897-23.447.061-11.816 7.714-8.388 29.201-13.102 29.813-5.877.796-7.591-31.282-25.835-39.24-13.53-5.877-32.448.184-42.917 10.529-26.631 26.385-20.693 77.379-5.999 109.335 8.571 18.732 34.345 61.952 67.16 69.665 6.55 1.531 29.631 5.51 35.569 20.508 1.286 3.244 1.102 5.326 2.878 6.305 7.591 4.041 33.427-22.589 47.936-49.341 6.551-12.06 31.591-58.156 12.245-105.906Zm-20.387 0c-.674.673-11.938-7.346-34.468-23.446-3.551-2.51-7.224-5.204-6.673-6.673.796-2.081 10.163-1.102 17.203 1.714 16.714 6.612 26.509 25.895 23.938 28.405Z" fill="#346E00"/><path d="M201.437 193.641c6.183-4.836 14.999 5.326 27.611.061 12.183-5.081 23.693-21.671 19.652-33.425-6.857-20.079-3.735-38.75-9.183-50.81-8.755-19.467-30.978-33.547-86.139-50.75-6.061-1.897-11.51-3.55-16.407-5.019 2.693 3.918 5.326 8.264 7.469 13.162 1.224 2.693 6.122 14.019 5.02 28.343-.368 4.959-1.102 14.693-7.163 17.447-.49.184-2.633.735-5.02-.367-4.531-2.081-4.653-10.04-4.714-23.997-.062-22.65-1.102-31.65-2.572-36.547-13.836-3.795-22.958-5.203-30.794-3.367-11.571 2.755-27.489 9.734-35.937 3.245-4.898-3.796-2.633-9.305-4.776-9.244-4.407.061-4.53 25.221-11.57 53.259-10.775 43.097-9.673 39.73-9.184 51.3.062 2.02.245 3.979.49 5.877 44.998 22.161 75.18 11.142 85.894 13.59 1.959.429 9.061 2.082 9.306 4.898.306 4.101-13.775 8.264-16.775 9.182-18.244 5.387-51.548 8.632-72.303-4.958 7.408 17.447 19.775 31.955 31.162 45.239 19.101 22.345 36.611 42.791 64.834 45.913 17.142 1.898 40.161-4.53 51.487-17.385 16.53-18.794-5.265-44.016 9.612-55.647Z" fill="#9FBC50"/><path d="M197.458 376.191c-4.776-34.404-20.387-58.891-21.244-64.585-.061-.428-.674-4.468 1.347-5.754 1.959-1.224 5.571.673 6.795 1.898 27.734 27.303 13.714 71.563 20.754 96.05a32.76 32.76 0 0 1 1.47-1.959c10.04-13.223 44.936-51.974 40.345-102.233-.612-6.857-4.286-26.63-18.55-34.037-18.918-9.795-29.57-8.448-52.1.918-9.306 3.857-.367-16.773-7.959-33.975-.734-1.653-9.795-21.427-30.121-28.956-32.264-11.999-63.67 17.814-65.017 19.1-8.143 7.958-12.49 16.283-18.428 27.67-5.02 9.55-10.959 21.181-13.101 36.914-2.143 15.427 2.204 14.08-.429 28.282-2.755 14.754-8.57 22.406-4.959 33.731.429 1.347.919 2.388 1.286 3.367 6.245-5.571 14.51-11.448 23.693-15.304 3.979-1.714 14.815-6.306 18.366-2.388 1.163 1.286 1.347 3.306 1.04 4.836-1.285 5.632-10.897 7.714-16.284 9.183-12.183 3.306-21.183 8.509-27.427 12.672-3 4.591-9.857 6.122-13.102 12.427-7.408 14.325 11.142 38.567 13.224 41.261 5.02 6.427 6.55 5.938 9.55 11.386 5.266 9.55 4.286 17.753 11.51 22.528 1.653 1.102 5.143 3.367 4.47 1.837-.858-1.898-.98-13.774 7.285-20.386 7.408-5.938 53.446 10.836 95.689-1.653 2.021-12.182 5.204-32.935.184-59.013-1.776-9.122-5.694-25.038 1.837-31.16 2.02-1.653 5.203-2.816 7.958-2.02 8.51 2.449 9.551 22.161 9.918 29.323 1.163 22.222-4.102 44.75-9.734 59.258 8.632-3.673 17.02-8.815 24.672-15.855a19.217 19.217 0 0 0 2.143-2.326c-1.408-6.612-3.061-16.406-5.081-31.037Z" fill="#7CA417"/><path d="M81.932 366.946c9.49-20.508 21.061-40.22 35.203-58.034 7.04-8.938 14.754-17.386 23.264-25.038 8.51-7.652 17.754-14.57 28.039-20.018 5.143-2.694 10.531-5.02 16.163-6.673 5.632-1.653 11.571-2.693 17.632-2.632 1.53 0 3.061.122 4.53.306 1.531.184 3.061.428 4.469.734 2.878.613 5.755 1.347 8.633 2.327 5.632 1.897 11.081 4.591 15.978 7.958 9.918 6.734 17.755 16.161 23.571 26.385 5.877 10.223 9.918 21.303 12.856 32.445 3 11.203 4.898 22.589 6.184 34.037.551 4.897.979 9.795 1.285 14.753h-11.02c-.183-4.591-.428-9.121-.857-13.713-.918-11.019-2.449-21.977-4.959-32.69-2.51-10.651-6.06-21.12-11.142-30.608-5.081-9.489-11.754-19.223-20.387-25.406-4.285-3.122-9.061-4.468-14.081-6.366a68.722 68.722 0 0 0-7.652-2.326 47.486 47.486 0 0 0-3.857-.735 40.919 40.919 0 0 0-3.857-.367c-5.204-.245-10.592.489-15.795 1.897-5.204 1.347-10.286 3.367-15.245 5.816-9.856 4.836-18.978 11.264-27.488 18.488-8.449 7.223-16.285 15.304-23.448 23.875-14.387 17.14-26.448 36.301-36.427 56.442-10.04 20.14-18.06 41.322-24.305 62.993 5.755-21.916 13.224-43.342 22.713-63.85Z" fill="#9FBC50"/><path d="M74.953 74.144c3.673 4.592 7.592 9.06 11.571 13.407 8.02 8.693 16.346 16.957 24.917 25.099 17.081 16.223 34.835 31.833 52.712 47.199 8.938 7.652 17.999 15.243 26.999 22.834l13.591 11.386c2.265 1.898 4.53 3.796 6.795 5.755 1.102.979 2.266 2.02 3.368 3.061 1.102 1.101 2.142 2.142 3.183 3.305a53.774 53.774 0 0 1 5.632 7.285 68.674 68.674 0 0 1 4.592 7.958c2.755 5.449 4.775 11.203 6.612 16.896.918 2.878 1.775 5.694 2.51 8.632.796 3 1.347 5.999 1.898 8.938.98 5.938 1.714 11.815 2.388 17.692 1.347 11.753 2.51 23.507 3.918 35.2 1.408 11.692 3 23.323 4.959 34.832 3.489 20.569 8.081 40.893 14.57 60.605h-9.917c-5.755-19.467-9.796-39.362-12.796-59.319-1.775-11.754-3.122-23.569-4.285-35.323-1.163-11.753-2.143-23.568-3.245-35.261-.551-5.877-1.163-11.692-2.02-17.386-.429-2.877-.919-5.693-1.592-8.386-.673-2.755-1.469-5.632-2.265-8.387-1.653-5.571-3.49-11.019-5.939-16.161-1.163-2.572-2.571-5.082-4.04-7.469-1.47-2.387-3.184-4.653-5.021-6.795-.918-1.102-1.897-2.082-2.877-3.122-1.041-.98-2.02-2.02-3.061-3a633.817 633.817 0 0 0-6.551-5.877l-13.285-11.692a2365.644 2365.644 0 0 1-26.509-23.569c-17.57-15.794-34.896-31.894-51.61-48.607-8.326-8.386-16.53-16.895-24.366-25.772-3.857-4.469-7.652-8.999-11.264-13.713-3.551-4.713-6.98-9.61-9.612-14.876 2.877 5.265 6.428 9.979 10.04 14.631Z" fill="#7CA417"/><path d="M218.518 605.756c-11.02-17.692 8.755-27.119-5.816-64.156-4.775-12.121-16.836-27.425-32.019-37.832-11.387-7.775-17.693-5.877-20.387-11.632-8.938-19.161 32.693-63.115 37.835-66.91 23.387-17.263 58.283-29.752 84.364-32.078 4.163-.367 47.14-3.734 58.221 17.447 6.551 12.611-2.938 26.201-14.57 55.279-9.796 24.548-6.061 52.586 5.816 78.542 6.612 14.447 21.55 26.201 31.59 38.077 9.367 11.081 2.388 31.099-31.407 40.587-37.161 10.469-94.526 13.346-113.627-17.324Z" fill="#F2A878"/><path d="M121.359 395.23c.735-1.347 2.511-3.918 2.511-7.469 0-3.979-2.204-9.305-2.511-9.917-5.326-11.386-.918-42.607 10.959-72.297H368.45c4.408 8.937 7.591 18.916 8.693 30.057.613 6.244 4.408 31.037-9.918 52.157-47.201 69.543-99.485-17.875-115.892-12.427-6.428 2.143-7.592 20.447-9.918 57.116-1.53 24.426-.184 30.548-4.959 42.24-7.959 19.528-26.509 30.18-33.121 34.772 0 0-25.101 17.508-52.161 14.875-5.754-.551-9.611-2.203-12.428-4.958-3.918-3.918-4.101-9.122-4.959-12.427-6.183-23.569-11.203-31.038-14.876-52.158-.429-2.571-1.225-6.183-2.51-7.468-3.49-3.489-8.449-3.245-12.428-4.959-8.694-3.734-1.164-15.426 0-17.385 3.734-6.183 8.693-13.652 17.386-29.752Z" fill="#FFB383"/><path d="M435.426 447.937c-4.898 54.729-97.403 63.483-99.424-8.019-1.959-71.563 107.322-79.827 99.424 8.019Zm-292.7-142.391c.183.429.306.919.49 1.347 3.306 8.571 8.571 16.223 14.57 23.202 12.122 14.08 27.305 24.854 42.733 35.995 7.653 5.694 15.244 11.693 22.162 18.549 6.796 6.979 13.04 14.631 17.693 23.202 2.449 4.224 4.469 8.631 6.306 13.161 1.714 4.53 3.306 9.122 4.469 13.774 2.388 9.305 3.918 18.794 4.408 28.283-4.347-18.488-10.285-36.547-20.325-52.035-5.021-7.713-10.898-14.815-17.632-21.12-6.673-6.367-14.02-12.06-21.673-17.631-7.53-5.693-15.305-11.203-22.652-17.508-7.285-6.305-14.203-13.162-20.08-20.936-5.939-7.714-10.898-16.345-13.53-25.834a36.947 36.947 0 0 1-.612-2.51h3.673v.061Z" fill="#1E1735"/><path d="M362.389 407.411c2.081-3 4.346-5.755 6.428-8.571 2.143-2.816 4.102-5.693 5.877-8.754 7.041-12.06 10.592-25.833 11.326-39.607.674-13.835-1.102-27.915-5.816-40.71a84.081 84.081 0 0 0-1.592-4.163h7.898c.184.551.429 1.163.612 1.776a105.65 105.65 0 0 1 4.959 43.586c-.673 7.285-2.081 14.57-4.469 21.549-2.388 6.917-5.571 13.651-9.673 19.712-4.102 6.06-9.244 11.264-13.775 16.59-2.265 2.693-4.285 5.571-5.816 8.754-1.592 3.122-2.632 6.55-3.428 10.04.428-3.551 1.102-7.102 2.387-10.469 1.164-3.55 3-6.734 5.082-9.733Z" fill="#1E1735"/><path d="M377.633 305.547c1.836 4.774 3.428 9.794 4.469 15.181 1.102 5.388 7.285 36.057-7.469 64.585-9.979 19.222-21.672 22.467-24.856 42.179-1.531 9.733-.429 19.773-7.469 32.261-2.816 5.02-5.388 9.366-9.918 12.427-22.346 14.876-48.12-4.224-64.589-24.854-11.816-14.815-10.958-15.672-12.428-22.344-2.632-11.815-.489-7.591-2.51-13.407-7.959-23.63-44.692-40.648-81.914-71.012-14.632-11.938-22.591-23.079-27.305-34.772-.061-.061-.061-.183-.123-.244h234.112Z" fill="#1E1735"/><path d="M465.67 297.22c-4.164 1.775-12.918-5.326-14.877-7.285-6.49-6.612-11.632-16.713-16.714-28.283-9.979-.979-15.673 2.388-24.06 3.245-16.591 1.653-15.06-5.02-14.877-5.571 2.816-8.142 23.571-11.019 34.101-8.999-2.694-6.428-5.51-13.039-8.51-19.651a47.18 47.18 0 0 0-2.51-4.53 25.4 25.4 0 0 0-2.388-.306c-23.509-1.898-30.366 6.856-44.385 11.387-21.612 6.978-21.55-2.327-21.428-3.123 1.469-11.937 29.692-22.038 44.018-21.793 2.449.061 7.286.123 12.734 1.347-31.651-25.773-97.036-32.507-98.199 16.406-.245 11.203-11.387 4.04-22.836 15.733-9.734 9.917-6.55 26.262-5.755 31.527 4.041 26.446 27.06 51.79 55.59 60.911 27.182 8.693 57.854 2.082 76.955-11.264 6.673-4.652 25.101-24.487 33.856-23.875 10.591.674 16.713-1.04 20.142-2.632 2.755-1.469 2.142-4.53-.857-3.244Zm-37.774-23.63c-.061.367-.368.734-1.898 1.285-1.286.49-9.183 3.306-15.122-1.285-1.041-.796-2.081-1.592-1.959-2.51.245-1.837 5.388-3 9.612-2.51 4.898.551 9.673 3.367 9.367 5.02Z" fill="#9FBC50"/><path d="M228.803 380.965c46.59 41.751 10.53 108.967 73.282 141.168 37.774 19.344 12.796 49.525 71.507 69.665 155.258 53.137 45.672-98.988 24.305-121.333-32.998-34.649-206.194-122.741-169.094-89.5Z" fill="#1E1735"/><path d="M225.987 391.679c2.632-5.51 5.816-9.978 11.02-12.182.979-.429 6.183-2.633 11.571-.551 6.734 2.571 9.55 9.917 10.53 13.774 6.673 26.507-4.898 45.851-16.469 55.769-1.347 1.163-9.918 7.162-16.591-.551-10.591-12.366-8.02-39.547-.061-56.259Z" fill="#EB9E6C"/><path d="M173.579 232.575c-.489-5.081 1.531-9.305 4.776-12.304a16.36 16.36 0 0 1-5.204 1.775c-6.428 1.163-17.448-.918-19.775-11.57-.918-9.428 6.429-14.08 9.612-15.611 4.163-2.02 8.081-2.142 11.265-1.591-4.041-1.776-7.285-5.081-8.326-10.04-1.592-15.917 17.693-22.344 27.856-15.794a13.729 13.729 0 0 1 5.448 6.55c.061-12.366 16.04-20.997 27.856-13.957 8.877 5.326 9.122 16.283 2.633 23.017.245-.183.489-.306.796-.428 3.061-1.408 4.836-1.653 7.04-1.959.245-.061 6-.735 11.326 2.693 12.122 7.775 8.204 25.161-6.49 28.65-3.428.796-6.122.49-7.285.367-.367-.061-.735-.183-1.102-.306l1.653.919c11.755 7.774 7.775 24.854-6.612 28.098-3.857.857-9.795 1.041-15.856-3.367-.735-.55-3.061-2.632-4.347-5.264-.428-.918-.612-1.837-.735-2.816 0 6.917-5.326 13.835-14.264 15.427-4.775.918-17.571.244-20.265-12.489Z" fill="#fff"/><path d="M206.58 212.557c9.979-2.387 12.672-14.018 4.469-19.099-7.775-4.837-20.203.612-19.163 10.774 1.653 7.774 9.612 9.55 14.694 8.325Z" fill="#FFBCB0"/><path d="M173.214 222.106c12.611-2.326 19.774-17.324 8.999-25.711-.061-.061-8.877-6.55-19.162-1.53-3.183 1.591-10.469 6.183-9.612 15.61 2.327 10.713 13.347 12.795 19.775 11.631Zm69.242-10.038c14.693-3.489 18.611-20.936 6.489-28.65-5.326-3.428-11.081-2.754-11.326-2.693-2.204.306-3.979.489-7.04 1.959-1.959.918-3.368 2.693-5.204 3.795-.061.061-5.265 4.102-4.408 12.978.979 4.408 2.694 7.836 8.142 11.019.857.49 1.898.429 2.755.735 1.163.367 2.143 1.102 3.367 1.286 1.041.061 3.735.428 7.225-.429Z" fill="#AE9AE3"/><path d="M186.622 194.192c6.489-1.592 11.509-6.183 13.04-11.999.551-2.02.551-2.02-.184-5.387-.183-.918.123-1.898-.245-2.816-1.347-3.367-3.673-5.387-5.448-6.55-10.163-6.551-29.509-.123-27.856 15.794 2.081 9.55 12.122 13.039 20.693 10.958Zm42.426 47.015c14.387-3.244 18.366-20.385 6.612-28.099-10.285-6.795-26.631-1.469-28.223 12.55.734 2.265.428 4.775 1.469 6.979 1.225 2.632 3.612 4.713 4.347 5.264 6 4.286 11.938 4.163 15.795 3.306Z" fill="#AE9AE3"/><path d="M193.785 245.187c14.08-2.449 19.284-18.243 8.632-26.385-10.653-8.203-30.305-1.102-28.836 13.774 2.694 12.733 15.489 13.406 20.204 12.611Zm27.978-57.3c13.775-4.224 17.019-20.937 5.326-27.854-12.612-7.53-29.937 2.816-27.672 16.467 1.959 10.162 13.346 14.141 22.346 11.387Z" fill="#AE9AE3"/><path d="M210.131 320.789c-.49-5.387 1.591-9.795 5.02-12.917a19.799 19.799 0 0 1-5.449 1.898c-6.734 1.224-18.367-.979-20.815-12.182-.98-9.917 6.734-14.815 10.101-16.468 4.347-2.142 8.51-2.265 11.877-1.714-4.285-1.836-7.653-5.387-8.816-10.59-1.714-16.774 18.673-23.508 29.325-16.59 1.837 1.163 4.347 3.367 5.755 6.917.061-13.039 16.836-22.099 29.325-14.692 9.367 5.571 9.612 17.141 2.755 24.242.245-.183.551-.306.857-.428 3.245-1.531 5.082-1.714 7.408-2.02.245-.062 6.306-.735 11.939 2.816 12.795 8.141 8.632 26.507-6.796 30.18-3.612.857-6.49.489-7.653.367-.428-.061-.796-.184-1.163-.306a15.62 15.62 0 0 1 1.714.979c12.367 8.142 8.143 26.14-6.979 29.568-4.102.919-10.285 1.102-16.652-3.489-.796-.551-3.245-2.755-4.592-5.51-.429-.918-.673-1.959-.796-2.938 0 7.285-5.632 14.57-15.06 16.223-5.021.795-18.489.122-21.305-13.346Z" fill="#fff"/><path d="M244.782 299.731c10.469-2.51 13.346-14.754 4.714-20.141-8.204-5.081-21.244.612-20.203 11.325 1.775 8.265 10.163 10.162 15.489 8.816Z" fill="gold"/><path d="M209.641 309.769c13.224-2.448 20.754-18.181 9.428-27.058-.061-.061-9.367-6.917-20.142-1.591-3.367 1.652-11.02 6.55-10.102 16.467 2.51 11.203 14.081 13.468 20.816 12.182Zm72.915-10.528c15.428-3.673 19.591-21.977 6.795-30.18-5.632-3.612-11.693-2.877-11.938-2.816-2.326.306-4.163.551-7.408 2.02-2.081.98-3.551 2.877-5.51 3.979-.061.062-5.51 4.286-4.653 13.652 1.041 4.652 2.817 8.203 8.572 11.57.918.551 1.959.428 2.938.735 1.225.367 2.265 1.163 3.551 1.346 1.163.245 3.979.551 7.653-.306Z" fill="#D5C7F4"/><path d="M223.783 280.447c6.857-1.653 12.061-6.49 13.714-12.611.551-2.082.551-2.082-.184-5.693-.184-.98.122-2.021-.306-3-1.408-3.551-3.918-5.693-5.755-6.918-10.714-6.917-31.039-.122-29.325 16.59 2.265 10.101 12.856 13.835 21.856 11.632Zm44.692 49.403c15.121-3.428 19.346-21.426 6.979-29.568-10.836-7.162-28.04-1.53-29.754 13.223.796 2.388.429 5.02 1.531 7.346 1.347 2.755 3.795 4.959 4.591 5.51 6.367 4.591 12.551 4.469 16.653 3.489Z" fill="#D5C7F4"/><path d="M231.374 334.073c14.816-2.571 20.265-19.161 9.122-27.793-11.203-8.631-31.835-1.163-30.366 14.509 2.817 13.468 16.285 14.141 21.244 13.284Zm29.387-60.299c14.509-4.469 17.876-21.977 5.632-29.323-13.285-7.897-31.468 2.938-29.08 17.324 2.02 10.713 14.02 14.937 23.448 11.999Z" fill="#D5C7F4"/><path d="M278.515 194.314c-.429 4.347 1.286 7.959 4.041 10.469-1.347-.735-2.817-1.225-4.408-1.531-5.449-.979-14.877.796-16.836 9.856-.796 8.02 5.448 11.999 8.203 13.346 3.551 1.714 6.857 1.836 9.612 1.407-3.428 1.531-6.183 4.347-7.102 8.571-1.346 13.59 15.122 19.039 23.754 13.468 1.47-.98 3.49-2.694 4.653-5.571.062 10.591 13.653 17.937 23.754 11.937 7.592-4.53 7.775-13.896 2.204-19.65.245.122.429.244.674.367 2.632 1.224 4.102 1.408 5.999 1.653.184 0 5.143.612 9.673-2.327 10.347-6.611 7.041-21.487-5.51-24.425a17.687 17.687 0 0 0-6.244-.306c-.306.061-.674.122-.98.245.49-.245.919-.49 1.408-.796 10.041-6.612 6.612-21.181-5.632-23.997-3.306-.735-8.326-.858-13.53 2.877-.612.428-2.632 2.204-3.734 4.469-.368.795-.551 1.591-.674 2.387 0-5.938-4.53-11.815-12.183-13.162-3.979-.734-14.877-.122-17.142 10.713Z" fill="#fff"/><path d="M306.616 211.392c8.51 2.081 10.836 11.937 3.796 16.283-6.673 4.163-17.203-.489-16.346-9.182 1.408-6.612 8.203-8.142 12.55-7.101Z" fill="gold"/><path d="M278.148 203.252c10.714 1.959 16.836 14.753 7.653 21.915-.062.062-7.592 5.632-16.347 1.286-2.693-1.347-8.938-5.326-8.203-13.345 2.02-9.061 11.387-10.836 16.897-9.856Zm59.079 8.569c12.55 3 15.856 17.815 5.51 24.426-4.592 2.939-9.49 2.326-9.673 2.326-1.898-.244-3.367-.428-6-1.652-1.714-.796-2.877-2.327-4.469-3.245-.061 0-4.469-3.489-3.796-11.08.857-3.796 2.265-6.673 6.979-9.367.735-.428 1.592-.367 2.388-.612.98-.306 1.837-.979 2.877-1.102.919-.122 3.245-.367 6.184.306Z" fill="#FFBCB0"/><path d="M289.596 227.064c5.51 1.347 9.796 5.265 11.143 10.224.428 1.714.428 1.714-.123 4.591-.183.796.062 1.653-.245 2.388-1.163 2.877-3.183 4.591-4.652 5.57-8.694 5.632-25.162.123-23.754-13.467 1.714-8.081 10.346-11.081 17.631-9.306Zm36.182-40.096c12.245 2.816 15.673 17.386 5.633 23.997-8.816 5.816-22.714 1.225-24.122-10.713.613-1.959.368-4.04 1.225-5.938 1.041-2.265 3.061-4.04 3.734-4.469 5.204-3.734 10.224-3.612 13.53-2.877Z" fill="#FFBCB0"/><path d="M295.719 183.6c11.999 2.082 16.407 15.55 7.346 22.528-9.061 6.979-25.835.919-24.611-11.753 2.327-10.897 13.224-11.509 17.265-10.775Zm23.815 48.853c11.754 3.612 14.509 17.814 4.53 23.752-10.775 6.428-25.529-2.387-23.57-14.018 1.714-8.693 11.387-12.122 19.04-9.734Z" fill="#FFBCB0"/><path d="M473.996 136.22c-.245 2.449.735 4.469 2.265 5.877-.734-.429-1.592-.674-2.449-.857-3.061-.551-8.326.428-9.428 5.509-.428 4.53 3.061 6.734 4.592 7.469 1.959.979 3.857 1.041 5.387.796-1.959.857-3.489 2.448-3.979 4.775-.796 7.591 8.448 10.651 13.346 7.529.857-.551 1.959-1.53 2.572-3.122 0 5.938 7.652 10.04 13.285 6.673 4.224-2.51 4.346-7.775 1.224-11.019l.367.184c1.47.673 2.327.795 3.368.918.122 0 2.877.367 5.448-1.286 5.816-3.734 3.918-11.998-3.061-13.713a10.444 10.444 0 0 0-3.489-.183c-.184 0-.368.061-.551.122.244-.122.551-.306.795-.428 5.633-3.735 3.674-11.876-3.183-13.407-1.837-.428-4.653-.49-7.592 1.592-.367.245-1.469 1.224-2.081 2.51a4.84 4.84 0 0 0-.367 1.346c0-3.305-2.572-6.611-6.796-7.346-2.265-.367-8.387-.061-9.673 6.061Z" fill="#fff"/><path d="M489.73 145.769c4.775 1.163 6.061 6.673 2.143 9.122-3.735 2.326-9.612-.306-9.184-5.143.796-3.734 4.592-4.591 7.041-3.979Z" fill="gold"/><path d="M473.751 141.177c6 1.102 9.428 8.265 4.286 12.244-.062.061-4.225 3.122-9.122.734-1.531-.734-5.021-2.938-4.592-7.468 1.102-5.02 6.367-6.061 9.428-5.51Zm33.121 4.838c7.041 1.653 8.877 9.978 3.061 13.713-2.571 1.653-5.326 1.285-5.448 1.285-1.041-.122-1.898-.245-3.368-.918-.918-.428-1.591-1.286-2.51-1.775 0 0-2.51-1.959-2.081-6.183.49-2.143 1.286-3.734 3.918-5.265.429-.245.918-.184 1.347-.367.551-.184 1.041-.551 1.592-.612.551-.123 1.836-.306 3.489.122Z" fill="#FFBCB0"/><path d="M480.179 154.523c3.123.735 5.51 2.939 6.245 5.694.245.979.245.979-.061 2.571-.061.428.061.918-.123 1.347-.612 1.591-1.775 2.571-2.571 3.122-4.836 3.122-14.081.061-13.346-7.53.979-4.53 5.755-6.183 9.856-5.204Zm20.265-22.404c6.857 1.592 8.755 9.733 3.183 13.407-4.897 3.244-12.734.673-13.468-6 .367-1.102.183-2.265.673-3.306.612-1.285 1.714-2.265 2.082-2.509 2.877-2.082 5.693-2.021 7.53-1.592Z" fill="#FFBCB0"/><path d="M483.608 130.159c6.734 1.163 9.183 8.693 4.102 12.611-5.082 3.918-14.449.49-13.775-6.611 1.347-6.061 7.469-6.367 9.673-6Zm13.346 27.364c6.612 2.021 8.143 9.979 2.572 13.285-6 3.611-14.326-1.347-13.224-7.836.918-4.836 6.367-6.734 10.652-5.449Z" fill="#FFBCB0"/><path d="M267.067 166.46c.49-2.632 2.081-4.408 4.102-5.387-.919.183-1.837.245-2.816.183-3.368-.306-8.51-2.938-8.143-8.57.918-4.775 5.204-6.061 6.979-6.367 2.327-.428 4.286.062 5.816.796-1.775-1.469-2.877-3.55-2.693-6.183 1.469-8.142 11.938-8.57 16.04-3.856.734.795 1.591 2.142 1.775 4.04 1.776-6.122 10.959-8.142 15.795-2.939 3.674 3.918 2.204 9.367-1.959 11.815.123-.061.306-.061.429-.122 1.714-.245 2.632-.122 3.795.061.123 0 3.062.49 5.266 2.939 4.897 5.57.489 13.651-7.286 13.284a9.58 9.58 0 0 1-3.673-.857 1.338 1.338 0 0 1-.49-.306c.245.245.49.428.674.673 4.714 5.51.306 13.407-7.286 12.978-2.02-.122-4.959-.857-7.408-3.918-.306-.367-1.163-1.714-1.408-3.244a6.421 6.421 0 0 1 0-1.531c-.979 3.428-4.591 6.122-9.244 5.632-2.51-.306-8.755-2.448-8.265-9.121Z" fill="#fff"/><path d="M286.229 161.196c5.265.245 8.265-5.142 4.959-8.815-3.183-3.49-10.102-2.572-11.02 2.632-.306 4.101 3.367 6.06 6.061 6.183Z" fill="gold"/><path d="M199.417 96.306c0-2.878-1.347-5.143-3.368-6.612.919.367 1.959.612 3 .735 3.674.306 9.734-1.53 10.408-7.591-.061-5.326-4.408-7.53-6.245-8.203-2.449-.919-4.653-.735-6.367-.245 2.143-1.225 3.796-3.245 4.102-6.122 0-8.999-11.203-11.509-16.53-7.224-.918.735-2.143 2.02-2.693 3.98-.735-6.918-10.163-10.836-16.408-6.245-4.653 3.49-4.163 9.611-.122 13.04a4.238 4.238 0 0 0-.49-.184c-1.776-.612-2.816-.673-4.041-.673-.122 0-3.367-.062-6.183 2.142-6.367 5.02-3.184 14.57 5.265 15.672 1.959.245 3.49-.061 4.102-.245.245-.061.428-.122.612-.245-.306.184-.612.367-.857.612-6.122 5.02-2.939 14.325 5.326 15.366 2.204.245 5.51 0 8.694-2.755.367-.306 1.591-1.653 2.142-3.183.184-.551.245-1.04.245-1.592.368 3.857 3.796 7.469 8.877 7.836 2.633.184 9.735-.918 10.531-8.264Z" fill="#fff"/><path d="M179.826 87c-5.694-.796-7.898-7.102-3.612-10.469 4.101-3.183 11.326-.796 11.326 4.959-.429 4.469-4.776 5.938-7.714 5.51Z" fill="#FFBCB0"/><path d="M199.049 90.428c-7.163-.55-12.06-8.57-6.489-13.896.061-.061 4.591-4.163 10.652-1.959 1.898.674 6.245 2.877 6.245 8.203-.673 6.183-6.734 7.959-10.408 7.652Zm-39.365-1.653c-8.449-1.102-11.632-10.652-5.265-15.672 2.816-2.204 6.061-2.143 6.183-2.143 1.286.062 2.265.062 4.041.674 1.163.428 2.02 1.347 3.122 1.836.061 0 3.184 2.02 3.184 7.04-.306 2.51-1.041 4.53-3.919 6.612-.428.306-1.04.367-1.53.55-.612.246-1.163.735-1.837.919-.489.122-1.959.428-3.979.184Z" fill="gold"/><path d="M189.927 75.613c-3.734-.55-6.795-2.816-7.959-5.938-.428-1.102-.428-1.102-.244-3.06.061-.552-.184-1.042 0-1.593.551-1.959 1.775-3.244 2.693-3.979 5.327-4.285 16.53-1.775 16.53 7.224-.673 5.448-6.122 8.02-11.02 7.346Zm-21.06 28.71c-8.204-1.041-11.448-10.346-5.326-15.365 5.387-4.408 14.815-2.327 16.53 5.448-.306 1.285.061 2.693-.429 3.979-.551 1.53-1.775 2.877-2.143 3.183-3.122 2.755-6.428 3-8.632 2.755Z" fill="gold"/><path d="M188.825 104.569c-8.02-.55-11.816-9.12-6.367-14.324 5.51-5.204 16.897-2.327 16.958 6.06-.795 7.346-7.897 8.448-10.591 8.264Zm-18.917-30.486c-7.959-1.592-10.714-10.713-4.592-15.305 6.612-4.897 16.897-.122 16.408 7.652-.49 5.755-6.612 8.632-11.816 7.653Z" fill="gold"/><path d="M299.514 356.479c.306 1.653 4.347 2.877 5.388 3.061 3.428.612 7.591.061 12.244-.796 2.388 2.877 2.571 5.326 4.041 8.142 3 5.448 4.714 3.612 4.836 3.428 1.898-2.571-1.592-9.611-4.408-12.427 2.572-.49 5.204-1.041 7.898-1.53a10.09 10.09 0 0 1 1.959-.184c.184.184.429.428.612.673 5.51 6.857 4.286 10.836 5.816 16.1 2.388 8.142 5.265 6.183 5.449 6 3.367-3 .551-13.835-2.51-18.182-.551-.734-1.592-2.204-3.122-3.673 14.632 4.347 30.488 23.14 15.611 33.792-3.428 2.449 1.163 4.347-.061 10.346-1.041 5.081-6.735 7.53-8.51 8.387-9 4.285-21.734 2.571-30.549-4.347-8.449-6.55-12.857-17.447-12.735-26.14.062-3.061 2.266-12.916.245-15.488-2.449-3.122-3.183-5.387-3.428-6.795-.061-1.102 1.041-1.591 1.224-.367Zm15.306 6.673c-.123.122-.123.245 0 .857.122.489.918 3.55 3.551 4.407.428.123.918.306 1.163.062.49-.49-.184-2.265-1.225-3.49-1.163-1.408-3.061-2.265-3.489-1.836Z" fill="#7CA417"/><path d="M341.145 413.473c-.306-2.877.857-5.265 2.694-6.918-.919.49-1.898.796-2.939 1.041-3.612.673-9.857-.551-11.142-6.55-.49-5.326 3.612-7.959 5.387-8.816 2.327-1.163 4.531-1.224 6.367-.918-2.265-.979-4.102-2.877-4.714-5.693-.918-8.999 9.979-12.611 15.734-8.877.98.613 2.326 1.776 3.061 3.674.061-6.979 9.061-11.877 15.734-7.898 5.02 3 5.143 9.183 1.469 12.979.123-.062.307-.184.429-.245 1.714-.796 2.755-.919 3.979-1.102.123 0 3.368-.429 6.429 1.53 6.856 4.347 4.652 14.203-3.674 16.162-1.959.489-3.489.306-4.102.183-.244 0-.428-.122-.612-.183.306.183.612.306.919.551 6.612 4.407 4.346 14.018-3.735 15.855-2.204.49-5.51.551-8.938-1.898-.429-.306-1.714-1.469-2.449-2.938-.245-.49-.367-1.041-.429-1.592 0 3.918-3 7.836-8.081 8.693-2.632.49-9.857.122-11.387-7.04Z" fill="#fff"/><path d="M359.756 402.146c5.633-1.346 7.163-7.897 2.51-10.774-4.408-2.755-11.387.306-10.836 6.061.98 4.407 5.449 5.448 8.326 4.713Z" fill="gold"/><path d="M340.9 407.534c7.102-1.285 11.142-9.733 5.081-14.508-.061-.062-5.02-3.735-10.775-.857-1.775.857-5.938 3.489-5.387 8.815 1.224 6.061 7.469 7.224 11.081 6.55Zm39.059-5.632c8.265-1.959 10.469-11.815 3.674-16.161-3-1.898-6.245-1.53-6.429-1.53-1.224.183-2.265.306-3.979 1.102-1.102.55-1.898 1.53-2.939 2.142 0 0-2.938 2.326-2.51 7.346.551 2.51 1.531 4.408 4.592 6.183.49.306 1.041.245 1.592.429.673.183 1.224.612 1.898.734.612 0 2.142.184 4.101-.245Z" fill="#AE9AE3"/><path d="M348.491 391.803c3.674-.919 6.49-3.49 7.347-6.734.306-1.102.306-1.102-.061-3.061-.123-.551.061-1.102-.123-1.592-.734-1.898-2.081-3.061-3.061-3.673-5.755-3.734-16.652-.061-15.734 8.877 1.102 5.387 6.796 7.346 11.632 6.183Zm23.938 26.505c8.081-1.836 10.347-11.509 3.735-15.855-5.816-3.857-15.061-.796-15.918 7.101.429 1.286.245 2.694.796 3.918.735 1.469 2.02 2.694 2.449 2.938 3.428 2.449 6.734 2.388 8.938 1.898Z" fill="#AE9AE3"/><path d="M352.532 420.574c7.959-1.346 10.897-10.284 4.898-14.875-6-4.653-17.081-.613-16.285 7.774 1.53 7.163 8.754 7.53 11.387 7.101Zm15.795-32.323c7.775-2.388 9.612-11.815 3-15.733-7.102-4.224-16.897 1.592-15.611 9.305 1.102 5.755 7.53 7.958 12.611 6.428Z" fill="#AE9AE3"/></svg>