<svg width="136" height="230" fill="none" xmlns="http://www.w3.org/2000/svg"><path d="M6.16 117.709v26.839c0 11.804 9.688 21.492 21.492 21.492h23.72c11.805 0 21.493-9.688 21.493-21.492v-26.839H6.16Z" fill="#ECC742"/><path d="M70.192 134.525c-2.227 0-3.452-.779-4.454-1.336-.89-.557-1.67-1.003-3.23-1.003-1.559 0-2.338.446-3.229 1.003-1.002.668-2.227 1.336-4.454 1.336-2.228 0-3.453-.779-4.455-1.336-.89-.557-1.67-1.003-3.23-1.003-1.558 0-2.338.446-3.229 1.003-1.002.668-2.227 1.336-4.454 1.336s-3.453-.779-4.455-1.336c-.89-.557-1.67-1.003-3.23-1.003-1.558 0-2.338.446-3.229 1.003-1.002.668-2.227 1.336-4.454 1.336s-3.452-.779-4.455-1.336c-.89-.557-1.67-1.003-3.23-1.003-1.558 0-2.338.446-3.229 1.003-1.002.668-2.227 1.336-4.454 1.336s-3.452-.779-4.455-1.336c-.89-.557-1.67-1.003-3.23-1.003v-2.338c2.228 0 3.453.779 4.455 1.336.891.557 1.67 1.002 3.23 1.002 1.559 0 2.338-.445 3.23-1.002 1.002-.668 2.227-1.336 4.454-1.336s3.452.779 4.454 1.336c.891.557 1.67 1.002 3.23 1.002 1.559 0 2.338-.445 3.23-1.002 1.002-.668 2.227-1.336 4.454-1.336s3.452.779 4.454 1.336c.891.557 1.67 1.002 3.23 1.002 1.559 0 2.338-.445 3.23-1.002 1.001-.668 2.226-1.336 4.454-1.336 2.227 0 3.452.779 4.454 1.336.891.557 1.67 1.002 3.23 1.002 1.559 0 2.338-.445 3.23-1.002 1.001-.668 2.226-1.336 4.453-1.336 2.228 0 3.453.779 4.455 1.336.89.557 1.67 1.002 3.23 1.002 1.559 0 2.338-.445 3.229-1.002 1.002-.668 2.227-1.336 4.454-1.336v2.338c-1.559 0-2.338.446-3.229 1.003-1.002.557-2.227 1.336-4.455 1.336Zm0 11.916c-2.227 0-3.452-.78-4.454-1.337-.89-.557-1.67-1.002-3.23-1.002-1.559 0-2.338.445-3.229 1.002-1.002.668-2.227 1.337-4.455 1.337-2.227 0-3.452-.78-4.454-1.337-.89-.557-1.67-1.002-3.23-1.002-1.559 0-2.338.445-3.229 1.002-1.002.668-2.227 1.337-4.454 1.337-2.228 0-3.453-.78-4.455-1.337-.89-.557-1.67-1.002-3.23-1.002-1.558 0-2.338.445-3.229 1.002-1.002.668-2.227 1.337-4.454 1.337s-3.452-.78-4.455-1.337c-.89-.557-1.67-1.002-3.23-1.002-1.558 0-2.338.445-3.229 1.002-1.002.668-2.227 1.337-4.454 1.337s-3.452-.78-4.455-1.337c-.89-.557-1.67-1.002-3.23-1.002v-2.339c2.228 0 3.453.78 4.455 1.337.891.557 1.67 1.002 3.23 1.002 1.559 0 2.338-.445 3.23-1.002 1.002-.668 2.226-1.337 4.454-1.337 2.227 0 3.452.78 4.454 1.337.891.557 1.67 1.002 3.23 1.002 1.559 0 2.338-.445 3.23-1.002 1.002-.668 2.227-1.337 4.454-1.337s3.452.78 4.454 1.337c.891.557 1.67 1.002 3.23 1.002 1.559 0 2.338-.445 3.23-1.002 1.001-.668 2.226-1.337 4.454-1.337 2.227 0 3.452.78 4.454 1.337.89.557 1.67 1.002 3.23 1.002 1.559 0 2.338-.445 3.229-1.002 1.002-.668 2.227-1.337 4.454-1.337 2.228 0 3.453.78 4.455 1.337.89.557 1.67 1.002 3.23 1.002 1.558 0 2.338-.445 3.229-1.002 1.002-.668 2.227-1.337 4.454-1.337v2.339c-1.559 0-2.338.445-3.23 1.002-1.001.557-2.226 1.337-4.454 1.337Z" fill="#fff"/><path opacity=".1" d="M57.497 117.709v26.839c0 11.804-9.688 21.492-21.492 21.492H51.26c11.804 0 21.493-9.688 21.493-21.492v-26.839H57.497Z" fill="#482C80"/><path d="M77.876 113.7H.926v8.018h76.95V113.7Z" fill="#D4A000"/><path d="M73.756 130.739c-1.114-3.675-2.116-6.905-3.23-10.58l-7.683-26.392-9.355-32.073c-2.672-9.243-5.345-18.374-8.018-27.617-.89-3.007-1.782-6.125-2.672-9.132-.446-1.448-.78-3.007-1.226-4.343 0-.111 0-.111-.11-.223 0-.111 0-.111-.112-.223v-.11l-.111-.112c-.223-.223-.446-.223-.669-.112a.87.87 0 0 0-.445.446c-1.225 3.675-2.339 7.35-3.564 11.025-2.895 8.797-5.68 17.595-8.575 26.392L17.63 89.424c-3.007 9.242-6.014 18.374-9.02 27.617a887.523 887.523 0 0 0-3.007 9.132c-.446 1.336-1.114 2.895-1.448 4.343 0 .111 0 .111-.111.223v.445c0 .111.111.223.111.334 5.79 10.134 11.582 20.157 17.372 30.291a82.738 82.738 0 0 0 2.45 4.231c.223.446 1.003.446 1.225 0 4.677-10.134 9.355-20.268 14.143-30.401.446-1.003.891-1.894 1.337-2.896 3.897 9.577 7.795 19.154 11.693 28.843.556 1.448 1.113 2.895 1.781 4.343.223.557 1.003.779 1.225.111 5.234-10.134 10.468-20.156 15.702-30.29.668-1.336 1.448-2.784 2.116-4.12.446-.112.78-.446.557-.891Zm-30.29-98.89 7.684 26.393 9.354 32.072c2.673 9.243 5.345 18.375 8.018 27.618.891 3.007 1.782 6.125 2.673 9.132.223.779.78 2.227 1.113 3.229H41.684V25.613c.557 2.005 1.114 4.12 1.782 6.236ZM9.278 120.16c2.895-8.797 5.68-17.595 8.574-26.392L28.21 62.029c3.007-9.244 6.014-18.375 9.02-27.618a884.247 884.247 0 0 0 3.007-9.132c0-.111.111-.223.111-.334v101.228c0 1.225-.11 2.672 0 3.897H6.05a984.384 984.384 0 0 1 3.229-9.911Zm16.927 40.87c-.446 1.002-1.003 2.005-1.448 3.118-5.568-9.688-11.136-19.377-16.704-29.177-.669-1.113-1.225-2.227-1.893-3.34h33.63c-4.566 9.911-9.02 19.711-13.586 29.399Zm30.401 0c-.556 1.002-1.002 2.005-1.559 2.895-3.897-9.577-7.795-19.265-11.693-28.842-.445-1.114-.89-2.228-1.336-3.452h29.845c-5.123 9.911-10.245 19.711-15.257 29.399Z" fill="#6D3E1D"/><path d="M7.273 130.961c0 1.114-.89 2.005-2.004 2.005a1.996 1.996 0 0 1-2.005-2.005c0-1.113.891-2.004 2.005-2.004 1.113-.112 2.004.779 2.004 2.004Zm35.636 0a1.997 1.997 0 0 1-2.005 2.005 1.996 1.996 0 0 1-2.004-2.005c0-1.113.89-2.004 2.004-2.004 1.114-.112 2.005.779 2.005 2.004Zm32.072 0c0 1.114-.89 2.005-2.004 2.005a1.996 1.996 0 0 1-2.005-2.005c0-1.113.891-2.004 2.005-2.004 1.113-.112 2.004.779 2.004 2.004Zm-48.108 34.745a1.997 1.997 0 0 1-2.005 2.005 1.996 1.996 0 0 1-2.004-2.005c0-1.113.89-2.004 2.004-2.004 1.114 0 2.005.779 2.005 2.004Zm30.067 0c0 1.114-.89 2.005-2.004 2.005a1.996 1.996 0 0 1-2.005-2.005c0-1.113.891-2.004 2.005-2.004 1.114 0 2.005.779 2.005 2.004ZM41.016 23.163a3.452 3.452 0 1 0 0-6.904 3.452 3.452 0 0 0 0 6.904Z" fill="#6D3E1D"/><path d="M41.795 19.711V.668c0-.89-1.447-.89-1.447 0v19.043c0 1.002 1.447 1.002 1.447 0Z" fill="#6D3E1D"/><path d="M83.12 210.443c7.203-5.465 10.36-13.43 7.052-17.791-3.308-4.361-11.83-3.466-19.032 1.998-7.203 5.464-10.36 13.429-7.052 17.79 3.308 4.361 11.83 3.467 19.032-1.997Zm4.11 9.274c-.333-5.68 3.564-10.468 5.457-10.691 2.116-.112 6.46 4.12 6.905 9.8.334 5.679-2.116 10.468-5.457 10.69-3.452.223-6.57-4.12-6.904-9.799Zm14.812-21.382c-2.339-6.459.668-13.475 2.895-14.254 2.45-.891 8.909 2.784 11.248 9.243 2.338 6.459 1.002 12.806-2.896 14.254-4.009 1.336-9.02-2.784-11.247-9.243Zm27.664-16.113c3.029-2.795 1.697-9.164-2.975-14.227-4.672-5.062-10.914-6.9-13.942-4.106-3.029 2.795-1.696 9.164 2.975 14.227 4.672 5.062 10.914 6.9 13.942 4.106ZM90.46 168.601c3.675-3.452 9.243-3.452 10.468-2.116 1.225 1.337.78 6.794-3.007 10.246-3.674 3.452-8.352 4.343-10.467 2.116-2.005-2.228-.669-6.793 3.006-10.246Zm12.696-95.881c-5.569.667-10.469-3.008-10.803-4.9-.222-2.117 3.787-6.571 9.355-7.24 5.568-.667 10.356 1.56 10.802 4.9.334 3.341-3.898 6.571-9.354 7.24ZM85.672 89.98c.445-3.563 3.563-6.125 4.788-6.013 1.337.222 3.564 3.452 3.007 7.015-.445 3.564-2.673 6.237-4.789 6.014-2.115-.223-3.452-3.452-3.006-7.016Zm39.353 8.447c1.195-2.966-1.813-6.973-6.719-8.95-4.906-1.976-9.852-1.174-11.047 1.792-1.195 2.967 1.813 6.974 6.719 8.95 4.906 1.977 9.851 1.175 11.047-1.792Zm-14.965 17.5c-2.45-2.672-2.45-6.681-1.559-7.461 1.002-.891 4.9-.557 7.35 2.116 2.45 2.673 3.118 6.014 1.559 7.461-1.559 1.448-4.9.557-7.35-2.116Zm-25.168-1.67c1.893-3.118 5.791-4.12 6.793-3.452 1.114.668 1.782 4.566-.111 7.684-1.893 3.118-5.011 4.565-6.793 3.452-1.782-1.114-1.782-4.566.111-7.684Zm26.95 26.17c-4.9-2.005-7.462-7.239-6.793-9.02.779-1.894 6.124-3.787 11.136-1.782 4.9 2.004 7.906 6.013 6.793 9.02-1.225 3.007-6.125 3.786-11.136 1.782Zm-23.498 8.575c1.448-5.123 6.57-8.241 8.352-7.684 1.894.557 4.455 5.791 2.896 11.025-1.448 5.122-5.234 8.575-8.352 7.684-3.007-.891-4.343-5.902-2.896-11.025Zm-16.593 10.357c1.894-6.571 8.353-10.468 10.691-9.8 2.45.668 5.68 7.461 3.787 14.031-1.894 6.571-6.682 11.025-10.691 9.8-4.01-1.225-5.68-7.461-3.787-14.031Zm19.142-15.961c2.239-1.73 1.706-6.17-1.19-9.917s-7.058-5.382-9.297-3.652c-2.238 1.73-1.705 6.17 1.19 9.917 2.897 3.747 7.059 5.382 9.297 3.652Zm-5.889-36.268c-3.564-.78-5.791-4.121-5.569-5.346.334-1.336 3.787-3.229 7.239-2.45 3.563.78 6.013 3.119 5.568 5.346-.445 2.116-3.786 3.229-7.239 2.45Zm-4.566-19.488c-3.118 2.895-7.684 2.895-8.687 1.782-1.113-1.114-.556-5.68 2.45-8.464 3.118-2.895 7.016-3.675 8.687-1.782 1.781 1.782.668 5.568-2.45 8.464Zm-16.816 16.592c-4.009-.334-6.904-3.674-6.793-5.01.111-1.449 3.675-4.01 7.573-3.676 4.009.334 7.015 2.562 6.793 5.012-.223 2.45-3.564 4.009-7.573 3.674ZM60.17 85.303c-3.564 1.782-7.796.557-8.464-.668-.668-1.337.891-5.346 4.566-7.127 3.564-1.782 7.35-1.56 8.464.668 1.002 2.116-1.003 5.345-4.566 7.127Zm-36.304 3.341c3.786 2.227 5.234 6.793 4.454 8.13-.78 1.447-5.456 2.338-9.243.222-3.786-2.227-5.79-5.79-4.454-8.13 1.336-2.338 5.457-2.45 9.243-.222Zm54.79-31.961c-3.675 4.232-9.8 4.9-11.248 3.563-1.559-1.336-1.559-7.46 2.116-11.581 3.675-4.232 8.686-5.79 11.248-3.564 2.45 2.116 1.559 7.35-2.116 11.582ZM18.298 66.817c4.12 2.339 5.68 7.35 4.9 8.798-.891 1.559-5.902 2.56-10.134.222-4.12-2.338-6.348-6.347-4.9-8.797 1.448-2.45 6.014-2.562 10.134-.223Zm28.62 3.341c-3.786 2.895-9.02 2.338-10.023 1.002-1.113-1.448 0-6.459 3.787-9.354 3.786-2.896 8.352-3.23 10.022-1.003 1.782 2.228.111 6.46-3.786 9.355Zm-6.682-14.366c-3.452 4.789-9.8 6.236-11.47 5.011-1.782-1.336-2.45-7.683 1.002-12.472s8.575-7.127 11.47-5.011c2.896 2.115 2.45 7.684-1.002 12.472Z" fill="#8AC27C"/><path d="M42.909 65.147c-4.789 2.672-8.464 7.906-10.134 13.029-.891 2.895-1.225 5.902-1.225 8.909 0 1.002 1.559 1.002 1.448 0-.223-7.684 2.895-15.257 9.243-19.822.445-.335.89-.669 1.336-.891.89-.335.111-1.67-.668-1.225Z" fill="#72A265"/><path d="M15.96 71.94c5.456 2.672 10.133 7.572 13.14 12.695 1.67 2.784 2.784 5.79 3.452 8.909.223.89 1.67.557 1.448-.446-2.005-8.909-7.796-16.593-15.48-21.381-.556-.334-1.224-.78-1.781-1.002-.891-.446-1.56.78-.78 1.225Zm5.122 20.935c4.343 1.003 8.018 4.9 9.8 8.909 1.113 2.562 1.559 5.234 1.67 8.018 0 1.003 1.56 1.003 1.448 0-.223-4.677-1.448-9.243-4.455-12.918-1.781-2.115-4.009-3.897-6.57-4.9-.557-.222-1.002-.445-1.559-.556-.89-.112-1.336 1.225-.334 1.447Zm56.794 111.028c6.682-4.677 13.252-9.911 18.71-15.925 1.892-2.115 3.785-4.343 5.233-6.793.446-.779-.779-1.559-1.336-.779-2.673 4.566-6.57 8.352-10.468 11.804a130.051 130.051 0 0 1-10.69 8.686c-.78.557-1.56 1.114-2.228 1.671-.668.557 0 1.893.78 1.336Zm32.963-4.12c-1.559-3.118-2.895-6.571-3.786-10.023-1.782-6.125-2.895-12.918-.668-19.043.334-.89-1.114-1.336-1.448-.445-2.338 6.236-1.225 13.252.557 19.488 1.002 3.675 2.339 7.35 4.12 10.691.446.891 1.671.223 1.225-.668Zm-17.261-26.17c5.457-3.564 10.357-9.132 12.696-15.257 1.002-2.672 1.559-5.568 1.447-8.463 0-1.002-1.559-1.002-1.447 0 .334 6.125-2.562 11.804-6.57 16.259-2.005 2.227-4.344 4.454-6.794 6.124-.78.557-.111 1.894.668 1.337Z" fill="#72A265"/><path d="M123.535 176.397c-2.116-1.336-4.009-3.341-5.68-5.234-4.566-5.345-7.572-11.804-9.354-18.486-.223-.891-1.671-.557-1.448.445 2.45 8.798 7.016 17.707 14.254 23.498.446.334 1.003.779 1.448 1.113.891.446 1.67-.891.78-1.336Zm-29.623-21.716c3.898-7.573 5.569-17.038 3.453-25.279-.223-.891-1.67-.557-1.448.445 2.004 7.907.445 17.039-3.341 24.166-.445.779.89 1.559 1.336.668Zm24.166-18.374c-2.339-.669-4.677-1.671-6.905-2.784-4.343-2.228-8.574-5.123-11.359-9.132-1.67-2.45-2.672-5.345-2.783-8.352 0-1.002-1.56-1.002-1.448 0 .222 10.579 10.356 17.261 19.265 20.824.891.335 1.782.669 2.784 1.003.891.111 1.337-1.225.446-1.559ZM87.12 117.821c1.892-1.559 3.452-3.675 4.788-5.68 3.564-5.122 6.125-10.913 7.795-17.038.223-.891-1.225-1.336-1.447-.445-1.56 5.902-4.12 11.581-7.573 16.592-1.336 1.894-2.784 3.787-4.566 5.346-.78.779.334 1.893 1.002 1.225Z" fill="#72A265"/><path d="M114.514 114.368c-2.45-2.004-4.454-4.454-6.347-7.015-4.677-6.348-7.907-13.586-9.689-21.159-.222-.89-1.67-.557-1.447.445 1.781 7.684 5.122 15.146 9.799 21.493 1.893 2.562 4.009 5.234 6.571 7.239.779.557 1.782-.446 1.113-1.003ZM90.572 91.205c.334-2.895.222-5.902-.112-8.797-.668-5.569-2.561-11.025-6.459-15.146-.668-.668-1.67.334-1.002 1.003 5.457 5.902 7.127 15.145 6.125 22.94-.111 1.002 1.336 1.002 1.448 0Zm25.835 3.007c-6.013-2.227-12.027-5.68-16.704-10.134-2.004-1.893-3.897-4.01-5.234-6.459-.445-.78-1.782-.111-1.336.78 4.343 7.683 12.695 12.918 20.602 16.37.779.334 1.447.668 2.227.89 1.002.335 1.336-1.113.445-1.447Z" fill="#72A265"/><path d="M76.54 65.37c3.786 1.335 7.684 2.45 11.582 3.117 5.345 1.003 12.361 2.005 17.261-1.225.779-.557 0-1.781-.78-1.336-4.788 3.118-11.804 2.004-17.038.89-3.564-.779-7.239-1.67-10.69-3.006-.892-.223-1.226 1.225-.335 1.56Zm-3.563-13.475c-.112 1.002-.557 1.67-1.114 2.56-1.448 2.45-3.675 4.567-6.014 6.237-2.227 1.67-4.677 3.007-7.127 4.232-.89.445-.111 1.67.78 1.336 4.009-1.893 7.906-4.343 10.913-7.461 1.448-1.56 2.895-3.34 3.675-5.345l.334-1.003c.111-1.113-1.336-1.559-1.448-.556ZM58.834 79.958c-2.228 1.002-4.232 2.227-6.237 3.563-4.12 2.896-7.906 6.46-10.58 10.69-1.78 2.785-3.006 5.903-3.674 9.133-.223.89 1.225 1.336 1.448.445 1.782-9.577 9.354-16.927 17.595-21.493.668-.334 1.447-.78 2.116-1.113.89-.335.111-1.67-.669-1.225Zm28.508 57.796c-2.004-1.893-3.786-4.009-5.345-6.125-2.896-3.897-5.68-8.574-6.237-13.586-.11-.891-1.559-1.002-1.447 0 .445 5.234 3.23 9.911 6.236 14.143 1.782 2.339 3.675 4.677 5.79 6.682.558.668 1.671-.446 1.003-1.114Zm-38.531-32.072c.89-1.447 2.227-2.784 3.564-3.786 3.34-2.45 7.35-3.118 11.358-2.227.891.222 1.337-1.225.446-1.448-3.564-.78-7.127-.557-10.357 1.114-2.116 1.002-3.897 2.561-5.345 4.454-.334.446-.668.78-.891 1.225-.557.668.78 1.448 1.225.668ZM62.62 92.319a29.281 29.281 0 0 0 4.343-.668c2.561-.557 5.234-1.337 7.461-2.784 1.225-.78 2.227-1.782 2.896-3.007.445-.891-.891-1.56-1.337-.78-1.113 2.116-3.452 3.23-5.568 4.01-2.116.779-4.343 1.224-6.459 1.558-.445.112-.78.112-1.336.112-.891.111-.891 1.67 0 1.559Zm10.468 3.786A28.502 28.502 0 0 0 75.315 99c1.56 1.782 3.452 3.453 5.68 4.344 1.336.556 2.784.891 4.231.891 1.003 0 1.003-1.56 0-1.448-4.231.223-7.906-3.341-10.134-6.46l-.668-1.001c-.557-.78-1.893 0-1.336.78Zm-41.649-9.688c1.336 5.68 1.67 11.693 1.559 17.595-.112 3.229-.334 6.459-.891 9.688h1.447c1.448-7.684 1.225-15.925.112-23.609-1.225-7.683-5.457-15.145-4.9-23.163.445-5.902 3.675-11.136 7.461-15.479.668-.78-.445-1.782-1.002-1.002-3.34 3.897-6.348 8.352-7.461 13.475-.78 3.786-.446 7.572.445 11.247s2.227 7.461 3.23 11.248Z" fill="#72A265"/><path d="M109.169 157.354c-.223-4.677-1.782-9.132-3.898-13.363-2.004-4.009-4.565-7.796-6.57-11.805-.89-1.67-1.67-3.452-2.004-5.345-.335-2.005-.335-4.009-.112-5.902.78-9.689 4.009-19.155 3.118-29.066-.89-8.797-5.79-17.038-12.695-22.495-7.461-6.013-17.15-8.24-26.281-5.234-7.573 2.562-13.14 7.907-16.704 15.034-4.9 10.023-6.237 23.275-5.791 34.299v.223h1.447c-.556-9.131.446-20.045 3.453-28.731 2.227-6.682 6.013-13.14 12.25-16.816 8.686-5.234 19.265-5.122 27.84.334 7.461 4.789 13.363 13.03 14.7 21.827 1.447 9.577-1.56 19.154-2.673 28.62-.446 3.452-.668 7.35.668 10.691 1.56 3.786 3.898 7.35 5.902 10.913 2.227 4.009 4.343 8.13 5.346 12.696 1.002 4.565.556 9.243-.891 13.697-2.673 8.241-6.905 15.813-10.023 23.831-3.34 8.687-5.902 18.041-4.454 27.395.334 2.339.89 4.566 1.782 6.682.334.891 1.781.557 1.447-.445-7.127-18.932 5.346-37.641 11.916-54.79 1.336-3.787 2.45-7.907 2.227-12.25Z" fill="#72A265"/><path d="M82.554 147.22c-1.003-4.009-3.341-7.573-5.346-11.136-1.782-3.118-1.893-6.793-1.893-10.357 0-4.232.334-8.463.78-12.695.668-6.57 2.004-14.032-3.118-19.266-5.903-6.013-15.703-2.45-20.491 3.118-3.452 4.009-6.904 11.248-8.463 16.927h1.558c1.337-4.343 3.787-9.799 5.903-13.029 1.893-3.007 4.566-5.79 7.906-7.238 3.787-1.67 8.575-2.005 11.916.78 5.457 4.454 4.01 12.138 3.452 18.262-.445 3.898-.78 7.796-.78 11.805-.11 3.341-.11 6.904.892 10.245 1.113 3.675 3.897 6.904 5.345 10.468 2.227 5.457 1.782 11.025-.78 16.37-.445.891.891 1.559 1.337.78 2.116-5.012 3.118-10.023 1.782-15.034Z" fill="#72A265"/></svg>