<svg width="638" height="528" fill="none" xmlns="http://www.w3.org/2000/svg"><path d="M303.118 515.039c23.879-8.055 44.382-24.693 86.933-36.856 27.092-7.729 143.884 40.151 219.467-82.417 7.932-12.855 14.197-27.214 18.183-41.086C692.016 131.064 435.49-51.385 207.114 17.283 146.176 35.629-7.959 113.612 6.116 309.159c9.723 134.975 136.725 260.025 297.002 205.88Z" fill="#fff"/><mask id="a" style="mask-type:alpha" maskUnits="userSpaceOnUse" x="2" y="0" width="633" height="526"><path d="M300.118 513.039c23.879-8.055 44.382-24.693 86.933-36.856 27.092-7.729 143.884 40.151 219.467-82.417 7.932-12.855 14.197-27.214 18.183-41.086C689.016 129.064 432.49-53.385 204.114 15.283 143.176 33.629-10.959 111.612 3.116 307.159c9.723 134.975 136.725 260.025 297.002 205.88Z" fill="#fff"/></mask><g mask="url(#a)" fill="#DEF4DE"><path d="M550.617 154.746h-69.035a5 5 0 0 0-5 5v139.332a5 5 0 0 0 5 5h69.035a5 5 0 0 0 5-5V159.746a5 5 0 0 0-5-5Zm0-155.606h-69.035a5 5 0 0 0-5 5v139.332a5 5 0 0 0 5 5h69.035a5 5 0 0 0 5-5V4.14a5 5 0 0 0-5-5Zm-85.309 155.606h-69.036a5 5 0 0 0-5 5v139.332a5 5 0 0 0 5 5h69.036a5 5 0 0 0 5-5V159.746a5 5 0 0 0-5-5Zm0-155.606h-69.036a5 5 0 0 0-5 5v139.332a5 5 0 0 0 5 5h69.036a5 5 0 0 0 5-5V4.14a5 5 0 0 0-5-5Zm-85.31 155.606h-69.036a5 5 0 0 0-5 5v139.332a5 5 0 0 0 5 5h69.036a5 5 0 0 0 5-5V159.746a5 5 0 0 0-5-5Zm0-155.606h-69.036a5 5 0 0 0-5 5v139.332a5 5 0 0 0 5 5h69.036a5 5 0 0 0 5-5V4.14a5 5 0 0 0-5-5Z"/></g><path d="M274.846 248.059c-.814-2.278-.529-2.807 0-4.882 1.139-4.393 9.926-6.346 14.36-14.929 2.848-5.451 12.489-3.702 18.184-8.95 4.068-3.742-.895-5.614 9.234-11.675 15.418-9.234 13.099-18.997 12.489-19.241-1.017-.407-.855 2.522-2.034 4.027-5.492 6.997-41.9-5.614-72.654 15.011-13.384 8.949-22.659 21.356-25.14 36.855-1.79 11.35 1.952 17.086 5.98 16.028 4.759-1.261 1.261 1.953 4.271 6.183 12.407 17.655 38.402-9.966 35.31-18.427Z" fill="#7CA417"/><path d="M115.667 277.958c15.01 14.441 26.157 3.132 35.757-8.421 2.319-2.766 8.99 7.119 17.126-3.335 12.733-16.476-3.864-39.378-21.235-91.123-2.115-6.346-21.601-52.111-33.357-71.799-5.777-9.682-12.204-16.394-17.696-19.201-13.953-7.2-23.716-2.644-24.733-8.584-.732-4.352 2.766-5.329.61-6.264-2.725-1.18-9.315 17.044-7.973 35.188 1.058 14.237 6.143 19.526 11.594 35.269 5.329 15.377 4.23 21.113 7.851 46.212 6.834 47.595 10.251 71.108 32.056 92.058Zm68.057 168.699c1.22-12.611 2.522-25.222 4.19-37.832 1.667-12.611 3.62-25.14 6.102-37.629 2.481-12.448 5.451-24.855 9.071-37.019 3.621-12.203 7.973-24.163 13.18-35.798 5.207-11.593 11.309-22.821 18.55-33.316 7.241-10.455 15.621-20.177 25.14-28.598s20.218-15.54 31.73-20.909c1.465-.651 2.889-1.302 4.353-1.953l4.353-1.871c2.888-1.261 5.776-2.563 8.583-4.028 2.807-1.464 5.533-3.051 8.096-4.881 2.562-1.831 4.962-3.946 6.915-6.468-1.912 2.522-4.271 4.678-6.793 6.59-2.563 1.871-5.289 3.539-8.055 5.044-2.807 1.505-5.654 2.848-8.543 4.19l-4.312 1.953a201.524 201.524 0 0 0-4.271 2.034c-11.35 5.532-21.845 12.773-31.161 21.275-9.315 8.502-17.451 18.225-24.448 28.72-6.997 10.495-12.855 21.682-17.818 33.276-4.963 11.594-9.071 23.513-12.489 35.676-3.417 12.123-6.183 24.449-8.42 36.856-2.278 12.407-4.028 24.896-5.492 37.466-1.464 12.529-2.563 25.14-3.58 37.751l-4.881-.529Z" fill="#346E00"/><path d="M106.798 129.396c-8.705 13.506-22.333 16.475-22.577 16.069-.285-.529 12.123-5.207 18.916-18.713-5.858-3.783-12.733-6.305-20.787-6.956-15.336-1.221-9.722-4.8-22.333-9.031-16.557-5.573-23.35-5.98-26.97-4.841-5.859 1.871-6.062-3.132-6.998-2.197-.61.61-5.613 12.489 2.4 20.706 4.231 4.312 9.275 2.522 15.011 8.868 3.051 3.377 2.807 5.655 5.004 10.008 4.76 9.437 16.15 7.932 17.736 16.19 9.397 48.856 26.808 51.867 42.51 52.111 8.665.122 7.282-7.323 12.692-6.306 14.116 2.685 14.238-52.883-14.604-75.908Z" fill="#9FBC50"/><path d="M183.805 93.069c12.651 9.844 26.523 8.136 26.604 7.688.122-.569-13.139-.895-24.041-11.39 4.271-5.492 9.926-10.17 17.289-13.424 14.034-6.224 7.566-7.73 18.102-15.906 13.79-10.74 20.055-13.383 23.838-13.465 6.143-.163 4.679-4.963 5.899-4.393.773.366 9.397 9.926 4.597 20.299-2.563 5.492-7.933 5.451-11.228 13.343-1.749 4.19-.773 6.264-1.424 11.105-1.383 10.455-12.61 12.814-11.39 21.113 7.282 49.182-8.136 57.806-22.862 63.216-8.136 2.97-9.316-4.515-14.075-1.749-12.448 7.241-30.917-45.154-11.309-76.437Z" fill="#346E00"/><path d="M185.961 59.305c-15.336-12.082-22.17-23.838-31.974-25.018-5.411-.65-4.841 1.627-10.007-2.319-2.4-1.83-4.312-4.637-5.004-4.23-.651.406 1.098 2.847.773 5.776-.488 4.556-5.614 5.94-8.868 10.007-2.4 3.051-2.888 6.509-2.888 10.089 9.437 4.15 25.872 2.644 23.634 3.62-2.318 1.017-15.051 3.62-23.431 3.295.081 14.482-6.061 18.51-10.007 35.392-3.011 12.895-1.424 19.2-1.139 36.977.854 54.064-12.611 66.024-.773 87.828 1.302 2.441 17.126 21.438 31.404 21.56 8.584.081 11.106-6.712 22.334-7.322 10.983-.61 14.278 5.573 25.424 6.549 0 0 7.526 1.139 22.13-8.461 36.815-24.205 8.055-142.542-31.608-173.743Z" fill="#7CA417"/><path d="M288.921 148.312c-1.017-5.98-4.027-8.38-2.969-13.831.366-1.953 1.179-3.905.528-4.353-.854-.569-3.539 2.238-4.352 2.97-6.794 6.468-22.252 4.149-25.506 3.783-19.486-2.115-45.033 19.689-56.952 33.642-5.532 6.468-27.499 32.218-21.153 59.962.244 1.017 1.912 21.031 15.987 23.065 8.949 1.261 12.773-8.99 22.577-6.427 6.427 1.668 9.112 6.142 15.133 6.712 7.973.732 14.97-9.031 16.556-11.39 5.696-8.543 2.645-12.652 7.852-27.947 2.44-7.16 4.515-13.14 9.478-19.811 4.556-6.102 8.421-8.502 10.78-11.675-4.637 1.464-10.414 1.179-16.841-.936-4.394-1.424-8.136-4.515-7.689-5.004.366-.447 5.289 2.726 11.675 2.279 8.665-.611 12.855-3.336 15.337-5.492-.245-5.37-2.401-9.804-.529-10.902 1.505-.895 3.335 1.79 5.695 1.098 3.58-1.098 5.532-9.072 4.393-15.743Z" fill="#346E00"/><path d="M135.966 250.865c-15.215-7.77-17.737-6.305-27.134-16.109-3.051-3.173-4.841-8.461-24.407-16.353-4.516-1.831-1.383-4.841-2.034-5.533-1.058-1.098-5.574 2.889-7.689 7.77-4.881 11.472-3.05 20.584.407 28.069 12.733 7.323 21.153 3.173 21.764 4.76.203.569-9.764 3.173-17.655 2.685 1.586 2.603 3.173 5.003 4.393 7.2 3.498 6.387 3.092 18.102 6.956 29.777 15.865-7.647 28.557-5.695 28.557-5.491 0 .04-1.301.081-2.359.284-13.221 2.563-19.16 8.543-23.066 12.53 3.214 6.02 8.096 11.716 15.866 16.312 1.667.977 8.502 5.492 17.736 3.621 8.705-1.749 6.143-12.001 12.651-11.553 29.778 2.196 22.415-44.463-3.986-57.969Zm52.436 189.039c9.804-24.978 17.98-50.606 22.943-76.925 2.482-13.14 4.109-26.442 4.556-39.826.204-6.671.122-13.343-.285-20.014-.447-6.672-1.22-13.302-2.44-19.852-.326-1.627-.61-3.254-.977-4.922-.366-1.668-.691-3.336-1.017-5.004-.61-3.335-1.179-6.712-1.545-10.129-.814-6.793-1.099-13.628-.814-20.462.285-6.834 1.098-13.627 2.563-20.299l.569-2.481.61-2.482c.448-1.627.855-3.254 1.343-4.922.936-3.254 1.993-6.509 3.214-9.682 2.4-6.387 5.329-12.529 8.908-18.346 3.58-5.777 7.77-11.187 12.611-15.947 2.4-2.4 5.004-4.597 7.689-6.631l2.074-1.464c.692-.488 1.424-.936 2.116-1.424a93.782 93.782 0 0 1 4.352-2.603c5.899-3.336 12.204-5.899 18.713-7.689-6.468 1.953-12.692 4.638-18.469 8.095-1.464.855-2.847 1.79-4.271 2.726-.691.488-1.383.936-2.075 1.464l-1.993 1.506c-2.644 2.074-5.126 4.352-7.485 6.752-4.678 4.801-8.705 10.252-12.082 16.028-3.376 5.777-6.142 11.919-8.339 18.265a136.407 136.407 0 0 0-2.929 9.601l-1.22 4.881-.57 2.441-.488 2.441c-1.261 6.549-1.912 13.221-2.034 19.892a130.537 130.537 0 0 0 1.261 19.933c.447 3.295 1.058 6.59 1.749 9.845.366 1.627.732 3.254 1.099 4.922.406 1.627.772 3.336 1.098 5.004 1.383 6.671 2.359 13.465 2.969 20.258.611 6.794.855 13.628.773 20.462-.122 13.628-1.464 27.255-3.661 40.68-4.434 26.889-12.122 53.127-21.438 78.633l-7.078-2.725Z" fill="#7CA417"/><path d="M166.679 448.324c-1.221-31.974-4.597-63.907-9.641-95.556-5.045-31.649-11.716-63.094-20.584-93.929-2.238-7.689-4.597-15.377-7.16-22.984a481.536 481.536 0 0 0-8.217-22.578 310.925 310.925 0 0 0-9.641-22.007c-1.749-3.58-3.58-7.16-5.533-10.658a236.108 236.108 0 0 0-6.102-10.333c-4.352-6.712-9.112-13.18-14.766-18.794-.733-.692-1.424-1.383-2.156-2.075l-2.238-1.993-2.318-1.871c-.773-.61-1.628-1.18-2.4-1.749-.814-.57-1.668-1.099-2.523-1.628-.854-.488-1.708-1.017-2.603-1.423-1.75-.936-3.62-1.668-5.451-2.523-1.83-.854-3.661-1.871-5.207-3.254-1.546-1.342-2.889-2.929-4.028-4.597-.569-.813-1.139-1.668-1.708-2.481a52.304 52.304 0 0 0-1.79-2.4c-1.261-1.546-2.644-3.011-4.15-4.272-1.504-1.301-3.213-2.4-4.962-3.295-1.79-.895-3.661-1.627-5.533-2.318-1.87-.692-3.783-1.384-5.491-2.482a14.963 14.963 0 0 1-2.4-1.831c-.733-.691-1.343-1.505-1.953-2.318.61.813 1.261 1.586 1.993 2.278.732.691 1.546 1.261 2.4 1.79 1.709 1.017 3.62 1.708 5.533 2.359 1.912.651 3.824 1.302 5.614 2.197a28.017 28.017 0 0 1 5.125 3.254 32.926 32.926 0 0 1 4.312 4.272c.651.772 1.261 1.586 1.871 2.4.57.813 1.18 1.668 1.75 2.44 1.139 1.628 2.481 3.133 3.986 4.394 1.506 1.261 3.214 2.237 5.045 3.01 1.83.814 3.701 1.546 5.532 2.441.936.407 1.79.936 2.685 1.424.895.529 1.75 1.057 2.603 1.586.814.57 1.668 1.139 2.482 1.749l2.4 1.872 2.319 1.952c.773.651 1.505 1.383 2.237 2.034 5.858 5.614 10.862 12.082 15.377 18.754 2.237 3.376 4.353 6.834 6.387 10.292 2.034 3.498 3.946 7.078 5.776 10.658 3.661 7.2 7.038 14.563 10.17 22.007 3.132 7.445 6.021 14.97 8.746 22.578 2.726 7.607 5.248 15.254 7.648 22.984 9.519 30.835 16.841 62.321 22.577 94.092 5.695 31.77 9.763 63.867 11.594 96.166l-7.607.366Z" fill="#7CA417"/><path d="M183.48 435.022c-6.672-31.282-11.147-63.094-14.035-95.027-2.847-31.934-4.068-64.071-3.01-96.126.285-8.014.691-16.028 1.302-24.001a466.545 466.545 0 0 1 2.44-23.92c1.017-7.933 2.36-15.865 3.946-23.716a231.493 231.493 0 0 1 2.726-11.675 195.806 195.806 0 0 1 3.417-11.513c2.563-7.566 5.614-15.01 9.722-21.845.529-.854 1.017-1.708 1.587-2.522l1.668-2.481 1.79-2.4a51.053 51.053 0 0 1 3.946-4.434c.732-.692 1.423-1.384 2.196-2.034 1.505-1.343 3.092-2.523 4.678-3.784 1.587-1.261 3.092-2.725 4.231-4.434 1.18-1.708 2.075-3.539 2.766-5.45.366-.936.692-1.913 1.058-2.848.366-.936.732-1.872 1.18-2.767.854-1.79 1.83-3.539 2.969-5.166a27.72 27.72 0 0 1 4.028-4.434c1.505-1.302 3.173-2.481 4.8-3.58 1.668-1.139 3.336-2.278 4.719-3.742.691-.733 1.342-1.505 1.871-2.36.529-.854.936-1.79 1.302-2.725-.366.935-.814 1.83-1.383 2.685-.57.854-1.18 1.627-1.912 2.318-1.424 1.424-3.092 2.523-4.801 3.62-1.667 1.1-3.376 2.198-4.922 3.54-1.546 1.302-2.929 2.807-4.149 4.393-1.221 1.628-2.238 3.377-3.133 5.207-.447.895-.854 1.83-1.22 2.767l-1.098 2.806c-.732 1.872-1.627 3.621-2.807 5.207-1.139 1.587-2.604 2.929-4.149 4.15-1.587 1.22-3.214 2.4-4.76 3.702-.773.651-1.505 1.342-2.278 2.034-.732.732-1.424 1.423-2.115 2.196-.651.773-1.343 1.505-1.994 2.319l-1.871 2.4-1.749 2.482c-.61.813-1.099 1.708-1.668 2.522-4.312 6.875-7.566 14.36-10.333 21.967a200.666 200.666 0 0 0-3.661 11.553c-1.098 3.905-2.075 7.81-3.01 11.756-1.79 7.892-3.255 15.825-4.475 23.798a395.639 395.639 0 0 0-2.929 24.042 529.921 529.921 0 0 0-1.79 24.123c-1.668 32.218-1.098 64.558 1.139 96.736 2.278 32.177 6.184 64.314 12.286 96.085l7.485-1.424Z" fill="#7CA417"/><path d="M174.611 447.674c1.465-17.045 2.156-34.212 2.482-51.42.325-17.207.366-34.415.163-51.622-.367-34.456-1.506-68.871-3.092-103.326-1.587-34.415-3.621-68.83-6.305-103.205-.692-8.583-1.384-17.167-2.197-25.75l-.651-6.427-.692-6.428c-.244-2.115-.569-4.23-1.098-6.305-.488-2.075-1.302-4.027-2.237-5.94a66.672 66.672 0 0 1-1.302-3.01c-.366-1.017-.732-2.074-1.017-3.132-.57-2.115-.936-4.23-1.302-6.387-.691-4.271-1.22-8.542-2.115-12.732-.854-4.19-2.075-8.38-3.865-12.245-1.79-3.905-4.23-7.526-7.119-10.699a42.731 42.731 0 0 1 7.363 10.618c1.872 3.905 3.173 8.054 4.15 12.285.935 4.23 1.586 8.502 2.359 12.733.407 2.115.814 4.23 1.424 6.264.285 1.017.651 2.034 1.017 3.01.407.977.854 1.953 1.302 2.93.976 1.912 1.83 3.986 2.4 6.102.569 2.115.935 4.27 1.22 6.427l.814 6.427.773 6.428c.976 8.583 1.83 17.167 2.684 25.75 3.296 34.334 5.94 68.749 8.177 103.164 2.197 34.415 3.987 68.911 5.004 103.407.488 17.248.813 34.537.773 51.826-.041 17.289-.407 34.578-1.587 51.948l-7.526-.691Zm-11.309.976c-.65-20.177-2.4-40.354-5.573-60.287-3.173-19.933-7.688-39.704-13.994-58.904-3.173-9.601-6.752-19.079-10.902-28.273-4.149-9.234-8.827-18.184-14.197-26.767-5.37-8.543-11.431-16.719-18.428-24.042-1.749-1.83-3.58-3.579-5.288-5.451a84.554 84.554 0 0 1-4.882-5.858c-1.545-2.034-2.97-4.108-4.23-6.305-.61-1.098-1.22-2.237-1.668-3.417-.448-1.18-.855-2.4-.814-3.702 0 1.261.407 2.482.895 3.661.488 1.18 1.099 2.278 1.709 3.377 1.301 2.196 2.766 4.23 4.352 6.224a84.34 84.34 0 0 0 5.004 5.736c1.75 1.83 3.58 3.539 5.41 5.369 7.16 7.201 13.425 15.296 18.998 23.798 5.573 8.502 10.454 17.451 14.807 26.686 4.353 9.193 8.136 18.672 11.513 28.272 6.712 19.201 11.675 39.052 15.254 59.067 3.58 20.055 5.736 40.354 6.794 60.694l-4.76.122Z" fill="#346E00"/><path d="M244.865 300.535c-6.061 4.231-25.953 16.394-47.717 25.344-23.472 9.641-45.887 17.126-53.86 15.255-3.58-.814-8.665-2.156-10.455-5.614-3.335-6.55 7.119-18.387 13.384-23.757 3.742-3.214 7.77-5.695 15.54-10.495 4.8-2.97 8.461-5.004 9.641-5.655 7.647-4.271 20.502-14.238 36.205-24.367 9.925-6.387 17.288-11.634 30.469-18.469 10.78-5.573 15.377-6.997 20.014-5.532 8.177 2.603 13.75 13.384 13.221 22.618-.692 12.651-12.855 21.153-26.442 30.672Z" fill="#F79556"/><path d="M188.036 329.215c.162-12.326-1.221-22.903-4.312-32.341-.895-2.725-1.831-5.247-2.807-7.526l-.244-.569.528-.366a616.104 616.104 0 0 0 5.899-4.109c5.939-4.149 12.692-8.909 20.136-13.668 1.912-1.221 3.702-2.4 5.452-3.539 7.403-4.841 14.359-9.397 25.058-14.97 8.787-4.557 13.221-6.143 16.923-6.143 1.261 0 2.481.203 3.702.569 8.868 2.848 14.238 14.401 13.75 23.391-.733 13.058-12.815 21.479-26.808 31.242-5.207 3.621-25.1 16.069-47.88 25.425a399.581 399.581 0 0 1-8.38 3.336l-1.058.407.041-1.139Z" fill="#F5641A"/><path d="M359.622 292.115c1.424 6.956 3.133 11.797 6.102 20.258 4.76 13.546 4.557 12.082 13.913 32.747 10.048 22.293 12.448 26.605 16.231 31.934 2.522 3.539 5.085 9.966 11.878 13.953 3.051 1.79 6.997 4.719 10.496 3.458 6.671-2.36 7.2-17.615 6.387-25.506-.489-4.719-1.668-9.153-3.946-17.655-1.424-5.248-2.645-9.113-3.011-10.333-2.522-8.055-8.298-27.215-12.57-44.707-2.725-11.024-4.393-19.608-9.112-33.113-3.865-11.065-6.143-15.092-10.373-17.126-7.445-3.58-18.469.284-24.205 7.078-7.892 9.356-5.003 23.35-1.79 39.012Z" fill="#DD6326"/><path d="M329.153 121.667c-23.106-1.749-41.086 14.441-72.735 43.853-14.034 13.017-24.164 18.753-30.388 28.882-5.857 9.56-17.41 34.212-11.959 60.776 5.735 27.947 30.835 53.412 58.294 55.771 47.107 4.068 82.417-62.077 88.681-76.721 11.96-27.907 16.923-70.742-7.485-103.611-7.241-9.764-20.543-8.665-24.408-8.95Z" fill="#290708"/><path d="M390.417 353.541c9.966-.732 20.665-4.434 30.306-10.577-2.278-8.054-9.885-40.191-15.865-62.768-9.804-37.06-18.346-41.697-41.412-42.226-23.024-.529-33.357-12.855-63.094-6.59-11.634 2.441-25.14 8.827-38.605 12.936-20.543 6.265-34.944 10.902-46.212 18.143-5.248 3.377 16.15 51.216 25.994 70.173 2.767 5.329 12.489 39.622-8.136 72.409-9.315 20.747-15.336 31.405-5.898 36.043 20.136 9.885 37.385 10.048 91.204 5.939 36.733-2.807 60.816 1.18 51.785-18.021-16.15-34.212 7.77-54.47 19.933-75.461Z" fill="#F5641A"/><path d="M329.967 211.895c1.342 4.556-3.661 31.282-4.637 33.642-3.173 7.688-12.896 15.702-22.456 15.417-13.261-.407-18.509-10.251-18.183-19.851.447-12.977.935-24.734-1.139-50.443-.57-6.916 43.812 12.448 46.415 21.235Z" fill="#EC7D40"/><path d="M311.783 197.412c-4.922-1.789-5.044-4.271-11.553-1.871-4.597 1.709-8.095 6.143-10.658 11.879 1.627 7.566 6.102 16.068 11.024 21.885 3.255 3.865 8.34 9.845 16.964 10.862 2.603.325 5.532.163 8.38-.488 2.034-8.787 5.085-24.408 4.068-27.785-2.644-8.786-13.547-12.773-18.225-14.482Z" fill="#D66730"/><path d="M272.283 156.082c-.244-11.879 5.573-20.828 7.689-24.001 10.088-15.052 20.95-18.957 24.977-19.893 13.994-3.254 25.994-3.01 37.1 5.411 20.299 15.377 17.085 49.263 15.621 59.718-1.424 10.088-7.811 40.476-24.652 53.412-2.888 2.237-6.549 4.719-12.611 4.515-8.461-.284-16.312-6.468-19.16-9.519-9.804-10.536-12.122-18.265-15.784-37.547-3.661-19.689-12.936-20.218-13.18-32.096Z" fill="#F79556"/><path d="M314.468 217.142a.578.578 0 0 1 .448-.854c1.83-.122 6.264-.285 11.308.203 3.458.366 6.672 1.261 8.014 1.627.366.122.488.529.326.855-.936 1.667-4.028 5.98-10.211 5.288-5.532-.61-8.787-5.248-9.885-7.119Z" fill="#DC2947"/><path d="M340.706 173.534c.489-1.261 1.302-2.319 2.197-3.214.936-.936 1.993-1.668 3.132-2.278 2.36-1.221 5.167-1.261 7.73-.977.65.082 1.301.123 1.912.285l.935.204c.326.081.651.203 1.017.284 1.302.489 2.4 1.221 3.377 2.075 1.912 1.709-3.214.936-4.19.773l-.733-.081-.813-.041c-.529-.041-1.058 0-1.587.041-.529.04-1.057.162-1.546.244-.528.162-1.017.244-1.505.447-.976.326-1.952.651-2.969.895l-3.173.814a95.041 95.041 0 0 1-3.539.854l-.245-.325Zm-44.422-6.753c2.116-1.587 4.556-2.685 7.16-3.499a20.585 20.585 0 0 1 8.217-.691c.692.04 1.383.203 2.115.284.692.122 1.424.285 2.116.448 1.383.407 2.725 1.058 3.824 1.993 2.237 1.831 3.946 4.312 4.312 7.241l-.407.285c-2.644-1.18-4.638-2.319-6.712-3.295a33.44 33.44 0 0 1-2.929-1.587c-.488-.284-.976-.529-1.505-.813-.529-.204-1.058-.448-1.627-.61-1.099-.326-2.238-.57-3.418-.651-1.179-.163-2.4-.163-3.579-.122-2.441.081-4.923.61-7.323 1.423l-.244-.406Z" fill="#290708"/><path d="M305.315 179.961c.041.692 2.156 2.603 8.217 2.359 2.685-.122 5.37-.895 5.289-2.237-.041-1.302-1.872-3.58-4.231-3.865-4.068-.528-9.356 2.36-9.275 3.743Z" fill="#E6E6E6"/><path d="M309.953 178.212c1.383-3.58 7.729-2.36 6.508 2.441-1.301 4.881-8.746 3.295-6.508-2.441Z" fill="#290708"/><path d="M319.472 181.059c-.733-.691-1.424-1.261-2.116-1.586a5.042 5.042 0 0 0-2.156-.488c-1.464-.082-3.091.244-4.759.528-1.709.326-3.499.651-5.451.733-.977.04-1.994 0-3.011-.244-.488-.122-1.017-.326-1.464-.651-.448-.326-.814-.773-.976-1.221.447.204.895.285 1.301.285.407-.041.814-.081 1.221-.203.813-.204 1.586-.489 2.441-.773 1.667-.57 3.417-1.18 5.288-1.505 1.871-.326 3.986-.489 6.102.284 1.057.366 2.034 1.058 2.685 1.953.61.854.895 1.871.895 2.888Z" fill="#290708"/><path d="M342.496 182.971c.041.651 2.116 2.441 7.811 1.953 2.522-.204 3.661-1.424 3.539-2.726-.122-1.261-.57-3.051-2.807-3.254-3.824-.326-8.665 2.725-8.543 4.027Z" fill="#E6E6E6"/><path d="M347.052 181.385c1.139-3.295 6.957-2.441 6.021 1.993-.976 4.434-7.81 3.295-6.021-1.993Z" fill="#290708"/><path d="M355.31 182.687c-.772-.367-1.423-.773-2.074-1.017a6.502 6.502 0 0 0-1.79-.407c-1.099-.041-2.156.284-3.458.773-1.261.447-2.685 1.057-4.312 1.383-.814.162-1.749.244-2.644.04-.936-.203-1.79-.732-2.156-1.505.854.122 1.505 0 2.115-.244.61-.244 1.139-.569 1.749-.935 1.18-.692 2.482-1.546 4.028-2.116.773-.285 1.627-.529 2.563-.569a6.252 6.252 0 0 1 2.847.447 5.408 5.408 0 0 1 2.156 1.749c.529.773.854 1.587.976 2.401Z" fill="#290708"/><path d="M289.816 196.07c-.569.976-2.685 4.475-5.37 4.393-2.888-.081-4.718-.651-7.851-7.729-2.969-6.712-2.807-12.733-2.44-14.319.244-1.017.894-4.068 3.417-5.37 3.213-1.708 7.119.57 7.851.977 6.509 3.945 8.502 15.173 4.393 22.048Z" fill="#F79556"/><path d="M246.736 188.829c11.269-5.532 22.862-10.129 32.829-12.895 41.9-11.513 57.155-39.785 57.155-39.785s39.622 44.422 28.191 79.244c-4.109 12.529-9.234 18.55-9.479 21.519 1.302 0 2.604-.081 3.987-.244.244-.04.488-.04.732-.081 4.068-6.143 10.048-21.235 10.048-21.235 5.004-14.4 3.011-26.848-.935-51.744-1.587-10.048-3.662-25.71-14.442-41.616-8.827-13.017-20.584-13.953-25.099-13.505-1.831.529-1.668.813-1.993.691-24.571-9.844-48.165-2.563-63.786 33.154-9.804 22.455-30.713 35.554-38.605 50.85-9.641 18.712-9.397 31.201-8.909 33.154.163 1.098 6.224-25.669 30.306-37.507Z" fill="#290708"/><path d="M216.43 189.602c4.515-.285 6.387-1.058 6.387-1.058 1.586-.651 2.319-1.261 3.864-1.301.488 0 2.767-.041 4.15 1.667 1.545 1.912.773 4.435.691 4.719-.691 2.197-2.685 3.458-4.881 4.475-7.445 3.417-16.15 3.01-21.601 2.441-8.624-.895-12.855-3.539-14.401-6.956-1.22-2.726-.976-5.085 1.749-6.957 5.289-3.579 15.662 3.499 24.042 2.97Z" fill="#D66730"/><path d="m258.411 331.818-63.134-21.764a4.129 4.129 0 0 1-2.563-5.288l28.313-82.051a4.13 4.13 0 0 1 5.288-2.563l63.135 21.764a4.129 4.129 0 0 1 2.563 5.288L263.7 329.255a4.196 4.196 0 0 1-5.289 2.563Z" fill="#FFED00"/><path d="m201.867 306.271-7.16.529c-1.017-14.319-1.79-28.923-2.4-41.819a1754.27 1754.27 0 0 0-.976-18.631c-1.709-29.167 6.793-37.588 10.861-41.615l.163-.163c9.966-9.926 22.496-10.658 29.045-10.211 16.394 1.099 37.303 9.275 43.324 12.082 10.902 5.045 17.004 12.245 18.184 21.438 1.058 8.34-1.627 15.662-3.255 20.015-.162.407-.284.813-.406 1.139l-6.753-2.4c.122-.366.285-.773.447-1.221 1.465-3.986 3.702-10.047 2.848-16.678-.854-6.672-5.451-11.879-14.075-15.825-7.201-3.335-26.645-10.495-40.802-11.431-5.37-.366-15.54.204-23.513 8.136l-.162.163c-3.336 3.295-10.252 10.17-8.747 36.124.326 5.532.651 11.919.977 18.712.651 12.855 1.383 27.418 2.4 41.656Zm59.88 19.689-3.986-5.939c10.943-7.363 21.519-15.133 31.404-23.106.611-.488 1.302-1.058 2.034-1.627 7.201-5.817 19.201-15.581 34.863-25.506 5.003-3.173 11.105-6.753 19.73-8.828 6.956-1.708 14.237-2.115 21.6-1.18l-.854 7.119c-6.509-.813-12.895-.447-19.038 1.058-7.566 1.831-12.814 4.922-17.574 7.933-15.336 9.681-27.133 19.282-34.211 25.018a50.48 50.48 0 0 0-2.034 1.667 477.652 477.652 0 0 1-31.934 23.391Z" fill="#FFED00"/><path d="M409.699 362.775s7.689 8.095 12.163 21.804c.488 1.506 1.221 4.109.041 6.469-.366.732-1.546 2.603-5.492 3.864-4.19 1.343-15.336 2.238-23.472-2.319-9.234-5.166-13.221-14.36-15.906-20.624-3.132-7.119 25.873-16.353 32.666-9.194Z" fill="#DD6326"/><path d="M370.24 323.56c-6.224-9.316-1.546-25.791 13.384-33.398 3.498-1.79 8.257-5.207 9.844-9.926.447-1.383.041-2.563.407-2.563.447.041.569 2.97.61 3.743.285 6.102-1.098 11.106-1.668 13.994-1.912 9.56 1.221 22.17-7.485 30.713-6.265 6.143-12 2.034-15.092-2.563Zm-13.384-37.385c.326.041-.407.448-.081 1.546.488 1.505 1.749 2.441 2.522 3.255 2.766 3.01 3.376 6.875 3.173 10.82-.122 2.889-2.359 7.079-4.393 5.614-9.886-6.956-3.051-16.8-2.238-18.509.936-2.115.57-2.766 1.017-2.726Z" fill="#346E00"/><path d="M365.846 338.774c4.638-4.596-1.464-30.428-22.414-43.161-2.156-1.302-5.695-3.824-6.387-3.295-.325.244 1.953.651 1.261 2.848-7.566 24.082 17.737 24.082 19.038 39.459.367 4.556 5.899 6.712 8.502 4.149Z" fill="#346E00"/><path d="M417.55 298.054c-1.383 1.302-5.613.773-9.6 2.522-3.702 1.627-5.288 5.329-6.956 10.618-2.807 9.112-10.862 23.024-22.089 23.146-18.184.163-1.75-20.502 14.522-31.689 7.038-4.841 16.679-4.922 21.032-4.963 2.603-.041 3.742-.204 3.091.366Z" fill="#7CA417"/><path d="M368.735 277.796c1.383-.651-.488 4.84 6.468 11.878 14.807 15.052 11.756 45.439-3.743 46.944-6.142.611-29.086-23.919-4.353-52.68 2.889-3.376 1.099-5.898 1.628-6.142Z" fill="#7CA417"/><path d="M385.251 300.739c.081-1.058 3.783 9.844 4.23 15.173.936 11.553-.529 17.899-5.044 22.74-5.207 5.614-14.075 7.892-19.363 2.848-4.719-4.516-4.963-12.489-.895-18.062 2.888-3.986 3.905-4.149 11.878-12.651 4.963-5.289 8.787-5.167 9.194-10.048Z" fill="#9FBC50"/><path d="M395.868 336.781a2.797 2.797 0 0 0-2.807-2.563h-39.459a2.797 2.797 0 0 0-2.807 2.563l-1.749 19.77v2.848c0 10.78 8.746 20.502 19.485 20.502h9.56c10.78 0 19.486-9.722 19.486-20.502v-2.848l-1.709-19.77Z" fill="#FFED00"/><path d="M227.658 198.836c-2.278-3.702-4.434-8.177-10.333-12.814-1.302-1.017-1.993-1.464-2.888-2.075-2.482-1.708-7.77-2.318-17.737-3.051-1.342-.081-2.969-.569-4.434.326-1.545.935-1.139 2.237-2.888 3.864-1.749 1.668-2.807 1.017-4.719 2.848-1.139 1.139-1.749 2.319-2.074 3.01-.895 1.831-.611 2.441-1.587 4.922-.691 1.79-.895 1.546-1.383 2.97-.732 2.034-.57 3.173-.854 5.166-.407 1.872-14.482 29.29-15.499 31.12-17.655 30.836-29.086 57.765-33.358 89.943-.325 2.522-1.017 9.804 3.499 13.018 7.729 5.451 17.289-3.011 19.079-4.719 15.621-15.255 17.695-20.259 21.926-36.409 8.217-31.12 11.96-60.734 13.302-65.616.773-2.807 1.749-6.387 2.807-8.583.57-.732 1.139-1.302 1.668-1.465.407-.122 1.017-.854 3.214.041 1.952.814 4.963 2.644 7.688.854 3.092-2.034 1.871-4.475 2.36-4.963.488-.529 1.22.122 2.481-.244 1.464-.447 2.278-1.871 2.522-2.319.61-1.139.936-2.725 1.424-3.457 1.017-1.587 2.685-.244 4.597-2.156 3.539-3.539-.163-9.885.203-10.089.651-.325 5.939 9.234 10.414 9.967.407.081.936.244 1.953-.407 1.098-.692 1.505-1.18 1.546-2.441.081-2.156-1.099-4.271-2.929-7.241Z" fill="#F79556"/><path d="M199.182 188.91c1.749-.162 3.498.041 5.207.448 1.708.407 3.336 1.058 4.881 1.871 1.546.814 2.97 1.871 4.272 3.051 1.261 1.22 2.359 2.604 3.173 4.149-1.465-.976-2.848-1.912-4.231-2.807a64.113 64.113 0 0 0-4.231-2.481 54.832 54.832 0 0 0-4.393-2.156c-1.505-.692-3.051-1.342-4.678-2.075Zm-4.516 8.584c1.912.163 3.784.651 5.614 1.261 1.79.61 3.58 1.424 5.248 2.359 1.668.977 3.295 2.156 4.597 3.662.651.772 1.22 1.667 1.546 2.644.325.976.447 1.952.366 2.929-.407-.895-.773-1.75-1.302-2.441-.529-.732-1.139-1.302-1.79-1.912-1.383-1.098-2.929-2.075-4.475-2.97-1.586-.935-3.213-1.79-4.841-2.685-1.708-.935-3.335-1.83-4.963-2.847Zm-5.044 9.966c1.627.163 3.173.57 4.678 1.058a25.918 25.918 0 0 1 4.394 1.871c1.424.773 2.766 1.628 3.986 2.726.611.569 1.18 1.18 1.628 1.871.447.692.854 1.465.935 2.278-1.058-1.22-2.319-1.993-3.58-2.766-1.301-.773-2.644-1.464-3.986-2.197-1.343-.732-2.726-1.464-4.068-2.237-1.343-.773-2.726-1.587-3.987-2.604Z" fill="#D66730"/><path d="M353.521 362.531c1.586-1.912 3.539-1.383 3.62-1.83.041-.285-.244-.407-.529-.936-.61-1.139.122-3.498 1.099-4.434 1.098-1.058 3.254-1.587 5.41-1.871.163-.041.285-.245.203-.407-.284-.692-.284-1.221-.284-1.343v-.04c-.041-.366-.122-1.383.447-2.441.244-.448.488-1.058 1.749-1.79 3.214-1.871 11.879-1.668 15.743-1.627 3.336.041 11.757.935 14.645 1.627 4.76 1.098 5.98 2.034 6.793 3.254 0 0 0 .041.041.041 1.221 1.953.773 4.719-1.017 6.224a6.156 6.156 0 0 1-1.668 1.058c-.162.081-.325.122-.447.162-.651.245-.895 1.18-.407 1.668.488.488.814 1.017.976 1.546.529 1.79.204 3.417.204 3.417a7.717 7.717 0 0 1-1.221 2.807c-.895 1.261-1.383 1.017-2.196 2.034-1.099 1.383.203 2.156-.651 4.638-1.261 3.661-4.068 4.068-4.272 4.718-.528 1.424.773 1.465-.081 3.458-.569 1.261-1.709 2.075-2.4 2.319-4.882 1.871-14.319-.814-18.021-2.034 0 0-8.868-3.295-13.262-7.933-.61-.651-1.098-1.179-1.179-1.912-.122-1.22.854-1.789.61-2.522-.326-1.098-1.953-.61-3.621-2.4-2.237-2.319-.569-5.085-.284-5.451Z" fill="#EC7D40"/><path d="M358.85 360.823c-.163 0-.204.244-.041.325a87.39 87.39 0 0 0 7.119 1.871c2.685.61 5.37 1.099 8.054 1.546l2.034.326 2.034.284c.651.082 1.343.204 1.994.326l1.993.325c1.342.244 2.685.488 4.068.692 1.058.162 2.156.284 3.214.447.162.041.244-.244.081-.285-.366-.162-.732-.366-1.098-.488a38.627 38.627 0 0 0-1.912-.773 111.373 111.373 0 0 0-3.906-1.383 44.596 44.596 0 0 0-4.027-1.057c-.691-.163-1.342-.245-2.034-.367l-2.034-.325c-2.725-.447-5.41-.773-8.176-1.017-1.384-.122-2.767-.203-4.15-.285-.691-.04-1.383-.04-2.074-.04-.326-.163-.733-.163-1.139-.122Zm6.549-7.526c-.163 0-.203.285-.041.325 2.075.488 4.109.895 6.184 1.261 2.359.407 4.718.773 7.078 1.099l1.79.203 1.79.203 3.539.367c1.179.122 2.359.284 3.539.406.895.122 1.79.204 2.725.285.163 0 .245-.244.082-.325l-.854-.366c-.57-.204-1.139-.448-1.709-.651-1.139-.407-2.278-.733-3.458-1.058-.285-.081-.569-.122-.895-.203-.284-.082-.61-.122-.895-.163-.61-.122-1.179-.204-1.79-.326-.61-.081-1.179-.203-1.789-.284l-1.79-.244c-2.4-.285-4.76-.529-7.201-.651-1.22-.041-2.4-.082-3.62-.082-.61 0-1.221.041-1.831.082-.244.081-.529.081-.854.122Zm-6.061 16.841c-.163 0-.204.244-.041.326.326.122.651.203.976.284l1.709.488c1.139.326 2.278.611 3.376.895a408.06 408.06 0 0 0 6.794 1.628l1.708.366 1.709.366c.569.122 1.139.244 1.708.325l.855.163.854.163a101.2 101.2 0 0 0 3.458.569c.569.082 1.179.163 1.749.244.325.041.692.082 1.017.122.163 0 .244-.244.081-.284-.325-.163-.61-.326-.935-.448a64.636 64.636 0 0 0-1.627-.732c-1.099-.448-2.197-.854-3.296-1.261l-.854-.285-.854-.285a80.7 80.7 0 0 1-1.668-.488 26.202 26.202 0 0 0-1.708-.447 25.8 25.8 0 0 0-1.709-.407c-2.278-.529-4.638-.895-6.997-1.139-1.18-.122-2.359-.163-3.539-.204-.854-.04-1.79-.04-2.766.041Z" fill="#DD6326"/><path d="M621.477 453.043H15.839a11.458 11.458 0 0 1-11.472-11.471A11.459 11.459 0 0 1 15.84 430.1h605.598a11.458 11.458 0 0 1 11.471 11.472c.041 6.305-5.085 11.471-11.431 11.471Z" fill="#282444"/><path d="M485.201 351.384c2.196-2.278 3.091-5.573-2.726-14.848-11.675-18.671-38.035-10.129-41.697-.04-.773 2.156 1.75-.163 3.173 1.708 7.567 9.926 35.595 19.079 41.25 13.18Z" fill="#7CA417"/><path d="M451.03 139.932c2.237-1.261.081 1.261 16.475 3.295 26.93 3.376 47.554 41.696 45.846 70.294-.366 6.062-1.465 24.693-14.279 32.951-1.586 1.017-7.566 5.247-14.563 3.864-70.66-14.115-49.385-93.156-35.147-104.75 3.824-3.132-.529-4.434 1.668-5.654Z" fill="#346E00"/><path d="M504.117 327.913c-9.763-1.587-9.153-24.245-1.343-39.785 0 0 14.035-30.673 54.267-23.513 2.604.448 3.865-.285 3.539.366-1.668 3.377.854 6.794-3.864 17.208-3.295 7.363-24.083 50.402-52.599 45.724Zm.162-72.126c6.184 3.702 20.869-10.983 45.602-35.716 0 0 11.391-11.391 25.832-33.236 6.02-9.112 5.776-12.366 5.776-12.366-3.376-4.8-29.737 5.614-49.71 21.438-9.072 7.16-23.554 18.957-28.273 38.727-.976 3.946-4.393 18.102.773 21.153Zm-22.699 13.059c-4.963 3.01-10.78-4.679-41.046-24.734-16.516-10.942-29.37-18.346-37.628-34.496-3.987-7.81-3.377-10.536-2.482-11.716 2.97-3.824 29.656-2.481 47.311 6.55 7.647 3.905 25.709 13.139 33.479 33.316 3.865 10.089 6.794 27.174.366 31.08Zm9.112-8.177c-1.912-10.414-4.149-20.828-6.752-31.12a423.251 423.251 0 0 0-8.869-30.591c-3.295-10.089-6.997-20.096-10.983-29.94a516.872 516.872 0 0 0-12.977-29.168 478.71 478.71 0 0 1 13.79 28.802c4.272 9.763 8.258 19.648 11.879 29.696a449.515 449.515 0 0 1 9.763 30.469c2.888 10.292 5.41 20.665 7.689 31.12l-3.54.732Z" fill="#7CA417"/><path d="M492.97 337.513c3.946-6.875 8.055-13.587 12.53-20.136l3.376-4.882 3.539-4.759c.285-.407.611-.773.895-1.18l.936-1.18 1.831-2.319c.61-.772 1.261-1.545 1.871-2.278l1.912-2.278c5.166-5.98 10.698-11.675 16.638-16.841 5.98-5.166 12.366-9.804 19.119-13.831a136.158 136.158 0 0 0-18.631 14.4c-5.777 5.329-11.065 11.147-15.987 17.249l-1.831 2.318c-.61.773-1.22 1.546-1.79 2.319l-1.749 2.359-.854 1.18c-.285.407-.57.773-.854 1.18l-3.336 4.841-3.214 4.922a306.418 306.418 0 0 0-11.756 20.34l-2.645-1.424Zm-3.335-63.257c5.776-8.502 11.227-17.207 16.922-25.832 5.696-8.583 11.594-17.085 18.062-25.14 1.587-2.034 3.255-4.027 4.922-5.979a228.073 228.073 0 0 1 5.126-5.818l1.302-1.423 1.342-1.384c.895-.935 1.831-1.83 2.726-2.766 1.871-1.79 3.742-3.58 5.654-5.288a212.603 212.603 0 0 1 11.96-9.804c4.109-3.092 8.339-6.061 12.692-8.787-4.312 2.848-8.421 5.899-12.489 9.113-4.027 3.213-7.932 6.549-11.675 10.047-7.566 6.957-14.197 14.808-20.421 22.984-6.224 8.177-11.878 16.76-17.329 25.466-5.492 8.705-10.699 17.573-16.313 26.238l-2.481-1.627Zm-.814 10.373c-1.424-4.759-3.458-9.397-5.817-13.871-2.359-4.475-5.004-8.787-7.851-12.977-5.736-8.38-12.245-16.272-19.282-23.595-7.079-7.322-14.686-14.115-22.944-20.177-8.217-6.02-17.004-11.349-26.401-15.417 9.479 3.824 18.428 8.949 26.849 14.767 8.42 5.857 16.272 12.529 23.553 19.729 7.282 7.2 14.075 15.011 20.055 23.35 3.011 4.19 5.818 8.502 8.34 13.018 2.522 4.515 4.719 9.234 6.386 14.238l-2.888.935Zm5.37 73.793c-1.261-1.708-2.726-3.295-4.312-4.8a55.694 55.694 0 0 0-5.044-4.231c-3.54-2.685-7.323-5.044-11.228-7.119-3.946-2.074-8.055-3.864-12.285-5.288-4.231-1.383-8.665-2.359-13.14-2.685 4.516.041 8.99.773 13.343 1.953 4.353 1.139 8.624 2.725 12.733 4.637 4.108 1.912 8.095 4.109 11.878 6.631a60.135 60.135 0 0 1 5.492 4.109c1.749 1.464 3.458 3.091 4.963 4.922l-2.4 1.871Z" fill="#346E00"/><path d="M413.767 259.245c.081-3.376 40.07-14.807 69.156 31.08 6.915 10.942 6.142 29.492 2.318 27.946-15.173-6.142-51.256-18.997-67.365-55.975-1.871-4.271-4.15-1.261-4.109-3.051Z" fill="#9FBC50"/><path d="M495.208 247.204c-.122 2.929-.366 5.777-.57 8.665l-.691 8.543a614.051 614.051 0 0 0-.692 8.542 200.639 200.639 0 0 1-.895 8.502c-1.261 14.889.692 31.405 1.139 34.253.244 1.423.448 2.847.651 4.271s.366 2.888.488 4.312c.285 2.888.529 5.777.773 8.665.448 5.776.773 11.553.814 17.289.04 5.776-.082 11.553-.366 17.329-.082 1.424-.163 2.888-.244 4.312a155.988 155.988 0 0 1-.326 4.312c-.122 1.424-.285 2.889-.407 4.312-.162 1.424-.325 2.889-.569 4.312h-.488c-.366-2.888-.611-5.776-.895-8.624-.244-2.888-.488-5.735-.692-8.624a813.579 813.579 0 0 1-1.058-17.207c-.284-5.736-.447-11.472-.569-17.208-.081-2.888-.122-5.736-.244-8.583l-.122-4.272a151.185 151.185 0 0 1-.082-4.312c-.04-2.888-.04-5.776-.081-8.664-.041-2.889-.163-5.777-.285-8.665-.122-2.888-.325-5.777-.528-8.665-.245-2.888-.489-5.817-.57-8.705-.244-5.817.448-11.635 1.464-17.371 1.058-5.735 2.482-11.39 4.679-16.8l.366.081Z" fill="#7CA417"/><path d="M491.547 331.492c-1.139-3.864-2.767-7.647-4.638-11.309-1.871-3.661-3.986-7.241-6.264-10.698-4.516-6.957-9.682-13.506-15.255-19.649-2.807-3.091-5.696-6.061-8.746-8.908a136.247 136.247 0 0 0-9.479-8.096c-6.59-5.085-13.668-9.6-21.357-12.936 7.77 3.092 15.011 7.404 21.805 12.367 3.376 2.481 6.671 5.085 9.803 7.892a166.883 166.883 0 0 1 9.113 8.705c5.817 6.061 11.227 12.529 16.027 19.445 2.401 3.458 4.679 7.038 6.713 10.739 2.034 3.702 3.864 7.567 5.207 11.675l-2.929.773Z" fill="#7CA417"/><path d="M525.107 359.683h-62.118a3.265 3.265 0 0 0-3.254 3.255v8.054a3.265 3.265 0 0 0 3.254 3.255h1.384l3.498 50.971a4.913 4.913 0 0 0 4.922 4.922h42.633a4.913 4.913 0 0 0 4.922-4.922l3.498-50.971h1.383a3.265 3.265 0 0 0 3.255-3.255v-8.054c-.082-1.79-1.546-3.255-3.377-3.255Z" fill="#D78E42"/><path d="m523.073 384.051.692-9.845h-59.23l58.538 9.845Z" fill="#3E1A4A"/><path d="M66.078 364.077c0 .366-2.685 4.963-1.098 4.76 3.173-.407 3.05-7.933 7.77-15.418 2.603-4.109 3.823-4.637 8.502-9.438 7.729-7.891 7.81-10.495 16.963-25.872 0 0 4.637-7.607 10.78-11.878 2.644-1.831 3.173-1.261 3.417-1.709.082-.203.163-3.946-26.32 14.482-20.014 13.913-20.299 35.188-20.014 45.073Z" fill="#9FBC50"/><path d="M65.02 368.023c2.645 1.424 7.363-3.824 16.76-12.285 0 0 8.34-7.526 18.632-13.994 3.091-1.953 7.444-4.475 11.634-3.417.936.244 2.848.895 3.051.529.203-.407-1.831-1.424-1.993-1.424-19.811-2.929-34.822 10.536-38.402 13.587-5.41 4.556-12.326 10.332-10.943 15.051.082.448.366 1.465 1.261 1.953Z" fill="#346E00"/><path d="M59.732 373.149c2.034 1.952 7.607-1.546 18.224-6.794 0 0 9.438-4.637 20.3-7.851 3.254-.976 7.851-2.115 11.309-.122.772.447 2.359 1.546 2.603 1.261.285-.325-1.261-1.749-1.424-1.79-17.085-7.648-34.008.61-38.035 2.441-6.062 2.725-13.71 6.183-13.71 10.739.082.489.082 1.465.733 2.116Z" fill="#7CA417"/><path d="M78.607 336.333c6.835-15.987 4.028-16.149 8.706-23.106 2.847-4.23 10.21-13.627 12-17.695.651-1.465 1.587-3.946 2.482-6.794.04-.203.244-.569.162-.61-.203-.122-1.057 2.319-3.417 5.166-4.678 5.492-10.047 8.787-15.051 12.163-9.479 6.306-14.523 14.686-16.516 17.94-2.278 3.783-10.251 17.045-5.166 26.157.528.936 2.318 4.109 4.881 4.231 1.14.041 4.597-.366 11.92-17.452Zm-22.984-15.051c-1.26-.203-2.563-1.017-4.108-3.173-4.963-6.997-5.492-20.584-1.302-31.689 4.271-11.35 10.17-13.994 11.878-21.805 0 0 1.22-5.654 4.475-9.315l.448-.448c.895-.936 1.464-1.546 1.586-1.464.244.122-1.26 2.034-1.79 3.539-1.668 4.637 1.18 10.007 2.034 11.878 4.272 9.153 5.289 27.215-.244 39.622-2.644 5.899-8.176 13.628-12.977 12.855Z" fill="#346E00"/><path d="M60.79 308.631c-.122-7.567 4.84-8.218 13.587-24.693 2.807-5.288 8.217-18.997 12.977-19.445.447-.04.243.57-.285.692-5.37 1.383-5.41 18.224-5.41 18.224-.041 17.981-10.455 37.1-15.459 36.856-2.766-.203-5.329-6.346-5.41-11.634Z" fill="#346E00"/><path d="M53.345 374.572c-2.644 1.424-7.363-3.824-16.76-12.285 0 0-8.34-7.526-18.631-13.994-3.092-1.952-7.444-4.475-11.634-3.417-.936.244-2.848.895-3.051.529-.204-.407 1.83-1.424 1.993-1.424 19.81-2.929 34.822 10.536 38.401 13.587 5.41 4.556 12.326 10.333 10.943 15.052-.081.488-.366 1.505-1.26 1.952Z" fill="#7CA417"/><path d="M36.87 342.883c-6.834-15.987-4.027-16.15-8.705-23.106-2.848-4.231-10.211-13.628-12-17.696-.652-1.464-1.587-3.946-2.482-6.793-.041-.204-.245-.57-.163-.61.203-.122 1.058 2.318 3.417 5.166 4.678 5.492 10.048 8.787 15.051 12.163 9.479 6.305 14.523 14.685 16.516 17.94 2.279 3.783 10.252 17.045 5.167 26.157-.53.936-2.319 4.109-4.882 4.231-1.139.04-4.597-.367-11.919-17.452Z" fill="#7CA417"/><path d="M47.325 315.18c.122-7.566-4.841-8.217-13.587-24.692-2.807-5.289-8.218-18.998-12.977-19.445-.448-.041-.244.569.285.691 5.37 1.383 5.41 18.225 5.41 18.225.04 17.98 10.455 37.1 15.458 36.855 2.767-.162 5.33-6.346 5.41-11.634Z" fill="#346E00"/><path d="M60.22 347.968c-6.712-2.563-8.258-19.242-3.295-31.812 2.726-6.915 6.875-11.268 9.52-13.994 8.99-9.275 20.461-13.749 20.99-12.936.163.244-.163-.488-1.83 2.522-1.953 3.499-5.045 18.225-9.886 35.799-3.742 13.546-5.573 18.061-9.885 19.933-1.017.366-3.336 1.342-5.614.488Z" fill="#7CA417"/><path d="M32.965 272.507c.407-.325 2.36 1.505 3.05 2.156 10.7 9.926 16.354 21.235 16.354 21.235 7.241 14.441 7.444 24.611 7.322 28.394-.122 3.946-1.098 6.997-3.295 8.543-3.213 2.278-7.322.61-10.536-1.383-8.909-5.533-12.57-20.665-10.983-32.666.813-6.264 1.464-19.77-.53-23.716-.284-.57-1.789-2.237-1.382-2.563Z" fill="#7CA417"/><path d="M66.525 308.346c-.528-.326-2.481 2.074-3.173 2.929-10.739 13.058-15.498 26.848-15.498 26.848-6.062 17.696-4.76 29.371-4.028 33.724.733 4.515 2.319 7.851 5.126 9.315 4.027 2.116 8.502-.447 11.878-3.213 9.397-7.689 11.228-25.629 7.607-39.175-1.912-7.078-4.718-22.414-3.05-27.296.203-.651 1.667-2.807 1.138-3.132Z" fill="#9FBC50"/><path d="M51.515 377.176c0 .407 2.97 5.695 1.139 5.451-3.58-.529-3.336-9.112-8.543-17.736-2.888-4.76-4.23-5.37-9.478-10.903-8.665-9.153-8.665-12.122-18.794-29.818 0 0-5.126-8.787-12-13.75-2.97-2.156-3.621-1.505-3.825-1.993-.122-.244-.122-4.475 29.656 17.045 22.496 16.231 22.373 40.476 21.845 51.704Z" fill="#9FBC50"/><path d="M84.79 368.308H30.28a2.9 2.9 0 0 0-2.888 2.888v7.038a2.9 2.9 0 0 0 2.888 2.888h1.18l3.05 44.747a4.315 4.315 0 0 0 4.313 4.313h37.384a4.314 4.314 0 0 0 4.312-4.313l3.051-44.747h1.18a2.9 2.9 0 0 0 2.888-2.888v-7.038c0-1.586-1.26-2.888-2.847-2.888Z" fill="#D78E42"/><path d="m83 389.705.57-8.664H31.622l51.379 8.664Z" fill="#3E1A4A"/><path d="M552.647 397.272c-1.261-5.329-3.132-12.001-4.922-46.497-.163-3.377-.529-9.479 3.214-14.889.691-1.017 4.393-6.346 11.35-7.444 1.261-.204 6.427-.855 10.82 2.115 5.248 3.539 6.997 10.129 7.079 15.784.366 23.96-5.126 44.015-7.079 51.826-1.79 6.997-18.834 6.183-20.462-.895Z" fill="#9FBC50"/><path d="M577.381 362.694c2.4-1.953 4.963-.082 6.305-2.319 1.302-2.156.407-4.637.732-7.77.285-2.685 1.099-4.149 2.848-5.207 1.749-1.057 7.2-1.22 8.177 5.207.244 1.79.447 6.712-2.116 11.716-2.359 4.556-9.315 10.78-16.028 8.136-3.295-1.342-3.132-7.16.082-9.763Zm-25.954-11.553c-2.156-1.831-3.783 3.295-7.973-1.058-.854-.854-2.115-3.132-1.058-8.339.855-4.19-.569-8.99-5.858-8.868-3.091.081-5.085 2.44-5.857 5.491-2.523 10.374 2.44 15.947 2.847 16.516 3.58 5.045 11.065 10.821 15.621 8.34 3.865-2.116 4.841-9.885 2.278-12.082Z" fill="#9FBC50"/><path d="M556.756 396.539c-1.261-2.318-4.434-53.086 1.709-63.989.569-1.017 2.318-3.091 4.922-3.539 3.539-.569 6.509 2.36 7.363 3.214 5.166 5.085 4.678 13.546 4.434 18.428-1.749 35.554-2.97 44.585-4.922 46.944-2.644 3.295-11.553 2.604-13.506-1.058Z" fill="#7CA417"/><path d="M561.678 396.54c-.244-.936-.447-11.838 0-30.714.204-7.729.204-18.468.61-27.174.204-4.19.448-9.356 3.54-8.746 3.213.651 4.434 22.415 4.434 22.415.244 34.415-2.767 43.893-3.539 44.951-.733 1.179-4.719.651-5.045-.732Z" fill="#346E00"/><path d="M549.719 354.192c1.545 1.017 1.098 6.305-2.034 7.241-1.546.447-3.702-.285-5.37-1.505-5.492-3.906-7.526-9.519-7.77-10.252-3.458-11.268 1.18-16.475 3.173-16.19 1.343.203 2.034 2.807 2.36 3.946 1.057 4.027-.245 5.329.284 9.193.041.407.733 6.021 3.987 7.038 2.481.773 3.783-.529 5.37.529Z" fill="#7CA417"/><path d="M540.566 355.372c-3.743-3.377-5.98-11.798-3.824-19.649.325-1.18 1.952-1.22 1.383 1.099-2.278 8.746-.326 14.888 4.556 18.183 2.359 1.587 3.498 1.18 4.719.855 1.179-.326 1.993 2.074.203 2.44-1.79.326-4.963-1.057-7.037-2.928Z" fill="#346E00"/><path d="M578.805 363.711c2.115-2.034 3.498.854 5.817-1.668 4.678-5.248.407-9.966 2.481-12.611.082-.122 1.017-1.383 2.522-1.464 1.668-.122 2.929 1.22 3.173 1.546 1.953 2.644.977 8.868-.284 12.326-1.912 5.166-6.835 7.485-8.462 8.217-1.871.895-4.8 1.424-6.142.203-1.383-1.22-.977-4.759.895-6.549Z" fill="#7CA417"/><path d="M581.123 365.135c7.567 2.074 10.414-9.601 8.38-14.157-.569-1.261.854-2.115 1.261-.244 1.465 7.078-1.261 15.377-7.973 17.492-4.027 1.302-3.783-3.661-1.668-3.091Z" fill="#346E00"/><path d="M581.205 389.583h-35.799a1.866 1.866 0 0 0-1.871 1.871v4.638c0 1.058.854 1.871 1.871 1.871h.773l1.994 29.371a2.812 2.812 0 0 0 2.807 2.807h24.529a2.812 2.812 0 0 0 2.807-2.807l1.994-29.371h.773a1.866 1.866 0 0 0 1.871-1.871v-4.638c.122-1.057-.692-1.871-1.749-1.871Z" fill="#D78E42"/><path d="m580.025 403.618.407-5.696h-34.131l33.724 5.696Z" fill="#3E1A4A"/></svg>