<svg width="134" height="132" fill="none" xmlns="http://www.w3.org/2000/svg"><path fill-rule="evenodd" clip-rule="evenodd" d="M45.436 27.131c22.708-14.437 43.633-1.2 59.795 10.6 13.409 9.791 23.343 24.82 13.296 42.77-9.898 17.683-32.705 25.504-52.596 27.442-19.793 1.929-38.548-2.359-42.557-18.17-5.144-20.281-1.63-47.58 22.062-62.642Z" fill="#EEFFF4"/><g clip-path="url(#a)" fill="#0CA941"><path d="M92.783 79.72c-.49-1.837-2.354-2.924-4.163-2.427l-4.622 1.437c.615-2.806-.84-5.656-3.452-6.764a4.345 4.345 0 0 0-.59-3.854 4.202 4.202 0 0 0-3.674-1.768c-.66-2.239-2.538-3.887-4.815-4.226v-1.224a2.58 2.58 0 0 1 .743-1.82l2.28-2.316a6.219 6.219 0 0 0 3.931 1.417 7.94 7.94 0 0 0 5.588-2.591c2.726-2.77 5.313-13.177 5.598-14.355a.866.866 0 0 0-.223-.812.835.835 0 0 0-.8-.226c-1.159.29-11.402 2.917-14.132 5.685-2.935 2.982-3.355 6.844-1.157 9.67l-2.28 2.316c-.42.429-.745.944-.954 1.51a5.102 5.102 0 0 0-1.11-.92l-2.878-1.75a6.38 6.38 0 0 0 .239-5 8.405 8.405 0 0 0-3.73-4.24c-3.34-1.957-13.908-1.802-15.1-1.777a.842.842 0 0 0-.713.429.869.869 0 0 0-.01.843c.578 1.062 5.727 10.435 9.066 12.393a8.669 8.669 0 0 0 4.34 1.256c.382 0 .763-.031 1.14-.095a6.147 6.147 0 0 0 3.877-2.35l2.903 1.762a3.553 3.553 0 0 1 1.59 2.21c-2.858.473-4.959 2.978-4.965 5.92v.06a5.86 5.86 0 0 0-4.712 1.408 6.056 6.056 0 0 0-2.045 4.537h-.262a30.192 30.192 0 0 0-5.71.548 10.43 10.43 0 0 0-3.32 1.284V73.2a.851.851 0 0 0-.844-.858h-5.069a.851.851 0 0 0-.844.858v17.16c0 .474.378.858.844.858h5.069a.851.851 0 0 0 .844-.858v-2.746c1.089.688 2.29 1.17 3.548 1.422 1.62.31 3.266.466 4.916.466h12.121a17.615 17.615 0 0 0 4.606-.619l16.545-4.958c1.801-.491 2.87-2.374 2.386-4.203ZM75.648 47.089c1.773-1.802 8.317-3.868 11.961-4.868-.984 3.697-3.022 10.35-4.792 12.149-1.906 1.934-4.752 2.931-7.12 1.163l2.508-2.547 1.844.937a.84.84 0 0 0 1.135-.381.866.866 0 0 0-.375-1.154l-1.341-.68 1.723-1.757 1.849.944a.84.84 0 0 0 1.135-.382.866.866 0 0 0-.375-1.153l-1.352-.685 2.159-2.193a.867.867 0 0 0 .23-.834.85.85 0 0 0-.604-.613.835.835 0 0 0-.82.234l-2.158 2.194-.67-1.364a.839.839 0 0 0-1.134-.384.864.864 0 0 0-.377 1.151l.925 1.874-1.728 1.755-.67-1.363a.84.84 0 0 0-1.133-.383.864.864 0 0 0-.378 1.151l.923 1.873-2.507 2.546c-1.746-2.404-.758-5.296 1.142-7.23Zm-14.624 11.73a6.55 6.55 0 0 1-4.355-.954c-2.167-1.27-5.828-7.158-7.726-10.475 3.776.01 10.627.289 12.795 1.56 2.385 1.399 4.103 4.016 2.88 6.869l-3.033-1.841.443-2.199a.858.858 0 0 0-.663-.992.844.844 0 0 0-.992.649l-.325 1.608-2.111-1.28.428-2.13a.857.857 0 0 0-.662-.992.845.845 0 0 0-.992.649l-.31 1.545-2.62-1.593a.838.838 0 0 0-1.158.296.866.866 0 0 0 .291 1.177l2.618 1.59-1.084.977a.868.868 0 0 0-.073 1.213.836.836 0 0 0 1.194.074l1.484-1.337L59.14 54.5l-1.033.93a.867.867 0 0 0-.073 1.212.836.836 0 0 0 1.193.075l1.436-1.286 3.057 1.857a4.486 4.486 0 0 1-2.695 1.53Zm2.841 10.95a3.967 3.967 0 0 1 1.52.29c.295.12.63.064.87-.147.24-.21.344-.54.268-.853a4.278 4.278 0 0 1-.124-1.006c0-2.248 1.71-4.115 3.917-4.276 2.208-.16 4.163 1.438 4.479 3.664a.86.86 0 0 0 .378.604.834.834 0 0 0 .698.102c.216-.063.44-.095.665-.094 1.399 0 2.534 1.153 2.534 2.574 0 .492-.14.974-.405 1.386a.87.87 0 0 0-.075.79.85.85 0 0 0 .595.514c1.906.46 3.254 2.184 3.263 4.174a4.28 4.28 0 0 1-.411 1.853l-4.15 1.291a3.392 3.392 0 0 0-2.47-2.772l-3.712-1.007-7.198-2.145a15.788 15.788 0 0 0-1.544-.364.864.864 0 0 0 .058-.288c0-.474.378-.858.844-.858a.67.67 0 0 1 .254.04.84.84 0 0 0 1.094-.476.862.862 0 0 0-.46-1.115 2.304 2.304 0 0 0-.888-.165c-1.399 0-2.534 1.153-2.534 2.574 0 .022.011.041.013.063a15.73 15.73 0 0 0-1.347-.063h-.355c.003-2.368 1.892-4.287 4.223-4.29ZM46.972 89.501h-3.379V74.058h3.379v15.443Zm42.966-7.232-16.542 4.962a15.968 15.968 0 0 1-4.15.554H57.125c-1.543 0-3.082-.148-4.598-.44a8.866 8.866 0 0 1-3.057-1.24l-.809-.515v-7.662l.092-.067a9 9 0 0 1 3.548-1.572 28.53 28.53 0 0 1 5.39-.515h2.306c1.366 0 2.725.196 4.037.583l7.216 2.15 3.73 1.012a1.706 1.706 0 0 1 1.2 2.077v.012l-.004.01v.008a1.702 1.702 0 0 1-1.634 1.269 1.63 1.63 0 0 1-.433-.057L64.076 80.11a.836.836 0 0 0-.833.21.868.868 0 0 0-.222.842.85.85 0 0 0 .617.605l10.036 2.729c.283.077.575.115.868.115a3.384 3.384 0 0 0 3.11-2.11l11.43-3.553c.904-.24 1.83.306 2.07 1.223a1.716 1.716 0 0 1-1.215 2.098Z"/><path d="M68.98 69.303a.84.84 0 0 0 .664-.328.868.868 0 0 0 .155-.735.851.851 0 0 1 .824-1.046c.411-.003.762.3.825.713a.849.849 0 0 0 .324.57.823.823 0 0 0 .628.163.856.856 0 0 0 .72-.966c-.19-1.335-1.365-2.293-2.689-2.193-1.324.1-2.347 1.223-2.342 2.572a2.45 2.45 0 0 0 .07.6c.095.382.432.65.82.65Zm8.816 6.331a.868.868 0 0 0 .107.648c.12.193.309.33.528.382a.855.855 0 0 1 .639.826c0 .473.378.858.844.858a.851.851 0 0 0 .845-.858 2.572 2.572 0 0 0-1.952-2.501.844.844 0 0 0-1.011.645Zm-5.643-3.648a2.51 2.51 0 0 0-2.973 1.459c-.181.436.02.94.45 1.124a.84.84 0 0 0 1.108-.458.818.818 0 0 1 .978-.471.841.841 0 0 1 .513.401.869.869 0 0 1 .083.652.86.86 0 0 0 .597 1.051.847.847 0 0 0 1.035-.607c.36-1.372-.44-2.78-1.79-3.151Zm3.537-1.36c.467 0 .846.384.846.858s.378.858.844.858a.851.851 0 0 0 .845-.858c0-1.421-1.135-2.574-2.534-2.574a.851.851 0 0 0-.845.858c0 .474.378.858.845.858Z"/></g><defs><clipPath id="a"><path fill="#fff" transform="translate(41.904 39.74)" d="M0 0h50.994v51.795H0z"/></clipPath></defs></svg>