<svg width="15" height="21" fill="none" xmlns="http://www.w3.org/2000/svg"><path d="M7.97.38C3.96.38 0 3.123 0 7.558c0 2.821 1.547 4.424 2.484 4.424.387 0 .61-1.106.61-1.418 0-.373-.926-1.166-.926-2.717 0-3.222 2.39-5.506 5.485-5.506 2.66 0 4.629 1.55 4.629 4.4 0 2.128-.832 6.119-3.528 6.119-.972 0-1.805-.722-1.805-1.755 0-1.515 1.031-2.981 1.031-4.544 0-2.652-3.668-2.172-3.668 1.034 0 .673.082 1.418.375 2.032-.54 2.38-1.64 5.926-1.64 8.378 0 .757.105 1.503.175 2.26.133.153.066.137.27.06C5.46 17.56 5.39 17.02 6.28 13.4c.48.938 1.722 1.443 2.707 1.443 4.148 0 6.012-4.147 6.012-7.886C15 2.98 11.648.382 7.968.382L7.97.381Z" fill="#678570" fill-opacity=".53"/></svg>